<?xml version="1.0" standalone="no"?>
<!DOCTYPE svg PUBLIC "-//W3C//DTD SVG 1.1//EN" "http://www.w3.org/Graphics/SVG/1.1/DTD/svg11.dtd" >
<svg xmlns="http://www.w3.org/2000/svg">
<metadata>
This is a custom SVG webfont generated by Font Squirrel.
Copyright   : Typeface  your company 2008 All Rights Reserved
Designer    : Monsieur Joey
</metadata>
<defs>
<font id="KraboudjaRegular" horiz-adv-x="758" >
<font-face units-per-em="2048" ascent="1638" descent="-410" />
<missing-glyph horiz-adv-x="508" />
<glyph unicode=" "  horiz-adv-x="508" />
<glyph unicode="&#x09;" horiz-adv-x="508" />
<glyph unicode="&#xa0;" horiz-adv-x="508" />
<glyph unicode="!" horiz-adv-x="672" d="M333 1375l84 -105h-14l14 -15v-15q-66 -837 -167 -837l-28 30v-15q0 -22 139 -105l14 -75q0 -165 -98 -209h-27q-98 30 -98 120v45l56 104q0 119 -56 299v90l-28 329q0 128 140 359h69zM277 1300v-75h14l42 30h14v-15q-42 -63 -42 -119h28q0 63 42 134q-35 0 -42 60 l-14 15h-14zM208 1121h28l28 149q-32 0 -56 -149zM166 1091v-75h14v75h-14zM333 1076l-28 -209v-30h14l28 209v30h-14zM236 612l-14 -60v-29h14l14 74v15h-14zM291 298v-60h14v60h-14zM236 253l-14 -149h14l14 15h14l13 -15v15l-27 45l14 89h-28z" />
<glyph unicode="&#x22;" horiz-adv-x="672" d="M197 1108h-30l-62 359q-4 23 -4 33q0 37 20.5 57t59.5 20t60.5 -19.5t21.5 -56.5q0 -8 -4 -34zM509 1108h-30l-62 359q-4 23 -4 33q0 37 20.5 57t59.5 20t60.5 -19.5t21.5 -56.5q0 -8 -4 -34z" />
<glyph unicode="#" horiz-adv-x="1336" d="M596 859l-85 -290h242l86 290h-243zM673 1434h93l-141 -477h242l142 477h92l-141 -477h259l-29 -97h-259l-83 -290h279l-30 -98h-280l-140 -472h-92l139 472h-240l-142 -472h-92l140 472h-273l30 98h271l86 290h-295l29 97h295z" />
<glyph unicode="$" horiz-adv-x="1014" d="M489 1632h12q95 0 95 -163v-49h58q154 -105 154 -326v-33q-64 0 -95 -49l-106 147l-23 -293v-17q247 -114 247 -179v-131l12 -65q-94 -342 -247 -342l-36 16v-16l12 -49q-39 -310 -94 -310l-59 98v244h-95q-141 199 -141 424q0 102 94 115h12q71 -82 71 -196q47 0 47 -65 h24v358l-12 17v16l-12 -16h-12q-59 0 -177 244l-11 82q0 254 200 375h12l35 -16v130zM513 1583v-33q35 0 35 -32h12v32l-35 33h-12zM348 1387v-16h24l59 16v49zM336 1241l24 -33l47 114h-12zM654 1306l24 -33h12v33h-36zM572 1273l-24 -261h24v196l24 49l-12 16h-12z M254 1241v-49h12l11 49h-23zM383 1094v-49l24 -33q29 4 59 163l-12 49q-19 0 -71 -130zM725 1175q15 -81 36 -81v32l-12 82zM313 1159l11 -16h12v49zM277 1159l-11 -65h11l24 32v33h-24zM654 1159l59 -98h12v17l-47 81h-24zM489 1143v-131h12v131h-12zM537 963v-65h11v65 h-11zM431 947q5 -34 58 -65v16q0 37 -58 49zM313 914v-16l70 -65h24v16q0 23 -94 65zM548 768v-49h24v49h-24zM607 768v-17q154 -81 154 -146l-12 -49h23l-59 -261v-33q24 0 95 196q0 261 -71 261l-12 -16h-12l-94 65h-12zM466 654v-66h12v66h11l12 -17h12v66zM560 686v-81 h12v81h-12zM631 654q47 -66 47 -115h24v17q-17 67 -59 98h-12zM230 605l-23 -82l11 -16h12v65h12l71 -49v16l-36 66l-35 -17zM466 556v-82h12l11 82h-23zM619 556l-12 -212v-33h12l35 147l-11 98h-24zM313 474v-32q24 -98 94 -98v32zM383 311l24 -32h24v16l-12 16v16z M324 246v-16l48 -17q0 33 -36 33h-12zM454 230v-17l24 -32h11l-11 49h-24zM560 181h47l24 32l-12 17h-12q-47 -25 -47 -49zM501 181v-245h12q0 163 24 163l-12 82h-24zM454 83l-12 -147h24v147h-12z" />
<glyph unicode="%" horiz-adv-x="1610" d="M1231 1361h15l31 -32v-98l-107 -178l15 -81l-244 -324v33h-16v-17l16 -65l-336 -437l-15 16v-32h30v-16l-107 -114h-45l-62 81q49 218 703 1118l91 81h16v-16l-184 -259l16 -16q42 0 183 259l15 16v16zM574 1280q138 -256 138 -373q0 -94 -199 -275h-91q-275 0 -275 243 q84 373 229 373l30 -33q0 41 168 65zM513 1231l-15 -16v-16q14 -61 107 -97v16q0 72 -92 113zM315 1199q-122 -216 -122 -308v-65q49 -117 107 -129h15v16q-35 0 -107 162q69 292 153 292v32h-46zM345 1102v-33l16 -16v-16q-61 0 -61 -97q31 -97 122 -97q107 56 107 129v16 l-61 146h-16zM559 1069q23 -64 46 -64v32l-31 32h-15zM956 729v-16h15q183 280 183 340zM651 1037q0 -175 -199 -340h-15v-33q117 0 229 243l15 65l-15 65h-15zM1231 713h30l138 -65v-32h-31v-33q46 0 46 -32l15 16h31l15 -97q-21 -438 -153 -438q-59 -32 -168 -32 q-128 0 -167 292v97q0 187 244 324zM1017 405h31q26 134 152 211v32h16l122 -32v16q-16 49 -92 49q-229 -150 -229 -276zM1170 502h15l46 49v16zM1292 535q91 -123 91 -260h16l30 211l-61 49v-33l15 -48h-30l-15 97h-16l-15 -16h-15zM773 486l-31 -97h16q7 65 45 65v32h-30z M1261 486v-32l16 -17v-16h-31l-46 33h-15l-15 -81l15 16h15v-33l-46 -113h31q82 0 107 65v81l-15 16l15 16v65h-31zM635 470l-61 -114v-16h16l76 130h-31zM1093 292v-17h16l45 162q-35 0 -61 -145zM513 275l-61 -162l31 -48q61 24 61 48v65l-46 -32v32l31 49v48h-16z M1063 227q15 -114 91 -114v17q-30 97 -91 97zM1307 162v-16h31v-16l-31 -49h15q77 42 77 130v16zM1200 194v-16h46l15 16v17h-15z" />
<glyph unicode="&#x26;" horiz-adv-x="1683" d="M811 1508q290 0 351 -413h-17l17 -18v-18q-37 -159 -201 -287v-36q39 -89 151 -179q134 222 234 251q83 0 83 -162l-50 -215q117 -137 117 -287q0 -57 -67 -144q-77 0 -301 180l-16 71h-17q-58 -94 -301 -233l-83 18l-117 -18q-251 71 -251 269q-50 11 -50 144h17l-17 54 q130 395 251 395q-67 73 -67 215q0 279 284 413h50zM661 1364v-71h16q0 89 34 89l33 -36h17q0 72 83 72l-33 36h-84q-66 -37 -66 -90zM878 1454l-34 -90l101 -71v18q0 97 -67 143zM527 1095q0 -132 50 -144l-17 126v36q30 31 50 215q-40 0 -83 -233zM778 1293v-18l16 -18 v-18l-16 -18h-17l-34 36v-36l51 -180h16q0 126 34 126l16 -18v-108h17q84 46 84 144v54h-34q0 -54 -33 -54l-50 108h-50zM1045 1167l17 -18v-144l-34 -54v-17h34l33 71v72l-17 90h-33zM627 1149v-180h34v18l-17 54l17 108h-34zM928 1041v-54l33 36v54zM794 987v-18l17 -71 h17v71l-17 18h-17zM895 862l16 -18h17v54zM560 826l-33 -144q33 0 67 144h-34zM627 826l17 -108l-100 -179q0 -306 183 -306v-18q128 0 184 162v18q-250 243 -250 341v90h-34zM460 772l-17 -72v-18h17l34 72l-17 18h-17zM727 700v-18q39 -87 134 -161v18l-117 143v36h34v36z M410 700l-67 -287q60 -228 100 -233v89q0 60 -50 126v162l34 125v18h-17zM794 700q39 -78 84 -90v18l-34 72h-50zM1245 646v-18h17l34 72h-17q-34 0 -34 -54zM1329 700v-72h17v72h-17zM945 664v-72h16v72h-16zM1028 539v-18l67 -144h17l16 54q-33 108 -100 108zM1195 485 v-54l17 -18h33l-33 72h-17zM1329 413q0 -36 -50 -36l33 -36l17 18l17 -18v72h-17zM961 377v-54l34 -36l16 18v18zM878 233h17l50 54v18h-17q-25 0 -50 -72zM1396 305v-18l33 -90h17v54l-17 54h-33zM477 269v-72l33 36v36h-33zM1212 233v-53l17 -18h16v18l-16 53h-17z M1379 197v-53h33l-16 53h-17zM527 180v-36l-17 -18l17 -18l117 -36l-100 108h-17zM661 144v-36l66 -18q0 27 67 54l17 18v18h-67zM1379 90v-18h50v36z" />
<glyph unicode="'" horiz-adv-x="346" d="M197 1108h-30l-62 359q-4 23 -4 33q0 37 20.5 57t59.5 20t60.5 -19.5t21.5 -56.5q0 -8 -4 -34z" />
<glyph unicode="(" horiz-adv-x="765" d="M370 1515h14l15 -16l43 16q101 -22 101 -63l-43 -48l14 -15v-16q-86 -180 -173 -475v-126q72 -454 173 -759q-18 -79 -43 -79h-72q-158 157 -217 411q0 91 -87 127l-14 110q65 613 188 791l14 16zM399 1436v-32h29l43 48v16h-43zM182 1072v-15h15l173 395 q-68 -81 -188 -380zM413 1294v-16l29 31v16zM384 1246l-14 -63q29 0 29 47v16h-15zM283 883v-174l29 -32l-14 158q0 80 86 332q-101 -180 -101 -284zM182 898v-15h15l14 63q-29 0 -29 -48zM153 677q29 -60 29 -190h15v95l-15 111l-14 -16h-15zM254 693v-48h29l-14 48h-15z M312 535l-14 16h-15v-16l15 -79h14v31h29q0 -79 29 -79v16q-29 45 -29 190q-29 0 -29 -79zM124 566v-63h15v63h-15zM240 535v-127l14 -16h15l-15 143h-14zM312 392v-47h29l-15 47h-14zM254 361v-16l15 -47h14v47l-14 16h-15zM384 250v-16l29 -110h15v47l-15 79h-29zM442 108 q0 -63 -58 -63v-32l29 -32h29l14 16h15l-15 111h-14z" />
<glyph unicode=")" d="M282 1508q78 0 149 -154q148 -166 148 -741q-36 0 -138 -371q-147 -293 -201 -293h-11l-42 77h-11v31q187 413 191 494l11 154v124q-21 235 -138 478v31h10l138 -309v62q0 56 -64 185l-21 62l-10 -15h-22v62l64 30l11 -61h21q-27 108 -85 108t-64 -124h-21q0 170 85 170z M409 1246q43 -78 43 -124h10v31q-25 93 -42 93h-11zM494 1107v-124h11l10 46l-10 78h-11zM515 983v-46l11 -46h11v46l-11 46h-11zM388 937l11 -93h10v77l-10 16h-11zM420 705v-15l11 -46q-24 0 -43 -124v-15h11l53 169zM271 211v-15q29 10 53 77v31zM261 150v-16l21 31v16z M218 119l-10 -62l32 46v16h-22zM229 57v-46h11l21 31z" />
<glyph unicode="*" horiz-adv-x="1024" d="M498 1294q-4 71 -37 130q-37 66 -37 84q0 32 23.5 51.5t62.5 19.5q37 0 61.5 -18t24.5 -47q0 -21 -36 -89q-33 -61 -37 -130q66 25 113 75q51 55 69 61q11 3 21 3q18 0 35 -10q26 -17 38 -53q6 -19 6 -36q0 -15 -4 -28q-10 -30 -38 -38q-6 -2 -19 -2q-25 0 -76 9 q-28 5 -55 5q-41 0 -81 -11q44 -55 105 -83q68 -32 79 -47q13 -18 13 -38q0 -9 -2 -17q-8 -30 -39 -53q-29 -22 -59 -22q-1 0 -1 1q-31 0 -48 23q-12 17 -22 94q-10 67 -47 125q-38 -58 -46 -124q-9 -75 -20 -90q-19 -25 -49 -27h-5q-28 0 -57 21q-30 21 -39 51q-4 10 -4 20 q0 17 11 32q13 17 83 51q61 29 105 82q-41 11 -80 11q-27 0 -53 -5q-54 -11 -78 -11q-9 0 -14 2q-30 9 -41 38q-6 13 -6 29q0 17 6 36q11 35 36 53q17 12 34 12q9 0 18 -3q20 -6 74 -62q47 -49 112 -75z" />
<glyph unicode="+" horiz-adv-x="1014" d="M421 1325l32 -43l-16 -22v-21l16 -87h-16l-16 22h-17l-32 -216h16q81 56 81 194l16 22h33l16 -108v-43l-16 -22l16 -21v-22l-16 -194v-22h16l32 432h-16l16 22v43q-97 0 -97 43l16 21h97l16 -21h17l-17 -216v-237l-16 -108h16q59 79 243 108q113 0 113 -194 q-27 -195 -65 -195l-80 65l-243 -65q0 -388 -81 -388l-81 43l-48 -21v21l16 65h-16l-65 21v108l16 22l-16 21l33 259l-211 -43l-32 65q0 43 97 65v21q-97 0 -97 65l16 22l113 -22h17q97 0 113 345q32 0 32 108l16 22h16l-16 21v22zM404 1109h49v-21l-32 -43h-17v64zM372 915 l-32 -194l16 -22h32l-16 22v43l32 65v86h-32zM501 678v-65l81 22v21zM825 548l64 -21l17 108v43q-65 -35 -81 -130zM728 656v-21h64v21h-64zM695 570v-43l81 21v22h-81zM485 527q0 -302 -81 -302v-65l81 -22v22l49 345zM356 484l-32 -259h48v259h-16z" />
<glyph unicode="," horiz-adv-x="557" d="M305 261h25q102 -45 102 -210q-35 -122 -166 -197h-12l12 13v13h-25l-89 -26l-13 13v13q89 43 89 92q-51 76 -51 184q49 105 128 105zM317 208v-13q0 -62 77 -131v53q0 71 -77 91zM215 156v-92l26 -26l25 79l-12 -14h-13v14l25 78h-12zM279 51q26 0 26 -66h12v105z" />
<glyph unicode="-" horiz-adv-x="670" d="M338 685q258 -42 271 -85l-34 -24l-17 12h-17q0 -30 -203 -61q0 -18 -67 -36l-17 12h-17l-51 -12q-135 18 -135 85q0 97 152 97zM338 624v-12h85v25zM457 612v-12l51 -12v24h-51zM271 576h51v24h-17z" />
<glyph unicode="." horiz-adv-x="557" d="M361 371l86 -74v-92q0 -170 -259 -278q-86 76 -86 148q0 201 190 278zM344 297l51 -74l-69 -129v-19h18l69 130v55l-35 37h-34zM171 149h35l17 93q-40 0 -52 -93zM240 131v-37q69 37 69 111z" />
<glyph unicode="/" horiz-adv-x="569" d="M391 1419l20 -151q-90 -460 -130 -953h-20l-11 17h-10l-10 -101v-50h10q0 101 21 101h10q0 -251 -101 -251l-50 -17l-10 17v16l40 402q105 752 191 903h10l-60 -234l20 -34l-20 -66l10 -17h10l10 134h20v-67h10v50l-20 84l10 -17h10v17l-10 50l40 33l-10 17v84zM261 1018 v-67h10v67h-10zM250 934l-30 -268h20l21 151l-11 17v16l11 67v17h-11zM220 650l-70 -435h20q5 180 50 301h-10l20 117v17h-10zM200 114v-33h20l10 67h-10z" />
<glyph unicode="0" horiz-adv-x="1014" d="M531 1354l16 -16l50 16q166 -45 166 -67l16 -117h16q0 67 33 67t33 -167q50 -30 50 -101l17 17h33l-17 -251l17 -49q0 -581 -496 -670l-67 -16q-115 0 -215 167v17l-49 -33l-17 16v33l17 84h-67v17l17 201h-33l33 150l-17 50h17l-33 83q0 262 248 502zM283 1037l16 -18 h17q99 252 247 252l67 -18h49v18l-65 33h-51q-204 0 -280 -267zM117 869v-84h17q0 177 198 452h-16q-199 -190 -199 -368zM580 1221l17 -18v-16l-17 -17l17 -16v-18l-17 -16v-16q34 0 34 -51h16l17 83q-22 85 -50 85h-17zM415 1154v-50h17q37 0 49 83zM531 1187l-33 -67 l16 -16h17l16 16v67h-16zM696 1170v-16l16 -18v-16l-49 -101l66 -50l17 50l-17 85v66h-33zM779 1086v-117l-50 -49l17 -51h-17l17 -66h33l33 283h-33zM481 1070q0 -67 -49 -67q-34 0 -34 50q-98 -60 -149 -201v-150q0 -167 50 -167v-33l-16 -17q45 -235 215 -235 q248 127 248 485q-111 318 -183 318q-31 -76 -65 -84h-17v17l33 84h-33zM861 969l-82 -250q0 -265 -132 -435v-16h16l100 133q49 285 82 285l-17 16v17q1 115 50 183v67h-17zM183 769l-16 -67v-16h16l17 66v17h-17zM878 735v-49l-50 -151h50l33 200h-33zM183 602v-33l17 -51 h-49v-66h16q0 50 33 50l16 -17v-17q-33 0 -49 -184h16q30 0 66 168l-33 183zM812 485v-17l33 34v16zM266 351l-33 -167q24 0 50 66h33q0 87 -50 101zM779 317q-40 -117 -67 -117l-16 18v16l16 16v18h-33q0 -75 -82 -117h-17v16l17 83q-38 -15 -149 -200h17q330 121 330 251 v16h-16zM349 184v-33h16l33 83h-16q-33 0 -33 -50zM432 117l82 101h-33q-49 -18 -49 -101zM249 133l50 -32l17 99zM365 117l-16 -67q33 0 33 51v16h-17z" />
<glyph unicode="1" horiz-adv-x="1014" d="M664 1376l28 -45v-60l-14 -209l14 -45l-28 -75l14 -104l-14 -120l14 -15h14l-28 -75h14l14 -14h13q-54 -92 -54 -180l13 14h28v-44l-54 -90v-90q0 -176 -96 -224h-40q-95 69 -95 179l27 614v14h-14q0 -89 -217 -104q-78 49 -108 104l27 121l-13 14l67 45h55v-15 q-109 -89 -109 -134l14 -45h14v90h26v-60h14l68 164l-14 15q96 41 272 284q88 90 148 90zM475 1167l27 -45l-27 -90v-15h14l67 195h27v-15l-13 -45l13 15h28l13 -45l-13 -60l13 -15v-15l-13 -60h27l13 330v29h-13q-41 0 -149 -164h-14zM420 1122l-13 -45h13l-67 -225v-14h13 l68 239h-14l14 15v30h-14zM339 1047q0 -90 -67 -90l26 -74q34 0 68 164h-27zM420 867l14 -15h14l27 150q-27 0 -55 -135zM529 1002l-27 -74h14l40 29l-14 45h-13zM624 957l-13 -74h27v74h-14zM516 897l-41 -104h27l27 90v14h-13zM203 762v-14h109v75h-14q0 -45 -26 -45h-28 v74q-41 -14 -41 -90zM542 778q-81 -125 -81 -180l95 164v16h-14zM611 778q-150 -253 -150 -389l-13 -194l41 -150h40l41 45l-28 29l55 180l-41 -30l14 -15v-14l-54 -76h-27v15l53 150v15h-13q-10 -75 -40 -75l-14 15q0 168 149 478v16h-13zM542 464v-16h14q0 45 68 135v31 q-20 0 -82 -150zM597 479v-90h14v90h-14z" />
<glyph unicode="2" horiz-adv-x="1014" d="M517 1317q77 -16 335 -173q0 -46 58 -46l-14 -63l43 -110q0 -280 -320 -486q-102 -78 -102 -188l44 31h130l44 -31l44 47h29q88 0 88 -94q0 -173 -437 -173h-87l-117 16q0 -47 -29 -47l-15 16l29 141l-73 -32l-14 17v15q0 60 87 235h-14l-146 -188l73 -157h-15 q-87 0 -87 204q232 265 349 344l59 -15l43 47l15 -15q131 173 131 376v31l-29 31h-15q0 -62 -43 -62l-29 31l29 47h-29l-73 -62l-30 31q-79 -161 -262 -298q-55 0 -102 94v110q0 84 132 219l29 -31q74 157 233 157zM502 1254v-31l44 47zM648 1176v-16l29 32v15zM299 1144 v-15l43 47v16zM473 1160v-47h15q33 0 44 79zM546 1113h29q33 0 44 79zM691 1176l-57 -94h57l30 94h-30zM735 1144l-28 -78v-16l72 79v15h-44zM299 1066v-16h14l29 63v16q-21 0 -43 -63zM691 988l16 -16v-31q-38 -45 -59 -204v-15h15q0 52 101 172v16l-43 -32l-14 16v16 q101 134 101 203zM255 862q28 0 102 173v15q-102 -97 -102 -188zM823 1050l-44 -125h15l29 -31l-29 -110h29v-31h-15l-14 15h-15q0 -125 -88 -173v17l16 94q-28 -7 -175 -267h14l15 16q87 50 87 94l15 -16h14q219 185 219 345v32l-44 109v31h-29zM95 831q29 0 29 -47h58 l29 32l-29 31v-31h-44v31l44 141zM95 941v-16l29 31v16zM182 910v-16l58 62h-14zM735 816q0 -48 -28 -48v-46h14l43 94h-29zM415 424h30l57 94l30 31v15h-15q-61 -9 -102 -140zM270 392v-16h14l15 63q-29 0 -29 -47zM327 407l-14 -46h14l15 15v31h-15zM270 298v-16l29 31v17 zM445 282v-15h14l14 63q-28 0 -28 -48zM794 251v-47l58 -31v78h-58zM575 157l59 79h-15q-34 0 -44 -79zM445 219l-73 -140h28l59 125v15h-14zM532 219l-73 -125v-15h29q23 0 58 125v15h-14zM677 110h30l43 94v15q-23 0 -73 -109zM299 173l-15 -79h43v48zM590 94h14l30 31v32 q-22 0 -44 -63zM779 157l-15 -47h15l29 32l-14 15h-15z" />
<glyph unicode="3" horiz-adv-x="1014" d="M515 1420q333 -44 333 -270v-54q0 -179 -148 -305q180 -106 222 -288q0 -223 -240 -431l-19 18h-19l-74 -90l-18 18l-130 -18h-74q-278 137 -278 324q0 118 130 197h37l111 -125q74 0 74 -108h56q0 53 37 53l18 -17l74 179q-18 180 -92 180l-204 -36l-37 54v108 q65 108 167 108l74 -18l92 144v53l-55 -36l-19 19v17l19 54h-74l-56 -36h-18v36h-19q-99 0 -222 -162h-37l-37 36v55l37 126h-56q0 167 445 215zM404 1366v-36h18l37 36h-55zM533 1348v-36l56 18v18h-56zM163 1241h37q0 47 111 71v18h-19q-119 -47 -129 -89zM682 1330 l-38 -108v-17l19 17h56l18 -17h19q-19 -246 -74 -288v-36h18q93 33 93 233h18q-77 211 -129 216zM348 1205v-19q97 15 130 108v18q-84 -30 -130 -107zM533 1222v-17l56 -19l37 126zM126 1079v-36h37q0 53 74 53l74 145v17q-36 -6 -167 -179h-18zM663 1150v-36l37 36v36z M422 863v-54l93 17v19zM329 809l-18 -90l56 -18l148 36l55 -18l-55 54l-130 -18l-18 54h-38zM644 737l-18 -90v-18l37 -35l19 71l-19 18l19 18h18l19 -18v18l-37 36h-38zM756 665l37 -144h-19l19 -18v-18l-19 -72l19 -72l-37 -35v-55q55 0 111 217l-74 197h-37zM644 485 l-37 -306q37 0 93 198v36l-37 72h-19zM200 468l18 -108h37v17l-18 91h-37zM144 413l-18 -17v-108l74 -144h18l-18 90v54h-56v36l37 53zM311 341l-19 -90l19 -89h18l19 126v53h-37zM237 306v-72h18v72h-18zM515 270v-198h55v36l-37 54l37 126zM385 234v-55q0 -60 -56 -125 h112v18l-37 107h18l19 -17h18l19 72h-19l-18 -19l-19 19h-37zM274 144v-54h37v18zM607 108h19l37 36h-19z" />
<glyph unicode="4" horiz-adv-x="1014" d="M676 1390q111 0 111 -182l-27 -266l14 -98l-14 -199l14 -133h27v67l-27 50l13 16h28q82 0 139 -133v-49l-55 -66l-14 17h-14l-42 -17l-14 17q-48 -37 -97 -365q-39 -49 -83 -49q-56 82 -83 248l14 66v17l-28 -34q-472 0 -472 150q0 224 319 612q0 68 83 116q0 76 208 215 zM593 1257l42 -33v50h27q29 0 29 -133q27 0 41 182l-14 17h-56zM482 976h14l14 17h14l-14 49l14 149q-31 0 -42 -215zM593 1191l-14 -132l14 16h14l14 -16v-50q0 -174 55 -463h29l-14 83l14 248l-29 33v32q0 34 42 34v50l-42 99h-14v-50h-13q-33 0 -42 116h-14zM649 1191 v-50h27v17zM371 794v-16h14q28 66 42 281q-33 0 -56 -265zM288 546v-16l27 -34l29 133h55l55 -17l98 66q27 0 27 -82h28v16l-28 381q-56 -22 -291 -447zM315 910q-20 -199 -41 -199l14 -16v-17l-14 -82q37 0 70 248l-15 66h-14zM676 893l15 -115v-17h-29l-13 116l13 16h14z M233 778v-51l41 18v33l-14 -17h-14zM135 629l-28 -199q42 0 42 -49h42v131q-42 0 -42 117h-14zM441 579l27 -132h14l14 132l-14 17zM829 579v-67h14v67h-14zM871 563v-116h14l41 16v16l-41 84h-14zM579 546v-50h14l28 34zM385 530l-70 -166h14q25 0 70 148v18h-14zM524 530 l-14 -166l42 17l-14 149h-14zM662 530v-116h29v82zM732 530v-67h14v67h-14zM233 447v-66h27v98zM399 430v-66h55l-27 99zM718 414l-27 -33l-15 16v-16l15 -84l-15 -16h29v33q41 0 41 83l-14 17h-14zM607 348l-14 -149l14 -50h14l14 132l-14 16v17l14 17v17h-28zM662 215v-82 l-27 -51v-33h27q43 11 43 133v33h-43z" />
<glyph unicode="5" horiz-adv-x="1014" d="M639 1398q48 -56 199 -101l-16 -16v-35h16v35h17l50 -52v-84l-448 -50l116 186h-17l-132 -153l16 -16v-17l-66 -152l17 -67l-17 -17h17l132 84l17 -50l49 16q219 0 266 -151q53 -29 99 -303v-17q-113 -438 -414 -438h-133q-227 0 -314 236l-34 34v33q0 132 100 169 q141 0 198 -169l67 50q0 -67 66 -67v17q0 50 33 50h33l-33 -50v-50h17l116 117v119l-33 50l16 50l-99 101l-50 -33h-16q0 51 -34 51h-33q0 -51 -33 -51l-17 16l17 17v35l-249 -203h-32v34q0 417 149 792l115 -17h50q156 0 232 67zM341 1281l-16 -85l66 85h-50zM689 1246v-17 l66 34l50 -17l-33 35h-50zM341 1145q83 28 83 101zM689 1179v-17h66v50zM242 1128l-17 -83l49 33l-16 50h-16zM125 573l66 67l-16 85q38 0 50 84h-34v16q0 59 83 169h-16q-108 0 -133 -421zM589 825v-33l67 33v34h-33zM722 842v-50l33 33v17h-33zM374 775v-17l83 17v50h-17 q-66 -25 -66 -50zM457 741h33q38 0 50 84zM573 708h50l33 67v17q-72 -40 -83 -84zM755 775l-99 -135v-17h33l83 135v17h-17zM689 489v-17h33l100 218q-133 -112 -133 -201zM772 438q116 60 116 151h-17zM888 455q0 -67 -182 -269v-51l-17 17h-17l-116 -102h17q135 0 265 220 l67 168v17h-17zM191 404l-16 -67l50 67h-34zM689 404v-34h17l33 34h-50zM108 387v-17l17 -134h17v151h-34zM258 387l-33 -101v-50h17q0 56 49 117zM308 303l-66 -186v-16h16l99 169zM407 270l-33 -135h33l33 118l-16 17h-17zM540 117h16q67 77 67 119q-26 0 -83 -119z M440 84h34l49 102v33h-16q-33 0 -67 -135zM308 135l-34 -68v-17h100l17 -16h16v50l-16 -17h-17q-33 0 -33 68h-33z" />
<glyph unicode="6" horiz-adv-x="1065" d="M612 1361l16 -17h16l49 17q243 -55 243 -219q-43 -107 -81 -117h-81q0 -67 -33 -67q0 93 -113 151l-32 -34l-32 51q-97 0 -227 -118v-118l81 -16q97 67 146 67h16q351 0 388 -470l-32 -68l16 -50q-176 -336 -388 -336q-84 0 -98 50l-81 -17h-32l-97 67v-67q-23 0 -81 236 q-33 0 -65 335q67 740 502 740zM482 1294l16 -67l-16 -51h33q42 118 81 118l16 -17v-33l-32 -51l48 -17q16 118 49 118l16 -17v-16l-16 -17l16 -17h16l16 84h-161zM757 1294l17 -50h16v50h-33zM321 1176v-17q32 0 32 -50q36 4 97 152h-16q-101 -35 -113 -85zM807 1261v-102 l16 -84h32l-16 67l16 67l-16 52h-32zM725 1209l-16 -83l32 33v50h-16zM305 1109l-17 -84v-17h17l16 67v34h-16zM272 924l-16 -117l16 -17v-17l-16 -50h16l81 67l16 -17l16 17v17q-97 0 -97 117h-16zM175 907l-17 -453q26 0 65 151l-32 101l32 151l-16 50h-32zM498 857l82 17 q32 0 32 -51h16l49 34l16 -17h16l-16 -17v-33l64 33q0 58 -193 84zM450 740h16q98 0 98 83h-33zM774 823v-83l49 33l-16 50h-33zM401 790q0 -50 -32 -50v-51q25 0 49 67v34h-17zM612 773v-50h32v50h-32zM693 689v-17h16l16 68q-32 0 -32 -51zM790 723l-49 -102q33 0 33 -50 h16l33 152h-33zM839 723l16 -51l-32 -67v-17h16q0 50 32 50h16v-50h-32v-34h32v-185h16l17 102q-22 252 -65 252h-16zM175 420v-67l32 -67h16l16 185h17l16 -17h16v50h-32v17l65 185q-46 0 -114 -286h-32zM353 538l16 16h16v-16q-64 -72 -64 -185l16 -51q32 0 32 67l16 17 h16l17 -17l-49 -83l81 -34l81 34v-17q107 0 210 202v33q0 134 -161 168l-49 -17v17l16 17v17h-65q-129 -61 -129 -168zM839 471l-16 -102q32 0 32 51v51h-16zM774 437l-49 -151v-17h16l49 151v17h-16zM871 353q0 -84 -259 -253v-16q117 0 275 235v34h-16zM256 336l-17 -84 q23 -101 82 -118v18l-49 184h-16zM644 252l16 -67q33 0 33 50l-16 51zM353 235l16 -16v-17h-16l16 -17v-17l-16 -68h16q26 0 65 119l-16 16h-65zM450 235q22 -118 48 -118l33 118h-81zM564 235v-33l32 -34h16v34zM547 185l-32 -101h16l49 50l-16 51h-17zM256 50l49 -50h-17 l-32 33v17z" />
<glyph unicode="7" horiz-adv-x="1014" d="M402 1368l140 -32l97 15q279 -42 279 -82l-14 -16v-17q42 0 42 -32v-17q-418 -444 -418 -1072q-31 -115 -98 -115l-98 65l-42 264q28 0 28 83h28v66h-28q0 33 42 33l-14 17v16q42 0 42 49l-14 67v16h28v-33h14l167 445h-84l-41 -33l-42 49l-168 -32q-106 0 -167 132v32 q56 115 181 115l14 -15zM374 1303v-50l56 33l14 -17h41v17l-97 17h-14zM123 1219l13 -48h29v16l-15 49h29v-32h28l41 82h-69zM556 1269v-33h27q0 33 42 33v17h-28zM681 1286v-82l70 49v33h-70zM193 1154v-17l69 -16l14 16v17l-14 17q38 0 70 98h-14q-97 -115 -125 -115z M528 1154v-17h83l28 99zM751 1219v-48h14l27 65zM374 1204q0 -50 -42 -50v-17h42l28 67h-28zM458 1204l-14 -67q27 0 27 50v17h-13zM779 1072h13l112 99v33h-13q-32 0 -112 -132zM681 1121l-125 -247h13l98 131l-14 17v33q42 0 42 49v17h-14zM737 1039l-98 -165l14 -17h14 l98 182h-28zM556 708h27l14 67q-21 0 -41 -67zM458 660v-17h27l14 50h-14zM444 577l-28 -131v-17h14l28 65v83h-14zM374 412l-14 -83v-82h14v33h14l-14 49l14 67v16h-14zM471 346l-13 -66q27 0 27 49v17h-14zM360 182v-17l14 -83h56v100h-28v-50h-14q0 50 -28 50z" />
<glyph unicode="8" horiz-adv-x="1014" d="M600 1376q270 -99 270 -315q0 -147 -96 -298h16l16 16h16l15 -16l-15 -17v-33q53 -61 95 -265q-60 -448 -413 -448l-16 16l-16 -16h-111q-302 137 -302 448q27 2 95 199l80 82q-31 0 -111 183v33q0 259 428 431h49zM504 1293v-49l16 16h16v-16l-16 -50h16l48 -33h16 l31 83v16h-31q0 -50 -33 -50h-16l-15 83h15q49 0 49 33h-64zM662 1309l-15 -16v-16q64 0 64 -83q-32 0 -32 -84h-32v-16l32 -83q47 16 47 99l-15 84l47 16v16zM170 1045v-50l175 199v16h-16q-86 -47 -143 -165h-16zM361 1027v-16h15l96 199h-16q-66 0 -95 -183zM774 1194 l-16 -84v-49l16 -149l-16 -66q36 0 64 149v149zM615 1144v-17h32v50zM376 928v-16q0 -50 96 -50v-16l16 16h16l16 -16h16q99 0 111 165q-40 0 -47 67l-16 -17h-33v17l16 49l-16 17h-15q-90 0 -160 -216zM202 879v-67h16q51 150 111 150v65h-15q-33 0 -33 -82q-47 0 -47 -66 h-32zM218 1011l-48 -83v-16h16q28 0 48 83v16h-16zM662 912l-15 -50h48v17zM218 779l32 -33l31 33v17h-16zM488 763v-17l48 50h-16zM600 763v-34h62v17zM726 746v-66h32l16 16h16l-16 50h-48zM265 680l-15 -17v-33l48 17zM361 663l-63 -116v-17h16q0 99 95 117v16h-48z M679 630v-17l47 50h-15zM488 647q0 -50 -32 -50l-47 16q-111 -155 -111 -264l47 -34l48 50h16v-16l-48 -83l95 -51h32l16 17l16 -17h16q137 0 190 150l-31 33l16 83l-16 16q-80 45 -80 83l-15 -16h-33l-16 16h-15l-32 -33h-16v17q0 33 48 33l-16 50h-32zM202 630l-63 -133 l95 100zM774 613l-48 -116h32l48 116h-32zM822 580l-32 -83h16l31 67v16h-15zM139 349q79 41 79 165q-40 0 -79 -165zM123 481l-16 -83v-17h16l31 83l-15 17h-16zM837 481l-15 -67q31 0 31 50v17h-16zM250 331l-16 -49l16 -67l-48 -16l-48 16l127 -116v33l-31 50l64 100 q-49 0 -49 49h-15zM123 282l16 -50h15l16 50h-47zM726 266l-79 -84v-50h15l80 134h-16zM314 249v-50h31v16zM774 199v-17l32 33v17zM472 132v-33q24 0 48 67h-16zM551 166l-15 -50v-17h15l16 51v16h-16zM345 99v-49l80 -17v34l-64 32h-16z" />
<glyph unicode="9" horiz-adv-x="1014" d="M667 1354q271 -155 271 -346l30 -248q0 -547 -391 -743l-151 -17q-255 95 -255 231v82l91 83h30q111 0 165 -165h45l90 132l16 -16l-61 -116v-16h15q196 129 196 363l-15 17h-30q-16 -116 -166 -116l-45 16l-30 -32h-90q-284 0 -316 412q0 208 391 446zM532 1288v-17h30 v-82l-15 -16v-17h15q52 0 60 148zM652 1288v-33h31l-46 -82v-50h46l30 33v66l-30 49l14 17h-45zM457 1239l15 -17v-33l-46 -66h16q75 73 75 132h-30l-15 -16h-15zM412 1222v-49l30 33v16h-30zM758 1222l-31 -149v-16h16l29 116v49h-14zM818 1189l-16 -16v-34h46v17zM337 826 q0 -73 89 -100q16 -49 91 -49l60 16l45 -16q121 99 121 182v16l-16 -16h-30l16 115v50l-16 -16h-45l15 82h-30q-29 0 -29 -49l-16 -17h-15l-15 49l15 50q-226 -49 -226 -182zM772 974v-66q35 0 76 198v17q-76 -66 -76 -149zM111 974v-99l-15 -16q61 -298 150 -298v34 q-41 0 -89 165q0 95 119 297l-14 49h-16zM337 1106l-16 -49h16l14 16v33h-14zM863 1073v-65l14 -17h16v17l-16 65h-14zM877 974l-14 -115l14 -66l-44 -198l-15 -17v-83h15l90 281l-30 182l15 16h-31zM833 925q0 -45 -45 -99v-33h45l15 115v17h-15zM246 776v-16h16l30 66v33 q-35 0 -46 -83zM292 776l-46 -115h16q59 32 59 99l-14 16h-15zM337 710l-30 -66v-16h30l30 65v17h-30zM727 710q0 -66 -44 -66v33h-16l-30 -33v-16h30l16 16v-16l-16 -50q28 0 91 115v17h-31zM772 628q35 0 46 82q-34 0 -46 -82zM367 611q0 -66 -46 -66l-45 16v-33l106 -16 l15 99h-30zM426 512h16l60 16v67q-40 -11 -76 -83zM547 561v-33h61l14 67h-14zM848 512q0 -66 -30 -66v-33l15 17h15l15 -17l14 99h-29zM788 363v-16l30 33v16zM262 363v-16l14 -50l-14 -16h14l31 32v34zM232 297l-16 -132h46l-16 132h-14zM307 231v-66l44 -17v34l-14 83z M382 265v-83l30 33v50h-30zM426 198l-14 -99h45v99h-31zM637 198l-15 -16v-34h15l15 50h-15z" />
<glyph unicode=":" horiz-adv-x="557" d="M227 1229h61q121 -51 121 -161l-41 -141v-20h20v40h41v-20q0 -38 -121 -101h-20l-21 20l-120 -40l-81 161q0 147 161 262zM167 1108v-20h60l61 60v41zM288 1068l20 -20h20v60zM288 1028v-81h20l20 60l-20 21h-20zM147 907v-41h20l40 41v20zM308 403h60q121 -76 121 -181 q0 -115 -181 -222h-61q-100 52 -141 201q34 112 101 162l20 -20h20zM288 322v-20h80l-20 20v21zM308 222v-21h60l20 81q-80 -30 -80 -60zM167 222v-61l40 -40v141zM368 181l-40 -60l20 -20h20q0 60 41 60v20h-41z" />
<glyph unicode=";" horiz-adv-x="557" d="M262 1038v-35q-66 0 -88 -140v-17h18q51 122 157 122v-17l87 35l35 -53v-122l-157 -157q-192 0 -192 244q62 140 140 140zM384 916q0 -94 -52 -140v-35l69 87h18v88h-35zM279 863v-87h18l17 87h-35zM227 846l-18 -105h35v105h-17zM192 339q98 -16 209 -175q53 0 53 -87 v-35q-67 -180 -192 -262h-18q-192 13 -192 52q94 0 157 158q-135 48 -157 105v122q66 122 140 122zM157 304l-35 -52l17 -18l-52 -52h35q58 52 105 52v35zM262 252v-18l122 -209h17v52q0 42 -122 157v18h-17zM104 147v-35l35 -35h53v52zM279 60l18 -53h17v53h-35zM227 -80 q0 -53 -35 -53v-35h35l35 35h-18l18 18v35h-35z" />
<glyph unicode="&#x37e;" horiz-adv-x="557" d="M262 1038v-35q-66 0 -88 -140v-17h18q51 122 157 122v-17l87 35l35 -53v-122l-157 -157q-192 0 -192 244q62 140 140 140zM384 916q0 -94 -52 -140v-35l69 87h18v88h-35zM279 863v-87h18l17 87h-35zM227 846l-18 -105h35v105h-17zM192 339q98 -16 209 -175q53 0 53 -87 v-35q-67 -180 -192 -262h-18q-192 13 -192 52q94 0 157 158q-135 48 -157 105v122q66 122 140 122zM157 304l-35 -52l17 -18l-52 -52h35q58 52 105 52v35zM262 252v-18l122 -209h17v52q0 42 -122 157v18h-17zM104 147v-35l35 -35h53v52zM279 60l18 -53h17v53h-35zM227 -80 q0 -53 -35 -53v-35h35l35 35h-18l18 18v35h-35z" />
<glyph unicode="&#x3c;" horiz-adv-x="1014" d="M927 1074l-625 -359l625 -355v-167l-840 481v83l840 484v-167z" />
<glyph unicode="=" horiz-adv-x="1014" d="M758 1050l57 -14l14 14h14l57 -43l-14 -14l-71 14h-86q86 -65 86 -100h28l-14 15v14l43 28l43 -42q-43 -60 -43 -143l-713 -29l-29 43v43l29 86h-15l-57 -15l-14 15v14l29 28h14l14 -14h14l43 57l14 -14v-14zM558 993v-14h57l-14 14v14zM715 936v-29h57v29h-57zM173 865 v-29h43l-29 29h-14zM258 836v-29h58l28 29h-86zM629 836v-14h72v14h-72zM672 572l129 -14h114v-15l-29 -28h-100l-14 14h-14v-28q62 0 85 -58l-57 -28v-14q57 -7 57 -43l-14 -14h-14v14l-100 -43h-86l-142 -14v14l-229 -57h-57q-24 0 -42 71h-29v15l14 57l-14 14v14l14 14 v15l-14 43h14q43 0 43 28l71 -14h15q194 0 399 57zM672 529l29 -28h14v28h-43zM758 472v-29h43l-29 29h-14zM515 386v-14h43l29 29h-29zM715 401v-29h43v14zM316 386v-14l71 -14l28 28h-99zM644 372v-14l42 -14v28h-42zM216 315v-14h71l14 14v14z" />
<glyph unicode="&#x3e;" horiz-adv-x="1014" d="M87 1241l840 -484v-83l-840 -481v167l625 355l-625 359v167z" />
<glyph unicode="?" horiz-adv-x="748" d="M272 1427l12 -17h12l12 17h12q294 -92 294 -232q45 0 61 -233q-110 -104 -232 -381l-12 -83q-98 -71 -98 -116h-37q0 46 -73 116q0 179 171 381l61 183q0 50 -37 50l13 16v34h-13q-60 -77 -159 -100q-15 -50 -110 -100q-61 69 -61 200q0 153 184 265zM308 1361l12 -50h13 v66l-13 -16h-12zM357 1361v-50h86l49 -50h12v33zM125 1162l12 -133l37 33l24 -33l25 50q-62 0 -62 33l-12 99q64 58 86 133h-12q-98 -86 -98 -182zM174 1178h12q61 100 110 100v49h-12zM223 1112v-17h12q0 46 73 149h-12q-73 -45 -73 -132zM553 1244v-16l12 -17v-16l-12 -50 h12l12 17h13q-16 82 -37 82zM492 1228l-25 -100h25l36 100h-36zM320 1178v-66q37 12 49 66l-12 17zM614 1128l-24 -182h12l24 33v149h-12zM553 1079v-17h24v50zM443 780v-17h12l25 67v16q-19 0 -37 -66zM259 514l49 -33l25 133v17h-13l-12 -67h-24v50l24 50v16 q-34 0 -49 -166zM382 597v-33l24 33v34zM345 498v-17l37 17v33h-13zM382 332q73 -17 73 -50v-50q0 -97 -147 -232h-12q-63 0 -73 50v16l12 67l-12 66v17q53 116 159 116zM259 199q13 -54 49 -66l25 33l12 -17l12 17v17h-24l24 116zM247 116q16 -83 37 -83h12l24 33l-61 50 h-12z" />
<glyph unicode="@" horiz-adv-x="2019" d="M1016 1412q269 0 650 -263l109 -186l46 -139q0 -237 -248 -495q-152 -171 -232 -171l-77 -31l-201 78q-16 -52 -155 -155h-31q-248 86 -248 279l-31 108l16 155l-16 62q148 418 325 418q186 -68 186 -140l124 109l93 15l31 -46v-186l-109 -449h31q8 62 47 62h15l16 -15 h15q248 227 248 402l-16 46l16 16v15q-277 356 -449 356l-108 -31l-47 47q-296 0 -495 -310q-85 -213 -108 -387h-31v62h-16l-15 -62q15 -124 46 -124l-15 78v15h15q26 0 62 -232q108 -199 341 -278q154 -16 154 -47l-15 -15h31v31h31v-16l356 47l15 -16q25 62 109 62v-31 l-62 -31h-31v-15h31q93 31 93 62l-16 15q134 108 201 108v-123q-66 -115 -309 -233q-78 0 -171 -46l-46 15l-62 -15q-309 22 -309 62l-16 -16h-15q-480 242 -480 418l-47 124l16 16v15l-31 170q41 313 232 526q312 310 557 310zM939 1366v-31l77 -16l62 16v31h-139z M1171 1335l-15 -16v-15l77 -16v31zM676 1242h31l124 62v15h-31q-124 -53 -124 -77zM1310 1304l93 -93v15l16 -15h62v15zM1573 1164v-15l93 -124l16 16v15zM552 1133l-31 -31v-15h31l31 46h-31zM320 638h15l186 418q-99 -49 -201 -371v-47zM877 1025q0 -31 -46 -31v-15 q108 -5 108 -31l46 15v47zM1295 1025l-31 -201h31v-31l-31 -124v-46h15l47 278v47l-16 77h-15zM1713 979v-31q9 -93 46 -93q-15 124 -46 124zM1202 963l-31 -77v-47h16l30 109v15h-15zM769 901h46v31h-15zM707 793v-31q31 0 31 -46h15q0 81 109 123v31h-62l-78 -77h-15z M769 716l15 -16v-15l-15 -140q61 -170 154 -170q127 79 171 248q-4 50 -155 201l15 15h16l93 -77v15q-40 78 -124 78h-31zM1202 839l-15 -92v-16h15l15 93v15h-15zM1728 824v-170h16l31 154zM1094 716l31 -78l-16 -124v-46h16l31 155h31l-16 -124v-16h16l15 78v77l-15 16 l15 15v31h-15v-31h-31q-31 0 -31 62l-16 -15h-15zM676 685v-186h15v186h-15zM1620 685q0 -65 -217 -279v-15q135 53 232 263v31h-15zM1682 669l-16 -62v-15h16l15 46v31h-15zM1697 576q-136 -199 -402 -387h15q115 0 403 372v15h-16zM738 530l-16 -124l16 -46h15v170h-15z M335 483v-154h16l15 93l-15 61h-16zM629 437v-15q47 -60 47 -140h15v78l-31 108zM1047 375l-15 -62v-15h15l16 46v31h-16zM1187 375l-16 -62h16l15 16h15l-15 46h-15zM382 360v-93l31 -62h15v62q0 80 -46 93zM815 360l-15 -62h15l47 15zM892 298v-109l31 -31q8 83 93 202 h-15zM1295 298v-31l108 62v15h-15q-93 -15 -93 -46zM1109 267v-31h62v46h-15zM1187 205h61l16 77q-67 -36 -77 -77zM800 267l-16 -47l16 -46h31l31 93h-62zM970 205l-16 -47h31v47h-15zM800 127v-15l92 -31l-30 77zM413 127v-15l77 -62q-30 71 -62 77h-15zM614 81v-15 l46 -16v16l-15 15h-31zM1542 4h16l46 46h-15zM583 35l93 -93v15l-78 78h-15zM722 -43l-15 -15v-31q62 -4 62 -31l46 15q0 26 -93 62zM923 -74v-15h109v15h-109zM985 -136v-15h78l-16 15v16zM892 -136v-15h62v15h-62z" />
<glyph unicode="A" horiz-adv-x="1540" d="M818 1475q91 0 257 -480l223 -549l-17 -17q63 0 120 -206v-86l-120 -86q-112 0 -257 309l-52 -17v17l-17 69l-103 -35h-51l-17 18q-240 -18 -240 -69l-155 -292l-206 -51l-51 120q0 138 274 789q223 490 326 531zM698 1355l17 -69h17v69h52q34 0 34 -52h17v52h34v-137 l35 -138h17v35h34l34 -138h18v35q-130 411 -189 411zM629 1252l35 -34v68zM767 1286l17 -51h34l-17 51h-34zM698 1252v-69l17 -120l34 35l-34 154h-17zM595 1183l-137 -291q34 0 34 -155l52 18l-18 85v120l52 52l-17 17v51q34 0 34 -103h69v35h-52v86q0 34 52 34l-18 51 l-17 -17h-17zM801 1183v-34l154 -463h17v34l-137 463h-34zM749 1029l-120 -377q0 -52 206 -52q-34 49 -51 360l17 17q-34 0 -34 52h-18zM441 857l-103 -240h17q47 0 103 223v17h-17zM1007 806v-34l17 17h17l68 -257h52l-103 291zM835 755v-18l34 -120h18v18q-18 120 -52 120 zM458 703v-34l51 -17v51l-17 -17h-17zM509 635l-17 -103h34v103h-17zM321 583l-35 -120v-17h17q0 51 35 51v-34h34v51l-17 -17h-17v86h-17zM767 549v-69h17l17 52l-17 17h-17zM852 532v-35l-17 17h-17v-51h34l17 51v18h-17zM904 532l-17 -69h51v34zM544 514v-68h51v68h-51z M1144 514v-68l34 -34v17l-17 85h-17zM629 497v-51h35v17zM1092 429v-35q0 -107 86 -188l-34 86h17l-52 137h-17zM1178 343l69 -189l-35 -34l69 -17l34 51v69h-17q0 -52 -34 -52l-52 172h-34zM218 292l-35 -103v-138h120l86 86v17l-17 -17h-69l-17 17h-17v-68h-17 q-39 0 -51 85l51 18v103h-34zM372 223v-17l34 -35v18z" />
<glyph unicode="B" horiz-adv-x="1219" d="M446 1346l117 -17l50 17l33 -34h218q250 -91 250 -286q0 -235 -133 -353v-17q138 0 200 -135v-134q0 -272 -418 -387l-117 17l-317 -17l-201 17l-33 168v34l17 50l-17 84v505l17 320l-17 50q113 92 351 118zM362 1279v-17l34 -34v51h-34zM446 1279l50 -51v17l-33 34h-17z M529 1279l34 -135h17v34h16l-16 16v34l16 17v17l-16 17h-51zM195 1211q91 0 134 -67v34l-17 84h-67zM613 1262l67 -118h16v84q34 0 101 -151h16v50l-33 101h67q33 0 33 -50h34q-11 84 -101 84h-117v-34l-50 34h-33zM162 1194l-17 -117q73 0 134 -185h16v50q-39 0 -50 118z M446 1194v-16l50 -51v17zM930 1194q64 -165 101 -168v34l-67 134h-34zM847 1161v-17l33 -168l17 17h33q0 -118 51 -118v33q-97 253 -134 253zM396 1077v-17l16 -51h-33l-17 17h-16v-33l16 -85l-16 -16h-17l33 -68l17 17h184q38 34 117 34q0 50 33 50l34 -33h33l33 33l-16 17 l50 17v17q0 56 -234 101h-117l-50 -34l-34 34h-16zM145 1060v-202l67 -34v17l-50 219h-17zM997 1009v-50l34 -101l-17 -17l17 -17h16l17 68l-50 117h-17zM880 959v-101h17v34h17l-17 67h-17zM830 858v-17l50 -50v16l-16 51h-34zM947 858v-84l34 -34h16l-33 118h-17zM646 824 l34 -33l16 16h17q50 -99 50 -218l17 17h17l50 -34q0 86 -117 269zM763 841q33 -77 67 -84v17l-17 67h-50zM546 774q34 0 34 -67h16v100h-16zM412 791l17 -51h34v51h-51zM880 774l-16 -67h50v16l-17 51h-17zM496 757v-34l17 -117h83v16q-45 112 -100 135zM630 757v-17 l16 -151l84 17q-50 113 -100 151zM379 740v-33q5 -118 33 -118l51 17v16zM229 673v-51q50 -64 50 -151h33l17 84zM964 606q33 -154 100 -185v16l-50 169h-50zM1047 589l84 -118v34l-67 84h-17zM362 555l-16 -84l16 -202h17l67 17h33l184 -17q128 0 217 152q-40 134 -167 134 h-133l-67 -17l-67 17h-84zM128 471l17 -135h17v135h-34zM1097 404v-34l17 -50h17v50zM262 370l17 -17v-84l-17 -17v-16q37 0 50 -186h100l-100 219h17l-17 118zM880 336v-50l34 -101h16v67l-33 84h-17zM997 303v-84l17 -17v-17l50 17l-50 101h-17zM1064 303v-17l33 -34v17z M797 269v-17q39 -101 67 -101v17l-17 101h-50zM696 236l34 -118h17l16 134h-16zM145 236v-68l17 -84h33v67l-33 85h-17zM379 236l33 -118h17v33l-17 85h-33zM463 236l66 -85v85h-66zM613 236l33 -135h17v50q-12 85 -50 85zM563 219v-51l33 -101h17v34l-33 118h-17zM797 135 q0 -68 -50 -68l-51 34v-17l34 -34h67l33 34l-17 51h-16zM479 101v-51l34 34l-17 17h-17z" />
<glyph unicode="C" horiz-adv-x="1399" d="M688 1390q204 -43 369 -218l48 -167q0 -113 -80 -168h-65l-48 50v17l16 17v17q-79 105 -224 200h-32l16 -16v-34h-16q-32 0 -32 50l-16 17h-49q0 -84 -32 -84l-32 84h-16q0 -84 -32 -84l-32 34h-16l-96 -167l-16 -51l16 -16v-302l48 -217h16l16 16h16q30 -83 128 -83h32 q152 40 305 284q0 28 113 34q144 0 144 -168q-29 -157 -193 -268q-101 -83 -240 -100l-97 -67q-42 44 -256 84q-241 216 -241 619q102 455 289 569q95 67 289 118zM672 1323v-17l32 -84h16v101h-48zM415 1205l16 -16h16l48 33l48 -17v17q0 50 32 50l16 -16h16v50 q-192 -55 -192 -101zM752 1272v-16q16 -118 48 -118l-32 134h-16zM656 1256v-51l16 -16h16v16l-16 51h-16zM896 1239v-34l16 -83h16v83zM351 1138v-16h32v50zM238 971l-32 -218l81 201l-17 17h-32zM960 921v-34h65v34l-16 -17h-16l-16 17h-17zM158 653v-117h16l16 50l-16 67 h-16zM222 653v-67l32 -34v17l-16 84h-16zM896 536l16 -251h16q0 251 49 251l48 -151h16l16 151l-113 16zM254 452l16 -50h33l-16 84zM832 435v-100h16v100h-16zM287 368v-67l16 -83h16v50l-16 100h-16zM736 335l16 -84v-33h-48v67h-16l-16 -17h-16l16 -17v-134h32 q0 55 32 84l16 -17h32l16 184h-16zM960 352l17 -17v-50l-17 -17v-17h33v101h-33zM367 285v-34l32 -33v33zM431 251l48 -151h32l16 101h16q48 -17 48 -101h33v101h32v17h-32l-17 -17v50l-16 -17h-48z" />
<glyph unicode="D" horiz-adv-x="1518" d="M543 1529l18 -19l189 19h38q426 0 605 -435q57 -152 57 -321q-57 -85 -57 -227l-246 -284q-75 -94 -340 -245h-94q0 -76 -38 -76l-19 57l-284 -19q-245 0 -245 57v189q-76 0 -76 37l76 19l-38 133l19 19v18l-19 19v19l19 76l-57 359l19 454h19v-38h19q0 189 435 189z M675 1472v-75q67 0 113 -189h19v94l-19 76l19 19v19l-19 56h-113zM845 1472v-19l76 -226h19l-19 94v76l37 37q57 -69 57 -132l57 38l19 -19h19v38q0 82 -265 113zM108 1321v-57l56 38h19q57 0 57 -75h19v18l-19 76v19h38l19 -76l-19 -19l19 -18h19v18l-19 19l75 19v57 q-75 0 -75 57l19 56q-130 -43 -189 -132h-19zM335 1453v-19l37 -37h19l-19 56h-37zM429 1453v-19q79 -132 114 -132v38q-19 113 -57 113h-57zM543 1453q114 -245 151 -245v37l-76 208h-75zM1147 1359v-19l19 -95h19v76zM1072 1283l19 -19v-37l-19 -19v-19q34 -7 94 -152h38 l-94 246h-38zM429 1264v-56h38l-19 56h-19zM977 1264v-19q0 -123 189 -378l19 -19h19q0 64 -170 303q-25 113 -57 113zM164 1245v-18l57 -152h19v38l-38 132h-38zM845 1245v-18l38 -38v56h-38zM108 1227v-227l208 -265v57q-189 209 -189 435h-19zM1223 1208v-76 q101 -246 132 -246l19 19q-97 279 -151 303zM410 1094q-38 0 -38 57h-19v-57l57 -718h-19l38 -114h38v38h19l19 -19h19q359 73 359 170l19 -18q94 0 94 151l19 19h19l19 -19l57 227q-148 340 -284 340l-189 19h-151q-38 0 -38 -57l-19 -19h-19zM1204 1000v-19l19 -57 l-19 -19h57q-24 95 -57 95zM1147 848l-18 -132q0 -90 94 -189h19l-57 246h38v-38h19v57l-19 19h-19l-19 -19l-19 56h-19zM1337 848v-37l18 -133h19l38 152zM146 735v-57h56v38zM1280 678v-132h38v38l-19 94h-19zM183 622v-57l38 -38h19v19zM316 565v-19l19 -57h18v76h-37z M1091 565l-19 -76l38 -94h19v56l-19 57l19 57h-38zM1185 489v-75l38 37zM240 470l-38 -37l19 -57l19 19h38q57 0 57 -76h18v19q-33 132 -113 132zM977 376q29 -76 57 -76v19l-19 114q-38 0 -38 -57zM164 376v-76q9 -151 152 -151q-114 156 -114 227h-38zM902 357l19 -132 v-57h19l75 57q-64 132 -94 132h-19zM1072 357v-57h38v19zM807 319l38 -113h38l-19 113h-57zM278 300l38 -38h19l-38 38h-19zM713 281l56 -170h38l-38 170h-56zM543 243l113 -189v19l-38 170h-75zM656 243v-37q45 -133 76 -133v38l-57 132h-19zM410 225q24 -95 57 -95v57 l-38 38h-19zM505 206v-57q38 0 38 -113h56l-75 170h-19zM372 168v-19l38 -113h57q-49 121 -95 132zM164 92v-38h76v19z" />
<glyph unicode="E" horiz-adv-x="1151" d="M168 1376h311l63 -17l61 17h171q141 -81 141 -149h-16l16 -17v-16q-72 -116 -312 -116l-109 49l-15 -16h-15l-63 16l-78 -33l-15 -215q185 -50 311 -50l94 33h46l31 -166l-139 -66l-109 17h-171v-100l14 -66l-14 -67v-16l14 -83h16l47 17l78 -17h202q358 0 358 -166 q-83 -83 -125 -83v17l-389 -66l-108 16l-109 -33q-218 43 -218 66l15 17l-31 99l16 17h15l-15 199v83l15 16q-31 57 -47 249h16l-16 17l16 99l-62 464l16 17h15v-17zM371 1326q36 -99 61 -99v83l-15 16v17zM603 1326l62 -182h16v149h32l77 -83l32 33l46 -33v33l-125 100z M121 1260q20 -216 63 -216l-32 150l16 16h16l15 -16l-15 83l30 33l94 -100v83l-31 33h-63q-93 0 -93 -66zM479 1326v-16q27 -96 93 -150v166h-15l-15 -16h-16zM339 1260v-17l16 -49l-16 -17l16 -17h62q-46 55 -46 100h-32zM230 1227v-17l31 -149h-15l-16 17h-16v-34l32 -99 v-17h-16l-78 67v-33q60 0 78 -117l47 17v133l15 16l-15 17v33l15 17l-46 149h-16zM464 1177v-17h46l-16 50zM713 1210v-66h61zM588 1194l15 -67h32l-16 67h-31zM152 879v-67l16 -248h16q0 66 30 66q32 -182 63 -182l-78 281h31l16 -16h15v16l-15 50l-16 -16h-16 q-36 0 -46 116h-16zM308 829v-17l47 -83h16v50q0 25 -63 50zM401 812l78 -83l31 34v33zM681 812v-49h32l15 49h-47zM277 680v-17l15 -83h16v67zM292 531l16 -83v-50h31v133h-47zM168 398v-66h16v66h-16zM277 381v-16l31 -33v49h-31zM184 315l-16 -166l62 -33h16v33 q-47 39 -47 166h-15zM230 265v-16l93 -166l-15 -17h31v-16l78 16h109v17l-32 33l-30 -33l-47 33l-62 -17q-109 88 -109 166h-16zM355 265l77 -99v33l-31 66h-46zM603 265l32 -33h30l32 33h-94zM743 265l47 -49h46v49h-93zM868 265q23 -66 47 -66h15l47 50l-16 16h-93z M479 249v-17l63 -133h30v67zM588 182l15 -16v-67l-15 -16v-17h15l94 17q-78 60 -78 99h-31zM728 182v-83h108l-93 83h-15zM961 182v-66h16l62 50v16h-78zM868 166v-67h47q-24 67 -47 67z" />
<glyph unicode="F" horiz-adv-x="1079" d="M322 1471l332 -52q0 -34 -63 -34l79 -87h15l-15 18v17l15 17h16l17 -70h31v53l-16 86q253 -63 253 -103v-36q-67 -125 -253 -155h-95l-142 52l-96 -18l17 -17v-173l-17 -17v-17q475 -36 475 -139v-17q-61 -156 -284 -156l-95 -17h-127v-122q-33 -484 -142 -484 q-79 80 -79 277v502l-16 69l16 69l-16 52l16 87v294q0 35 47 35q0 86 127 86zM211 1350q52 -136 111 -173v51q32 0 32 -69h31v35l-48 52l-15 -18h-16l-32 105l17 17h15l94 -87v17q0 130 -94 156q-65 -24 -95 -86zM496 1385v-35l63 -87l16 122h-79zM433 1367l-16 -69l16 -87 h78v17q-54 139 -78 139zM781 1298v-18l31 -52l-16 -17v-17h16l48 34l-48 105zM860 1316l15 -53h32v53h-47zM591 1298v-87l31 -34h159l-48 51l-15 -17h-33zM180 1228l15 -17v-17l-15 -225l174 -173q-143 316 -143 450l-16 -18h-15zM258 1159q84 -207 111 -207l16 17l-94 190 h-33zM195 899v-17l16 -86l32 34l-32 69h-16zM527 882l111 -138h16v121zM448 865l63 -173h32l-47 173h-48zM685 848q30 -63 96 -87l15 52zM417 830v-51l16 -121h63q-63 112 -63 172h-16zM291 761l15 -103h79q-3 38 -94 103zM685 761l-15 -69h79l32 35l-80 34h-16zM575 744 v-86l47 17l-31 69h-16zM211 658v-17l32 -157h15v52l-31 122h-16zM274 641v-35h32l-15 -17v-53h15l16 105l-16 -18h-15zM180 519v-17l15 -52l-15 -18l63 -51v17zM243 260v-52l15 -17h-47l32 -36h48l15 53q-48 0 -48 52h-15z" />
<glyph unicode="G" horiz-adv-x="1479" d="M949 1535q320 0 433 -287q0 -205 -173 -231q-101 231 -277 231l-53 38l-52 -19l-68 19q-162 0 -209 -154l-103 -249l17 -19v-20l-17 -19q61 -366 156 -480l52 20v-20q4 -95 51 -95l53 38l17 -58q380 58 380 250v19q-34 0 -34 58l-122 -20h-138l-17 20l-18 -20h-51l-17 20 h-18q0 287 225 287h294q78 0 156 -115q0 -614 -139 -614q0 -38 -259 -115h-173q-415 104 -640 326q-74 110 -139 423q0 638 848 786h35zM897 1478v-96h35v96h-35zM793 1459l17 -77h17l18 77h-52zM1000 1459q0 -77 -51 -77v-58l34 -38h17v57h18q35 0 35 -76h34l-34 115 q-35 0 -35 77h-18zM1105 1459v-77l51 38l35 -38v19q0 33 -86 58zM689 1401v-19l34 38v19zM759 1420l-36 -77l70 -19v58zM568 1382v-115h17l35 96v38zM1209 1382v-19l34 -96h-52v-19h52l34 95zM273 979h18l-18 -19v-20l18 -76l-18 19h-17q-16 -211 -86 -211l-17 -77 q42 -173 69 -173l51 192l-17 19v20l53 153l-18 19v39l18 -20h17q105 461 156 461l17 -57h17l17 95h-17q-207 -93 -207 -211zM1122 1343l-17 -95h34v95h-17zM1295 1286l-18 -154v-19h18l17 77v96h-17zM464 1152l-17 -96q35 0 35 57v39h-18zM118 729l17 -19h18q52 262 86 307 v58h-17q-104 0 -104 -346zM412 979l-35 -135l18 -19v-19l-156 -461q73 -76 156 -95v19l-18 76l35 96l-17 58h-18l-17 -173h-51v19l68 308h35q10 -173 70 -173v19l-35 58v96h-35v153l35 173h-35zM1156 768v-96h17l36 77v38zM1277 768v-19h35v-58l-17 -19l17 -19v-39 q-78 0 -103 -173v-19h17q54 192 156 192v58l-87 96h-18zM932 633v-38h51l17 134zM1035 595h18q69 0 86 134h-17q-28 0 -87 -134zM810 710v-38h-17l17 -19v-20l-17 -57l52 57v39zM1209 345l17 -95l-17 -77v-19h17l51 115l-17 19v38q98 109 104 269q-34 0 -69 -115zM482 461 v-39l17 -134h17v134zM1277 173q46 0 70 153v39q-35 0 -70 -192zM550 307v-57l35 38l-17 19h-18zM1018 115h17q104 106 104 192q-121 -41 -121 -192zM603 250l-18 -116h52v77zM879 211v-77l53 58v19h-53zM966 211l-69 -153v-20h86v77l17 96h-34zM706 134v-38h35v77zM1053 58 h34q69 28 69 57v58q-38 -4 -103 -115zM776 77l86 -19l-17 96z" />
<glyph unicode="H" horiz-adv-x="1579" d="M391 1433h17q-24 -69 -224 -121v-86l17 17h17v-17l-17 -52h35q18 126 69 155l17 -17v-17l-35 -86v-18h18q24 95 121 121l-18 17v87h35l34 -173l-17 -190l17 -172l207 34l87 -17l52 17l51 -17l18 17h17l69 -17q0 500 138 500h35q120 0 120 -224l35 -155l-35 -138l35 -87 q-35 0 -35 -52l18 -190h-18l18 -17v-17l-18 -17l18 -121v-138l-18 -18l18 -17v-86l-87 -104q-159 0 -189 225v52l17 69l-17 17v17l17 17v18l-17 86l17 173h-242l-86 -18v18l-138 -35l-104 35l-34 -35v-138l-18 -328l18 -69q0 -104 -190 -121l-69 224l17 173l-52 863l35 121 l-18 17h35v-34h17zM360 312q-16 -23 -16 -40v-4h4l20 44h-8zM372 308v-4l12 -12v16h-12zM368 296l-12 -24v-4l20 24l-4 4h-4zM148 224v-20h4q0 14 44 84v4zM380 276q0 -12 -8 -12v-12h8q0 12 8 12v12h-8zM144 268v-16h4l4 16h-8zM180 240v-4q20 11 20 32zM352 248 q0 -16 -12 -16v-20h4l12 32v4h-4zM372 240l-24 -40l4 -4h4l24 44h-8zM380 228v-4l12 12v4zM148 188l4 -4v-8l-4 -4l4 -16h4l24 52h8v-8l-8 -28h4l16 12h4l-8 -12v-4h4l12 4v16q-12 0 -12 24h4l-4 12h-4q0 -16 -8 -16v4l4 20h-4q-7 0 -36 -44h-4zM372 212v-4h16v4l-8 8z M288 200v-24l28 24h-4l-12 -4zM384 200l-4 -16q8 0 8 12v4h-4zM220 180h4q12 3 16 16h-8q-6 0 -12 -16zM324 192v-12l12 12h4v4h-4zM256 172l4 -4l16 4v16q-18 -8 -20 -16zM300 172h12v8h-4zM356 180l-4 -20q7 0 12 20h-8zM228 172v-4h12v8zM368 152v-4l8 8v4zM184 152 l-12 -40l20 4l-4 28l4 4v4h-8zM384 152l-12 -20h4l16 12zM168 144l-12 -32v-4q6 0 16 32v4h-4zM356 144l-4 -24q7 0 16 24h-12zM384 120l-8 -24h12v24h-4zM348 88v-48l12 -12l4 24q-12 0 -12 8q0 17 20 44v8zM152 56v-8q9 0 28 56q-15 0 -28 -48zM184 88l-4 -20h8v20h-4z M372 68l8 -12l-4 -12l12 4v20h-16zM168 48q0 -8 -12 -8v-16h8l8 20v4h-4zM180 48l-8 -28v-4h4l12 12v20h-8zM364 28v-4l16 -4v16z" />
<glyph unicode="I" horiz-adv-x="657" d="M325 1398h19q114 -42 114 -133l-19 -57l38 -342l-19 -419v-76l-19 -114l19 -19l-76 -304h-19v114l-95 -19l-76 95l19 19v19l-57 133v228l38 514v342h38v-38h19zM249 1265v-19l114 95h-19zM230 1075h38q0 57 76 152v38q-114 -56 -114 -190zM363 1189l-57 -114v-19h19 q0 57 38 57h19v-38h19v19l-19 95h-19zM230 961v-57h38l19 114zM363 866l57 19v114q-44 0 -57 -133zM306 923v-19l38 38v19zM211 466v-19h19q190 343 190 400q-133 -95 -209 -381zM230 752l-19 -76v-20h19l19 77v19h-19zM230 314v-38h19q0 72 152 323v19q-149 -145 -171 -304 zM382 504l-19 -95l57 57v38h-38zM249 143l19 -57h38l95 285q-95 -45 -152 -228z" />
<glyph unicode="J" horiz-adv-x="657" d="M434 1451h10l20 -34l-10 -17h-10l10 -51h10l20 34q100 0 100 -222l10 -137l-10 -273l10 -85l-20 -86l10 -17q-41 -301 -140 -426q-149 -120 -230 -120h-20l-10 17h-10l-20 -34l-80 205l-30 188q19 222 100 222h40q60 0 60 -137q0 -148 70 -222l60 68q30 41 70 308l-10 85 l10 154l-10 188l10 187l-20 137zM464 1315v-239l30 17l-10 85q0 85 40 102l10 -17v-17l-20 -51v-51h10q0 51 20 51l10 -17l-20 -137l30 52v68q0 149 -70 171zM464 1007v-51l20 -34l10 85l-10 -17h-10zM474 871l-10 -86v-17q23 0 30 86l-10 17h-10zM554 871q0 -64 -30 -137 h30l10 85v52h-10zM474 717l-10 -154l10 -17h10l20 52h-30l20 119h-20zM544 700l-10 -85l30 51v34h-20zM534 580l-50 -170h10q50 43 50 153v17h-10zM64 376l20 -120h20v68l-10 103l40 119v17h-10q-27 0 -60 -187zM134 444h20q0 51 20 51l10 -119l10 17h30v-17l-10 -137 q30 0 30 68l-30 256h-40q-16 0 -40 -119zM454 512l-40 -188v-17h10l50 205h-20zM134 307q0 -68 -30 -119l10 -17h20l10 102v34h-10zM144 120l10 -18h10l30 205q-15 0 -50 -187zM394 256l-50 -119v-17h10l60 51l-10 17v17l10 51h-20zM264 205v-17h20v51zM234 222l-50 -137 v-17h40l20 137v17h-10zM304 205q0 -34 -60 -137h20q27 8 60 120v17h-20z" />
<glyph unicode="K" horiz-adv-x="1382" d="M1176 1430h52l34 -34v-138q-49 -128 -309 -344v-68q309 -503 309 -585v-137l-86 -86h-17q-197 90 -344 326q-17 103 -52 103q0 -51 -34 -51v17l17 120h-17l-52 -17v69l18 69l-18 51h-17l-223 -223v-35q0 -481 -172 -481h-17q-121 87 -121 206l-17 413l52 653h34v-86h17 l52 86v18l-17 17v17q35 103 137 103q103 0 103 -378l-51 -155h34q0 82 550 516zM970 1172h34q0 40 155 190h17v-52l52 17v69q-140 0 -258 -224zM282 1293v-17h17v34h52v-34l-17 -18v-17h17l51 52l17 -17v-18l-51 -120h17l52 17v155l-52 52h-34zM815 1086h34l172 224v17 q-176 -131 -206 -241zM1056 1104v-18q86 30 154 190v17zM763 743v-18h18q0 52 206 310q0 40 137 206v35q-315 -375 -361 -533zM265 1207l-69 -103v-35h17q0 45 69 103v35h-17zM316 863q65 39 121 137v121zM162 708v-34h17q0 116 189 361v34q-206 -242 -206 -361zM505 674 v-17l86 51l-17 17v18l172 275v17q-42 -20 -241 -361zM798 1000l-138 -223l52 -34h34l-17 68l86 172v17h-17zM471 829v-35h34l104 138v34q-43 0 -52 -69l-69 -68h-17zM385 863l-17 -86v-17h34v103h-17zM867 829l-18 -18v-17l35 -34l-17 -52l17 17h34v-34l17 17h18 q0 107 -86 121zM282 760l-86 -155l-34 34v-172h17q0 58 120 276v17h-17zM798 725l-52 -103h35l34 86v17h-17zM918 553v-17h17q18 103 86 103l-34 69q-27 0 -69 -155zM815 536l34 -86h-17q40 -103 69 -103h17l52 189q-29 0 -69 -103h-52l18 17l-18 17q26 142 69 190v17z M351 553v-17h17q0 52 34 52l52 -17v17l-17 69zM1021 588l-17 -86l52 51v35h-35zM248 536l-18 -51v-18h18l17 52v17h-17zM299 502v-17l35 34v17zM1073 502l-35 -103v-18h18l68 104l-17 17h-34zM368 467q0 -73 -86 -172v-17l17 17h17l35 -34v-17q0 -52 -103 -206h34 q93 0 103 361v68h-17zM162 433v-103l68 103v17zM1142 416l-35 -121l69 52l17 -17v17q-26 69 -51 69zM970 381l-35 -103h35l17 86v17h-17zM179 192v-68l51 -52l69 155q-43 0 -51 -69l-18 -17h-34v34l69 172q-86 -69 -86 -155zM953 261v-34h34l17 -17l17 17l35 68v18 q-45 -52 -103 -52zM1193 313l-17 -189h34v189h-17zM1056 158l68 -34l35 137z" />
<glyph unicode="L" horiz-adv-x="1128" d="M307 1469h62q126 -82 126 -342q0 -256 -32 -256l16 -17l-16 -119v-120l47 34l16 -17v-17l-47 -85l16 -154l-16 -51h188q294 34 313 68l62 -68v-52l-16 -68l16 -68v-35q0 -72 -360 -102l-62 17l-16 -17h-15l-32 34h-203l-47 -34h-16q0 75 -203 137v17l31 376v153l16 69 l-16 17v17q11 632 79 632q57 51 109 51zM166 1247l15 -68l-15 -103v-17h15q20 120 79 120v85q-31 0 -31 -51h-31v34q65 120 93 120l16 -86h31l63 103l-47 51q-188 -24 -188 -188zM386 1213h-32v34h-16v-34l16 -17v-17l-47 -120q112 154 141 154v17l-16 119q-46 -10 -46 -136 zM432 1179q-51 -203 -110 -274v-17q32 0 32 52q94 0 94 119v120h-16zM260 1144q-94 -196 -94 -273v-34h15l110 307h-31zM354 871l15 -68l-78 -154v-17h16q125 184 125 239v34h-15zM166 683v-17h15l64 188q-40 0 -79 -171zM291 786v-17l31 34v17zM386 700v-17l15 -17v-17 l-110 -239v-17l141 171v119zM119 154h62q0 168 157 444v17q-219 -251 -219 -461zM166 495v-17h15l17 69q-32 0 -32 -52zM386 342q62 34 62 102q-62 -34 -62 -102zM432 359l-31 -69h31l16 52v17h-16zM198 154v-17h62l62 205q-43 -14 -124 -188zM698 256v-51l125 85l16 -51 l-16 -51l62 51h16q31 0 31 -51h17l62 154zM448 307l-47 -119h16q0 34 46 34l16 17v17l-16 51h-15zM557 222v-34l94 85h-47zM354 239l-78 -137l15 -17h16l62 154h-15zM386 85h31l15 -17l16 17l62 103v34zM541 102v-17h32l78 120h-16zM635 51h32q55 0 109 154zM792 51l203 51 l-31 52l16 17h-31q0 -51 -32 -51t-32 68q-93 -84 -93 -137z" />
<glyph unicode="M" horiz-adv-x="1798" d="M492 1487q112 0 173 -345q86 -127 173 -554h17q160 636 260 848q67 34 190 34h104q74 0 138 -450l-17 -17v-17l17 -17l-17 -87l17 -346l17 17h18l17 -17v-17q-42 0 -69 -242l17 -18v-17l-34 -190h-18l-17 17h-17l-52 -69q-191 0 -191 294v450h-17l-242 -623l-104 -121 h-17q-131 88 -294 675q-29 0 -35 121l-34 34h17l-17 69h-18l-17 -103l35 -139v-34l-18 -104l18 -17v-18l-18 -17l18 -86v-18q-48 -311 -104 -311h-35l-121 104l-17 570q0 123 52 260l-17 17v17q92 467 242 467h17zM440 1436q52 -52 52 -121l52 34h17l18 -138h17v69 q-42 156 -156 156zM1063 1142l17 -52h-17l-35 -70v-17h18q0 52 34 52l17 -17v-173h35l-17 17v398h52v-104h17v242q-121 -123 -121 -276zM1253 1418l17 -17v-17l-17 -294l17 17h18l17 -17v-18h-35v-17l35 -69l-35 -104v-34h18l86 380l-17 87h-35l-17 -70h-17v104l34 35h35 l52 -156l-18 -121v-35h18l52 173q-43 173 -70 173h-138zM371 1366v-69l35 -34v17l-18 86h-17zM440 1332v-69h35v17l-18 52h-17zM440 1245l17 -69q-13 -173 -51 -173l-18 17v-34l52 -17q0 69 52 69l-17 17v190h-35zM527 1228v-242h17l17 225l-17 17h-17zM596 1193l-17 -51 l17 -18v-52l17 -346h17l35 70l-35 52h18l-18 51l18 191q-35 0 -35 103h-17zM1461 1176q0 -157 -70 -294h70v-17l-52 -17l-18 17l-34 -121v-18h17q0 35 52 35l52 87v121l17 69l-17 138h-17zM1167 1142v-87h17v87h-17zM284 1072v-103l35 -35v104zM1201 1072l-34 -34v-52h34 v-17l-34 -52v-18l34 -34l17 173v34h-17zM1374 1055v-69h17v69h-17zM1028 986v-173l-17 -87h35q0 -224 -87 -224l17 -18v-17l-34 -208h34q30 176 156 450l-17 -17h-18q-34 67 -34 190v69zM648 951v-52h34v52h-34zM700 917v-364h17l52 139l-52 225h-17zM406 882q0 -69 -35 -69 l17 -17v-225l-52 -190q52 -11 52 -139h18l17 104l-17 104l17 207l-17 156l17 52v17h-17zM267 865l-34 -208v-17h34q0 104 35 104l-18 121h-17zM1461 796l-87 -312v-17h17q0 59 104 242l-17 87h-17zM1340 692l-18 -104v-17h18l17 104v17h-17zM648 657v-173l17 -52h17v35 l-17 52h17l-17 138h-17zM1478 623q0 -52 -35 -52l18 -18v-34l-70 -225q82 72 122 173l-18 17v18l18 17v17l-18 87h-17zM907 605v-69h35l-18 69h-17zM769 571v-35h17l-17 -121v-86l17 -87h17l35 242q-35 0 -35 87h-34zM233 519v-17q17 -139 51 -139l-34 156h-17zM873 484 q0 -169 -52 -328l17 -18h17l35 208v138h-17zM1270 467v-294h35l17 121h-34l17 121v52h-35zM1478 329l-52 -156q45 0 69 138v18h-17zM336 225v-35l35 -34h35zM717 225l17 -52h17v52h-34zM890 190v-69h17l35 104h-18zM302 173v-52l52 -17v17zM1357 173q0 -52 -52 -52v-17 l35 -35l34 87v17h-17z" />
<glyph unicode="N" horiz-adv-x="1554" d="M1136 1548h34q67 -108 118 -288l-17 -118v-84l17 -186l-17 -85l17 -17h17l-17 -17l17 -202v-119l-17 -101l17 -51q0 -205 -101 -287l-17 17l-51 -17q-199 71 -287 253q-63 0 -152 186q-96 0 -271 474h-17l-17 -51l17 -17v-17l-17 -101l34 -68l-50 -355l16 -67h-16l16 -17 v-17l-101 -135q-105 0 -152 84v17l51 68v67l-34 51v34h17l-17 169v186q51 171 51 304l-17 135q86 253 118 253h17q116 -58 321 -456q186 -227 186 -270l101 -169q4 67 34 67l-17 85v84l-17 237l119 473zM1119 1497q-75 -120 -118 -439l-17 -51h-17l17 -85v-84h34 q84 179 135 524h34v-68h17l17 85q-39 0 -68 118h-34zM240 1176l17 -85v-67l51 -17l17 220l-17 67h17q34 0 51 -118h16l34 84q-28 77 -101 119l-17 -17q-34 0 -34 -135l-17 -51h-17zM1170 1243l34 -67l-68 -152q101 84 101 186l-16 50l16 17h-16zM426 1193q0 -85 -34 -85 l-16 17h-17q0 -181 -34 -203q34 0 34 -50h17q10 101 50 101q34 0 34 -67h17v16l-34 271h-17zM494 1108v-84h34v84h-34zM1035 669q202 241 202 321v68q-29 0 -202 -389zM545 1041v-135h16l17 50l-17 85h-16zM257 973l-34 -169q34 0 34 -84l102 -152v16q-85 276 -85 389h-17z M595 939v-50q68 -74 102 -355h17q0 169 67 169v17l-169 219h-17zM1119 635q118 83 118 186v17q-118 -144 -118 -203zM984 821v-84l34 -34l34 118h-68zM595 787v-135h17v135h-17zM1221 703l-17 -17l17 -51l-220 -321v-17h17q57 142 236 304v68zM207 686l-17 -85v-84l33 -68 h34l-34 237h-16zM781 686l-17 -118q17 -203 51 -203l34 203l-51 118h-17zM612 584v-16l34 -34v84zM967 568l-17 -68h17l51 51v17h-51zM274 551v-34l34 -152v-17h-17q-34 0 -34 51h-34l51 -102l-34 -67l17 -85l-17 -17h17q92 0 102 372zM1237 551q0 -68 -50 -68 q0 -63 -85 -186h34q24 93 118 118v136h-17zM883 483v-17l33 -101h17l34 101zM849 365l-17 -68l84 -51h17v34q-67 0 -67 85h-17zM1119 213l68 50l50 -17l17 17v34h-17l-16 -17h-17v17l17 51q-102 -84 -102 -135zM1018 280l-51 -118v-34q155 -84 237 -84l-17 17v50l34 34 l16 -17v85q-65 -68 -118 -68l-17 51l-50 -34h-34v34l17 67v17h-17zM1068 246v-16l34 33v17z" />
<glyph unicode="O" horiz-adv-x="1614" d="M762 1592l81 -21v21q375 0 604 -343q81 -128 81 -282v-161l20 -81q0 -385 -544 -665q-161 -60 -322 -60q-415 0 -564 363v40h-21l-20 -20h-20l-20 20q0 800 524 1128q0 32 201 61zM863 1511l-40 -121v-20h20l121 141h-101zM662 1350h100l41 141q-120 -79 -141 -141z M1044 1471l-60 -161q116 65 161 141l-101 40v-20zM97 625v-21h21q98 473 362 766l81 81q-300 -156 -443 -645zM883 1350l20 -20h41l20 100zM1064 1289l41 -40l40 101v20zM400 1169v-21l181 182v20h-20zM319 766q89 -464 343 -464l20 -20h20q331 70 443 242l101 141v201 q0 265 -242 363l-161 40l-141 -20v40h60v21h-60q-248 0 -363 -544h-20zM1145 1209q88 -29 161 -222v-242l20 21h21l-21 20v20q121 154 121 282v20h-20q0 -60 -40 -60h-20v60l20 141l-121 -80h-20v40l20 101h-20zM259 947l-21 -61h21l20 21v40h-20zM1427 886 q0 -125 -342 -523v-21h20q303 247 362 544h-40zM198 725v-60h40v60h-40zM158 484v-81h20q10 81 60 81l-20 20v20l20 80zM118 524v-20l40 40v20zM279 564l-41 -121v-20q41 0 41 61h20q40 0 40 -61l-20 -141q81 42 81 101l-81 181h-40zM1226 302h-20v40l-162 -181v-20 q329 223 403 383v20q-80 -33 -221 -242zM218 262v-20h20l41 141q-61 -20 -61 -121zM319 201l20 -60h40l41 161q-30 0 -61 -80h-40v-21zM460 302l-20 -80h20l61 60l-21 20h-40zM863 201v-20h20l81 121h-20q-55 -7 -81 -101zM621 81v-21h81l141 202h-20q-192 -131 -202 -181z M621 242l-40 -101v-20l101 101zM420 121l80 -20l61 121h-20zM843 60h20q54 1 121 141v21q-76 -26 -141 -162z" />
<glyph unicode="P" horiz-adv-x="1120" d="M632 1456q267 0 380 -284v-160q0 -159 -288 -355l-168 -36v18l-14 -18h-107l-14 18h-16l-45 -177l14 -18q0 -302 -90 -444q-122 0 -122 266l-15 18v18l31 177l-16 107v106l16 71l-16 71l16 18v18l-16 53l16 18l-16 18h-15q31 44 45 355h46v-53q61 28 61 124h-15l-46 -36 h-46v36l152 53l16 -18zM360 1367l-16 18h-15q0 -81 -45 -178v-17h15q49 159 75 159q31 0 31 -53h30q0 53 46 53l15 18v36h-15zM542 1314h14l61 71v18q-66 -18 -75 -89zM785 1367l-16 -89h16l75 18l15 -106l16 17h15l30 -35v-36l-15 -177l46 53v89q0 138 -168 266h-14z M617 1349l-61 -106h61q0 71 31 71v35h-31zM450 1261h46v53zM678 1243l15 -18h45l16 89h-16q-49 -18 -60 -71zM360 1278l-16 -53h30v53h-14zM769 1225l16 -124h30l30 160zM374 1190l16 -18v-107l-16 -160l16 -53h137q53 0 151 89l46 -36q45 0 61 143q-25 0 -61 124l-303 35z M284 1119v-36q-76 0 -76 -124h30l61 142v18h-15zM329 1119l-45 -125v-35l60 17v143h-15zM860 1119q0 -36 -45 -36v-53h30q0 71 46 71v18h-31zM815 905l-16 18v-71q122 29 122 71v18zM208 728v-18l91 160v18q-91 -62 -91 -160zM268 710l16 18q30 0 30 71l46 18l-16 53 q-27 0 -76 -160zM632 710v-18q91 70 106 125v17h-14zM496 817l-15 -54v-17h15l31 71h-31zM466 675h30q68 0 121 124v18h-14zM815 817q0 -54 -61 -54v-17h31l45 71h-15zM374 692v-17q61 29 76 106h-15zM208 568v-106l-16 -196l16 -71q24 0 60 107v18h-15q0 -54 -30 -54 l-15 18v18l136 266v18q-76 -51 -76 -107h-45l76 196zM299 320l-46 -125v-17q76 22 76 53v89h-30zM223 107v-36h15l61 71h-15z" />
<glyph unicode="Q" horiz-adv-x="1614" d="M841 1265v-16l-16 -16v-16q460 -47 460 -222q76 0 159 -444q-79 -207 -190 -350l-16 -16v-15q119 0 190 -159q-44 -123 -95 -143h-48l-270 190h-31q-125 -63 -270 -63v16l-16 -16h-16q-476 127 -476 333h32q0 -115 269 -222v16l16 79l-63 -47l-32 31l16 64v16h-16 q0 -64 -32 -64l-31 32l15 79q-31 0 -31 80h-16q0 -48 -32 -48l-32 32l16 79l-47 32v-111h-32v32l-16 79q70 524 190 524q75 123 175 159q204 95 286 95zM619 1154v-32h31l32 32v16h-16zM714 1154v-48h16l16 48h-32zM873 1106v-63h15q24 0 48 63h32v32h-16zM1000 1122 l-48 -63h16l79 47h64v-16l-32 -63h16l63 63q-45 0 -79 48l-16 -16h-16l-47 16v-16zM523 1074v-15l64 63h-16zM761 1106v-63h64l32 31l-16 16h-16l-48 -16v32h-16zM1174 1059l-63 -143h16q31 0 31 47l16 16h64v-47h31v15l-79 112h-16zM1000 1043v-32h47v32h-47zM619 1027 q0 -64 -64 -64q-127 -149 -127 -238l-48 -127h16l64 32l-16 16q0 224 222 365l-16 16h-31zM492 646v-175q0 -200 333 -270v16q-79 76 -79 175v16l31 31h48l63 -15l48 15l-16 -15v-16l80 -111h15v31h32v-31q76 42 95 333q-40 0 -79 143l48 16v16q0 139 -191 190h-174 q-254 -106 -254 -349zM349 868v-16q106 24 158 127h-15q-121 -60 -143 -111zM1142 900v-48h32v48h-32zM1254 868h15l32 32h-16zM285 836l-16 -63l16 -16l-47 -222v-16h15l127 301zM1301 805v-16l32 31v16zM1158 693v-15h16l48 47v32zM1174 503h16q143 127 143 254 q-159 -115 -159 -254zM1349 678v-32l32 -32v95zM301 551v-16h16l32 63v32q-28 0 -48 -79zM1365 598q0 -45 -48 -79l16 -16v-16q-111 -222 -159 -222v-80q222 293 222 397l-15 16h-16zM396 566l-16 -63q32 0 32 48v15h-16zM365 487v-63h15v63h-15zM396 376v-16h16l32 111 q-32 0 -48 -95zM1158 455l-16 -79l48 48zM1222 439l-32 -79v-16h16l48 80v15h-32zM777 392l16 -16v-16l-16 -16v-16l48 -31l16 15v80h-64zM428 328v-16h16l32 32v32zM873 344q30 -72 63 -79h32v16l-48 79zM1127 344v-47h15l32 31v16h-47zM492 297v-64h63v-32l-16 -79l64 79 v32l-96 64h-15zM650 154v-32h48l79 32v31h-95zM904 185l-16 -79h16q37 0 48 79h-48zM1000 106h31l32 64v15q-33 -6 -63 -79zM1174 154l-16 -80l48 48zM809 58h16l48 16v64h-16q-28 0 -48 -80zM555 74q95 -11 95 -31q80 20 80 47q-96 0 -127 32zM746 43q36 0 47 79 q-36 0 -47 -79zM1254 122l-32 -95l16 -16h16l79 16l16 -16v-16l-16 -16v-16h16l32 32v16q-67 111 -96 111h-31zM1095 106v-32l32 -31v63h-32zM1158 11l64 -64v16l-32 80z" />
<glyph unicode="R" horiz-adv-x="1283" d="M431 1408l45 -34l77 17h30l15 -17l123 34h122q182 0 351 -269l-15 -16h15l46 16v-16q-61 -81 -61 -134l30 -34q-114 -180 -229 -285h-15l-15 17h-15v-50q62 0 213 -201l15 -118l-15 -16l61 -67v-34q-46 -184 -76 -184l-15 50l-16 -17h-106q-128 80 -244 419 q-68 117 -276 117l-15 -16h-15l-31 33v-67l16 -17v-16l-46 -51l15 -83l-15 -67l15 -17v-17l-30 -134h15q0 -84 -76 -134h-31l-61 17l-61 -17h-15l-31 436l15 234l-15 51q50 502 77 502q30 0 30 118q37 50 214 67zM248 1324v-17h45l16 17v33zM614 1307v-17l76 34l-30 33z M782 1290h15l92 34l15 -17h31v17l-92 33q-50 -16 -61 -67zM415 1223h16l61 51l15 -17l61 84h-31q-83 0 -122 -118zM309 1240h-16l-15 17h-15l-15 -51h15l15 17h15l16 -17l45 84v17q-38 0 -45 -67zM843 1290q0 -37 -122 -67v-17q137 21 137 68v16h-15zM889 1240l30 -34h16 l30 68v16zM996 1290v-33h15l30 33h-45zM187 1290l15 -16v-34h-15l-31 34l15 16h16zM461 1173l15 -17v-134l-15 -151l31 -67l427 84l61 67q0 129 -106 235l-153 -34v17l-214 -84v17q0 37 137 67v17l-61 16l-30 -33h-31v50zM950 1173l46 -50l30 83v17zM202 1190v-67l30 33v34 h-30zM996 1106v-67l91 84h15v-17l-15 -50h31l15 50l-31 50zM370 1139q-83 -150 -122 -150v-34l152 184h-30zM415 1123q0 -64 -76 -118l-91 -150l91 100l107 84v50zM171 938v-16h16l61 134h-16q-61 -28 -61 -118zM1133 1056q0 -50 -61 -84h-15v17l30 50h-15q-61 -22 -61 -101 l-15 -16q-31 0 -31 -67h-61v-34h15q229 136 229 218v17h-15zM263 771v-17l183 168l-15 50q-105 -55 -122 -151zM217 938l-61 -100v-17l76 101v16h-15zM904 737h15q123 40 183 151h-30zM324 704q66 35 107 100v34h-16q-91 -83 -91 -134zM797 821l-30 -33v-17h15l46 17v33h-31 zM431 704l15 -17h15q68 84 122 84v17h-15q-137 -38 -137 -84zM553 637h30l153 151h-15q-137 -95 -168 -151zM187 670h15l46 67v17zM736 603h16q87 55 122 118h-31q-47 -18 -107 -118zM843 637l-107 -101l16 -17h30q4 67 61 67l31 -33h15v17q-46 0 -46 50l15 17h-15zM156 603 l-15 -67l15 -17l-15 -83v-84h15l61 100l-15 -16h-15l-16 16h-15l31 151h-31zM202 369h15q138 108 153 150v34h-16q-80 -60 -152 -184zM950 553l-46 -84v-17q59 67 107 67l-31 34h-30zM813 452l15 -16h15l61 100zM1011 486l-76 -117l137 117h-31l-15 17zM1087 452 q0 -74 -61 -150h15q0 38 77 50v17l-16 83h-15zM263 302h30l61 33v67h-15q-55 -31 -76 -100zM889 268l15 -50l107 134v17zM156 285v-184l76 83h16v17h-16l-45 -17l-16 17v17l31 84zM950 184v-16l15 -17v-17l122 134v17zM1072 201v-33l76 50v67l-61 -84h-15zM248 134h15 q91 58 91 134h-15q-27 -5 -91 -134zM1057 101h30l76 83h-15zM217 67v-17l76 -16l31 100q-69 -67 -107 -67z" />
<glyph unicode="S" horiz-adv-x="1085" d="M641 1421h32q134 0 259 -262l15 19h17l16 -19v-37h-16l-17 19h-15q-17 -112 -49 -112h-64q-140 102 -275 112q-84 0 -129 -94q0 -176 371 -299q179 0 226 -393q-146 -318 -387 -318q0 -29 -242 -37q-189 0 -339 281v56q22 205 145 205h16l113 -149v-94q49 0 49 -75h16 l48 38l17 -19v-19l-33 -93l65 56l32 -37q155 100 258 243q0 113 -403 280q-242 164 -242 299q71 374 274 374q0 32 242 75zM625 1365v-112q32 0 32 56l16 19h48l-15 -75v-19h15l49 94l-113 37h-32zM431 1290l49 -18l32 56h-49zM318 1234l-16 19h-16l-16 -19v-18h32v-38 l-32 -56v-19l129 187h-16zM544 1216l32 -38l17 94zM480 1253l-17 -94h17l48 19l-32 75h-16zM754 1141l16 -19h16l33 75v37zM189 1066v-19h16l32 112q-27 0 -48 -93zM851 1159l-32 -93l15 -19h17l32 56v56h-32zM335 1103l-17 -74l49 56v18h-32zM173 1010v-56q32 -102 97 -131 v19q0 74 -65 74l-16 94h-16zM286 916l32 -37l65 75v56zM399 898l-16 -94v-19q65 28 65 57v37zM463 711l33 -38l32 38v37zM560 673v-37h33l32 37h-65zM657 580h32l32 37v19q-64 -28 -64 -56zM738 542l16 -56h32l48 131zM883 598l16 -112l16 19h17l-17 112l-16 -19h-16z M125 468v-38h16l48 56h-16zM802 449l32 -38l17 75h-17zM205 430v-37q-43 0 -80 -94h16l81 112v19h-17zM706 131v-19h15q125 0 243 281q-43 -22 -113 -169zM189 262v-19l81 94v37zM834 318h17l32 37h-16zM318 187v-56l32 37l-15 19h-17zM335 75v-19h32v56z" />
<glyph unicode="T" horiz-adv-x="1350" d="M363 1596l88 -20h335l70 -20l53 20q123 0 123 -40l18 20h105q53 -25 106 -181v-40q-126 -80 -264 -80h-88l-18 20l-52 -41l35 -120l-18 -80l35 -282q0 -743 -211 -743l-53 -60h-17v20l17 20v20q-105 0 -105 241l17 101l-17 180v101l17 60l-17 101v301l-18 -20h-35v20 q70 84 70 201v20l-70 -20l18 -20v-20l-53 -41h-18v61l-123 -20h-123q-35 0 -53 140q48 181 158 181zM539 1496h18l35 40h-17zM170 1415h17l53 20v-20q0 -40 -70 -40v-60h35l70 80v20l-17 20v20l105 41v20h-70q-88 0 -123 -101zM751 1355v-20l246 140v21l-88 20 q-70 -20 -158 -161zM1015 1455v-20h17l88 40l18 -60h35v20l-18 61h-70zM416 1335h35l176 100v20h-52zM733 1455q-141 -86 -141 -180l176 160v20h-35zM363 1395l-88 -100h18l106 80v20h-36zM962 1315h88l-18 60h-17zM698 1295q0 -45 -123 -181v-80q176 202 176 241l-18 20 h-35zM557 833l18 -121q111 141 158 141v60l-123 -120l-18 20v20l229 301h-18q-246 -144 -246 -301zM803 913l-17 -20v-40h17l36 40l-18 20h-18zM821 793l-35 -81l35 -40l-18 -60h36v181h-18zM557 632v-121h18q46 126 176 262h-18l-123 -141h-53zM575 491v-80h17 q0 61 141 161v40q-110 -121 -158 -121zM733 511q0 -69 -158 -160v-61l193 181v40h-35zM803 491l-17 -60h53v60h-36zM786 331l-35 -101l17 -20h18l-18 -20v-40q39 0 53 181h-35zM627 230h-35v40h-17l-18 -60q25 -121 88 -140l53 20v60l-53 -40h-18v40q37 80 88 80v60h-17z " />
<glyph unicode="U" horiz-adv-x="1501" d="M1121 1479q227 0 227 -323l17 -322q-55 -467 -140 -531q-184 -303 -366 -303h-191q-404 0 -488 284l-70 626l70 531h17l18 -19l105 38q156 -89 156 -209v-38l-52 -208l17 -19l-35 -341q91 -399 192 -399v-18l53 18l17 -18h18q313 143 313 568v57l-17 76l17 95l-35 170v38 q33 247 157 247zM215 1365v-38l87 76h-17zM1069 1403q-70 -164 -70 -247l18 -18h52l70 113h-53v-38h-17l-35 38l87 114h18v-38h17l69 38v19l-121 19h-35zM250 1270v-19q121 80 121 114h-17zM1260 1346l-17 -171h17l53 19l-35 152h-18zM389 1327l-87 -171h34q0 57 88 57v19 l-18 95h-17zM180 1100v-19h17q0 83 70 94v19h-17q-47 -7 -70 -94zM1034 1081l17 -57h18l104 151v19q-100 -113 -139 -113zM1208 1081v-19l52 57h-17zM371 1100l-104 -190v-19h18q0 38 104 133v76h-18zM302 1081l-140 -152v-38h18l140 190h-18zM1173 1081q0 -48 -122 -152 v-57q139 146 139 190v19h-17zM1260 948l35 -38l-35 -57l18 -76l35 38v209q-26 0 -53 -76zM1139 891v-19l51 57h-17zM267 720v-19h18q104 34 104 171v38q-43 -11 -122 -190zM1051 834v-76l53 57v19h-53zM1034 683v-57q156 139 156 208l-104 -114q-52 0 -52 -37zM197 739v-38 h18l17 95q-35 0 -35 -57zM320 550h51v95q-39 0 -51 -95zM197 531v-76h18l70 152h-18zM1017 607l34 -38h18v38h-52zM1260 550l-87 -152h17q47 13 88 95v57h-18zM371 512l-51 -171l51 38h53v-19l-53 -132v-19l87 75q-52 228 -87 228zM285 455q0 -57 -88 -57l18 -95h17l70 133 v19h-17zM842 228h35l157 94l-17 76q-166 -123 -175 -170zM859 95v-19h53q95 0 278 246v19q-219 -205 -331 -246zM267 209l18 -19h35l16 94zM493 209l-17 -76l70 38v38h-53zM354 152l52 -57h18v76zM738 133l17 -19h34v57h-17zM686 133q0 -57 -70 -57v-19h17l70 19l52 -19h17 v19zM511 57h17l35 38v19z" />
<glyph unicode="V" horiz-adv-x="1456" d="M174 1406h90q156 -55 361 -847l18 18h18l18 -18h18l-18 -18v-108h36q364 929 433 955h108l108 -90v-72q-43 -142 -469 -901q-27 -190 -234 -325h-18q-94 48 -180 252q-116 124 -217 469q-40 0 -108 433q-72 0 -72 54q54 198 108 198zM210 1334l-36 -126v-18h18l36 126v18 h-18zM1130 1298v-18l18 18h36v-54l18 18h36v-18l-18 -54l36 -36v-54q-72 -13 -72 -108q144 160 144 270v18l-90 54h-72zM300 1280l-18 -108h36v108h-18zM102 1226v-36l36 36v36zM336 1172l-72 -307q30 0 72 127l73 18l-55 -235v-18h18l91 217l-72 198h-55zM1040 1010v-36h18 l18 90q-36 0 -36 -54zM1166 974l-18 -55v-18h18l18 54v19h-18zM1003 937l-18 -72v-18h18l18 72v18h-18zM300 847l-36 -90l18 -18h18l18 90v18h-18zM499 703l-36 -144l18 -18h18l72 108zM336 631l18 -72h18l19 126zM553 559l-54 -162l90 108v54h-36zM661 252q126 154 126 217 q-126 -165 -126 -217zM841 361l-144 -253l-54 -18v-36q74 0 216 289v18h-18zM589 288q0 -72 -54 -72l36 -36l36 90v18h-18z" />
<glyph unicode="W" horiz-adv-x="2030" d="M910 1425h17q232 -172 339 -644h-17l-51 34v-170h17q11 102 51 102h17l17 -153h34l187 577q85 204 152 204q91 0 153 -187q0 -119 -204 -492q-176 -577 -237 -577l17 -17v-17q-27 -51 -119 -85l-51 34l-17 -17h-17q-144 0 -288 781h-17q-317 -781 -408 -781 q-96 0 -220 713h17q-85 163 -136 441v17q34 153 85 153l17 -17l102 34q0 -30 84 -51l136 -391l17 -152l-17 -85v-34h17l238 713zM893 1375l17 -17v-17l-17 -221q34 0 68 221l-51 34h-17zM1622 1307v-17q51 0 51 -34v-187h17q0 119 34 119l-17 17v34h34v34l-34 51zM180 1188 q22 -102 51 -102l17 102l-17 102q-34 0 -34 -102h-17zM282 1273l-17 -51v-17h17q0 51 34 51l17 -51l-17 -102v-34h17q0 84 68 170v34h-34v17l-17 -17h-17l-51 17v-17zM842 1290l-51 -187v-153l-17 -17l17 -101h17l51 322v136h-17zM994 1256v-119h17l34 85l-34 34h-17z M1588 1239l-186 -628l17 -17h17l102 254l-17 17v17q101 247 101 340v17h-34zM1656 950h-17v34h-17l-17 -186v-17h17l153 339l-17 51q-34 0 -34 -102l-17 -51l-17 -17q0 -51 -34 -51zM384 1154v-34l-17 -17l34 -34v-85h17v85h50v-17l-50 -288l16 -17v-17l-16 -68v-17h16 l68 271q-17 238 -118 238zM1028 1154l-17 -85v-17h17l17 68v34h-17zM1062 1154l17 -17v-17l-17 -102v-17h17v51h34v-34l-34 -170h34l-17 -84l17 -85h17q0 186 68 186l-102 289h-34zM944 1120q0 -102 -51 -102v-51l34 -34h17l17 153v34h-17zM333 984l-34 -186l17 -51h34v237 h-17zM994 967l-33 -254v-68h17l33 271v51h-17zM842 865l-34 -135v-17h17l51 152h-34zM502 747v-51l-17 -68v-17h17l34 136h-34zM350 696v-136q78 -451 152 -492v17l-17 51h17l-17 17l34 356h-34l-17 -119h-34v68l17 68v17h-17q0 -51 -33 -51l-34 51l17 153h-34zM723 696 l-51 -255q28 0 68 119l-17 17v17l17 68v34h-17zM1521 662v-119h17l16 85v34h-33zM1045 645l-34 -170l34 -102h17v272h-17zM1232 645l-85 -543l68 -17v51l34 237l-17 51l34 153l-17 68h-17zM553 594v-102h17q0 51 51 51v34zM1079 339l-17 17v-17l34 -118h17l51 373 q-34 0 -34 -119l-34 -136h-17zM1283 526v-170h17q13 125 51 170h-68zM1368 492l-102 -373l17 -17v-17l-17 -17v-17h34l68 68l-34 34l51 322v17h-17zM1419 441v-17l-34 -186l17 -17h17l68 220h-68zM570 322l-34 -152v-17h17l51 135v34h-34z" />
<glyph unicode="X" horiz-adv-x="1350" d="M972 1442h105q35 0 53 -115q0 -149 -315 -596l262 -442l35 -115v-77q-70 -115 -157 -115q-142 0 -315 423v19h-18q-73 -243 -332 -519h-88l-70 96q0 201 333 673l-263 384v153q0 104 70 135h88l52 -58v-115q0 -38 -52 -38v-20l35 -38l87 154l-52 57l17 20h18 q56 -36 157 -289h35q0 113 315 423zM832 1231l18 -212h17q30 289 70 289l18 -58l87 134h-52zM237 1173v-38h35l-17 -96h35l35 153v19l-53 -38v38q18 77 70 77v20h-17q-88 -27 -88 -135zM1042 1308v-97h18v97h-18zM762 1135v-58h18l17 96zM955 1058v-19h17l18 76 q-35 0 -35 -57zM482 1058q0 -58 -70 -173v-39h35l70 212h-35zM535 1039v-77l52 19v19l-35 39h-17zM727 750q47 0 88 289q-29 0 -88 -289zM622 770v-20h18l70 231v19q-51 0 -88 -230zM832 1000v-96h18v96h-18zM587 942l-17 -76l52 57l-17 19h-18zM465 770h35l35 76v20 q-36 -9 -70 -96zM675 654v-19l52 58h-17zM500 635l-18 -58l18 -19h17l18 77h-35zM342 366l70 58l18 -19l35 172q-123 -151 -123 -211zM587 520l-17 -77q35 0 35 58v19h-18zM867 501l-17 -116q36 9 70 96zM692 443v-58h35v58h-35zM710 347l105 -192h17l18 134l-53 -38h-17 v134h35v58q-64 -96 -105 -96zM937 424l-35 -135h35v39h35l18 -96q-35 0 -35 -58v-19h17l53 115l-70 154h-18zM342 212l-17 -115v-19h17l18 96v38h-18zM902 212l-52 -96l17 -19h35l18 96v19h-18zM1042 212q0 -76 -52 -134v-19h17q40 0 53 96v57h-18zM412 193l-17 -77 q35 0 35 58v19h-18zM255 78l-18 -115v-20h18l17 96v39h-17z" />
<glyph unicode="Y" horiz-adv-x="1233" d="M231 1444q159 0 382 -383l18 -52l-18 -17l53 -35q211 342 382 452q87 -24 87 -122v-34q-115 -311 -435 -609l18 -52h-18l18 -18v-348q0 -200 -174 -226h-18q-87 0 -87 418l18 174q-38 104 -226 382q0 91 -140 192l-17 17v139q92 122 157 122zM126 1322v-17 q0 -128 52 -139v174h35v-53h18l34 105q-139 -21 -139 -70zM283 1392l17 -87l-17 -70l52 35l52 -52l-17 -70l52 35h17v-52l-17 -18l17 -87q87 53 87 122l-226 244h-17zM1013 1340l35 -35l18 17v18h-53zM909 1270l-52 -139h17q35 0 52 122v17h-17zM979 1270v-52l34 -52 l-17 -53h35l52 157l-52 -35l-35 35h-17zM318 1200l-35 -104h52v104h-17zM926 1131q0 -143 -121 -192l17 -104l157 226l-35 70h-18zM544 1079l-18 -105v-17h18l35 69l-18 53h-17zM352 992v-122h18l35 174zM579 957l-35 -122q69 28 69 122h-34zM700 939l-52 -191h18 q47 0 69 191h-35zM422 870l-17 -70v-17h17l17 69v18h-17zM492 609h34l70 191q-30 0 -104 -191zM544 557l-52 -157v-104q39 0 52 226l17 17v18h-17zM631 505l-35 -105v-17h35l35 122h-35zM613 244h53v104q-30 0 -53 -104zM509 209v-70l35 35v35h-35zM526 70v-18h18 q104 48 104 139z" />
<glyph unicode="Z" horiz-adv-x="1124" d="M260 1376q220 -16 220 -49l14 17l68 -17h28v17q398 -11 398 -195q-127 -283 -316 -501l-261 -324l14 -16h13l110 48l14 -48l206 -17h124l14 -15l14 15h41l110 -129l-96 -113l-138 -32h-82l-83 15l-137 -32l-83 32h-41l-234 -15q-96 85 -96 113v16q0 186 289 582 q7 86 275 389h-14l-69 -64l-14 15v17l28 32h-14l-82 -16l-42 16l-110 -32h-68q-110 0 -110 129l14 17v15l-14 66zM191 1231q14 -97 41 -97h28l96 112l14 -15l41 81h-27l-166 -130v32l97 98v15l-14 -15h-41l-14 15q-55 -15 -55 -96zM562 1166h14q69 0 124 113h-14zM466 1166 l14 -17h14l82 97v17zM796 1263v-17q55 0 55 -64l69 16h14v-49h13v49l-137 65h-14zM328 1134h42l96 112h-28zM700 1198l14 -49h13l28 65v17zM782 1198l-68 -130v-15l110 113v32h-42zM796 1085v-17h14q82 33 82 98zM507 907l14 -17v-32l-110 -372l124 259l-14 16v16 q124 232 124 276q-41 0 -41 -49zM714 858v-16h13l124 211q-50 0 -137 -195zM686 955l-28 -97v-16h14l28 81v32h-14zM384 583v-16l-14 -17v-32h14l82 324q-35 0 -69 -162l-41 -49l-14 -48h42zM617 794l-41 -146v-33h14l41 162v17h-14zM122 162v-32l69 -65h110q0 81 55 177v17 l-110 -146l-41 65v64q0 66 96 260l14 65q-150 -167 -193 -405zM521 535h14l27 32h-14zM466 502l-14 -48h28l14 48h-28zM356 486l-14 -65v-16h14l14 64v17h-14zM218 276l14 -81h14l28 145v32zM397 276l-13 -66q20 0 41 66h-28zM576 259v-49l41 49h-41zM824 178l13 17h28 l41 -33l41 33l55 -17q0 35 -96 81q-82 -17 -82 -81zM631 65h83q0 40 82 162h-14zM425 210q0 -58 -83 -97v-32l96 -16h14l83 130h-14l-96 -98l-28 33l55 80h-27zM507 65l69 -16l82 161h-13q-68 -37 -138 -145zM768 81v-16h56q164 20 164 65h-54l-42 -33q-27 0 -27 49z" />
<glyph unicode="[" d="M584 1341h63v-31q-166 0 -268 -95h15q66 47 300 63q474 -58 474 -126l189 -426l-16 -16v-16l16 -15q-7 -98 -79 -190l16 -63q0 -143 -410 -347l-253 -79h-79v32h32q663 197 663 378l-16 16h-16q-229 -316 -757 -316q-160 0 -379 206h-16q116 -284 284 -284h79v-32h-95 q-285 0 -331 536v48q0 464 268 584q158 173 316 173zM505 1120h16l236 63l-15 16l-48 16v16q-109 -37 -189 -111zM221 947q263 236 315 236v16h-15q-300 -63 -300 -252zM805 1199q0 -44 -426 -173q-237 -192 -237 -363v-79q0 -178 158 -253q0 117 473 269l126 -16l95 16 l16 -16v-16l-47 -63l-64 16q-375 -43 -457 -127q-56 0 -126 -78q73 -48 315 -64q316 0 442 237q79 105 79 174v63l-47 173h15q58 0 79 -236q0 -131 -221 -347v-16h16q174 95 221 205l32 47v237q-83 256 -190 300v-16q63 -91 63 -142h-31q-115 268 -221 268l-16 -16h-16 l-15 16h-16zM1026 1183v-15q39 0 110 -63v15q0 31 -95 63h-15zM142 915v-16h16l47 158q-54 0 -63 -142zM899 1010q79 -47 79 -111l-15 -47l31 -31q-107 -95 -173 -95q-84 0 -95 158l47 31q0 -142 32 -142h16v16l-16 79l47 31h16l-16 -78v-16h32l47 126l-47 47h-16l-95 -63 v32q0 41 126 63zM79 931l-47 -363v-32h15l63 395h-31zM489 868q0 -32 47 -32l16 -15v-16q-89 -142 -173 -142h-16l-32 31v32q0 85 63 110h32v-15q-63 -56 -63 -111h31l79 79v32q-47 0 -47 31zM1294 742v-127h16v127h-16zM95 505v-32q0 -98 79 -173v31q-64 95 -64 174h-15z M221 331v-15q47 -142 221 -142h79l158 15l-16 16v16l-16 -16h-63l-16 16l-16 -16q-203 22 -331 126zM757 189h16l111 32v16q-127 -16 -127 -48z" />
<glyph unicode="\" horiz-adv-x="569" d="M191 1385v-85l-11 -18l43 -34l-10 -51v-17h10l11 17l-21 -85v-51h10v68h22l12 -137h11l11 17l-22 69l22 34l-66 239h10q94 -155 210 -922l44 -410v-17l-11 -17l-55 17q-110 0 -110 256h11q22 0 22 -102h11v51l-11 102h-11l-11 -17h-22q-45 504 -143 973l22 154zM301 1009 v-68h11v68h-11zM312 924v-17l11 -68v-17l-11 -18l22 -153h22l-33 273h-11zM345 634v-17l22 -120h-11q50 -124 55 -307h22l-77 444h-11zM356 122h-11l11 -69h22v34z" />
<glyph unicode="]" d="M584 1341h63v-31q-166 0 -268 -95h15q66 47 300 63q474 -58 474 -126l189 -426l-16 -16v-16l16 -15q-7 -98 -79 -190l16 -63q0 -143 -410 -347l-253 -79h-79v32h32q663 197 663 378l-16 16h-16q-229 -316 -757 -316q-160 0 -379 206h-16q116 -284 284 -284h79v-32h-95 q-285 0 -331 536v48q0 464 268 584q158 173 316 173zM505 1120h16l236 63l-15 16l-48 16v16q-109 -37 -189 -111zM221 947q263 236 315 236v16h-15q-300 -63 -300 -252zM805 1199q0 -44 -426 -173q-237 -192 -237 -363v-79q0 -178 158 -253q0 117 473 269l126 -16l95 16 l16 -16v-16l-47 -63l-64 16q-375 -43 -457 -127q-56 0 -126 -78q73 -48 315 -64q316 0 442 237q79 105 79 174v63l-47 173h15q58 0 79 -236q0 -131 -221 -347v-16h16q174 95 221 205l32 47v237q-83 256 -190 300v-16q63 -91 63 -142h-31q-115 268 -221 268l-16 -16h-16 l-15 16h-16zM1026 1183v-15q39 0 110 -63v15q0 31 -95 63h-15zM142 915v-16h16l47 158q-54 0 -63 -142zM899 1010q79 -47 79 -111l-15 -47l31 -31q-107 -95 -173 -95q-84 0 -95 158l47 31q0 -142 32 -142h16v16l-16 79l47 31h16l-16 -78v-16h32l47 126l-47 47h-16l-95 -63 v32q0 41 126 63zM79 931l-47 -363v-32h15l63 395h-31zM489 868q0 -32 47 -32l16 -15v-16q-89 -142 -173 -142h-16l-32 31v32q0 85 63 110h32v-15q-63 -56 -63 -111h31l79 79v32q-47 0 -47 31zM1294 742v-127h16v127h-16zM95 505v-32q0 -98 79 -173v31q-64 95 -64 174h-15z M221 331v-15q47 -142 221 -142h79l158 15l-16 16v16l-16 -16h-63l-16 16l-16 -16q-203 22 -331 126zM757 189h16l111 32v16q-127 -16 -127 -48z" />
<glyph unicode="^" d="M584 1341h63v-31q-166 0 -268 -95h15q66 47 300 63q474 -58 474 -126l189 -426l-16 -16v-16l16 -15q-7 -98 -79 -190l16 -63q0 -143 -410 -347l-253 -79h-79v32h32q663 197 663 378l-16 16h-16q-229 -316 -757 -316q-160 0 -379 206h-16q116 -284 284 -284h79v-32h-95 q-285 0 -331 536v48q0 464 268 584q158 173 316 173zM505 1120h16l236 63l-15 16l-48 16v16q-109 -37 -189 -111zM221 947q263 236 315 236v16h-15q-300 -63 -300 -252zM805 1199q0 -44 -426 -173q-237 -192 -237 -363v-79q0 -178 158 -253q0 117 473 269l126 -16l95 16 l16 -16v-16l-47 -63l-64 16q-375 -43 -457 -127q-56 0 -126 -78q73 -48 315 -64q316 0 442 237q79 105 79 174v63l-47 173h15q58 0 79 -236q0 -131 -221 -347v-16h16q174 95 221 205l32 47v237q-83 256 -190 300v-16q63 -91 63 -142h-31q-115 268 -221 268l-16 -16h-16 l-15 16h-16zM1026 1183v-15q39 0 110 -63v15q0 31 -95 63h-15zM142 915v-16h16l47 158q-54 0 -63 -142zM899 1010q79 -47 79 -111l-15 -47l31 -31q-107 -95 -173 -95q-84 0 -95 158l47 31q0 -142 32 -142h16v16l-16 79l47 31h16l-16 -78v-16h32l47 126l-47 47h-16l-95 -63 v32q0 41 126 63zM79 931l-47 -363v-32h15l63 395h-31zM489 868q0 -32 47 -32l16 -15v-16q-89 -142 -173 -142h-16l-32 31v32q0 85 63 110h32v-15q-63 -56 -63 -111h31l79 79v32q-47 0 -47 31zM1294 742v-127h16v127h-16zM95 505v-32q0 -98 79 -173v31q-64 95 -64 174h-15z M221 331v-15q47 -142 221 -142h79l158 15l-16 16v16l-16 -16h-63l-16 16l-16 -16q-203 22 -331 126zM757 189h16l111 32v16q-127 -16 -127 -48z" />
<glyph unicode="_" horiz-adv-x="1024" d="M94 -54l694 -14l58 -15l14 15h14q69 -3 116 -116l-29 -29l-14 15l-15 -15h-101l-87 -14l-14 14l-72 -14l-188 14h-29v-14h87l-29 -29l-347 14h-14l-58 44l-29 -29l-29 29v28zM297 -83v-14l72 -15v29h-72zM210 -97l14 -15v-14l44 14v15h-58zM383 -97v-15l101 -14v29h-101z M557 -97v-29h57v14zM773 -170h58v29l87 -29h14v15q-58 0 -58 43h-57q-22 0 -44 -58z" />
<glyph unicode="`" horiz-adv-x="1024" d="M673 1079h-69l-330 202q-31 20 -46.5 40t-15.5 42q0 31 20.5 51t53.5 20q20 0 40.5 -12t55.5 -47z" />
<glyph unicode="a" horiz-adv-x="922" d="M545 1023q193 0 250 -162q63 0 63 -390h-16l16 -16v-49l-16 -16l16 -17v-113q0 -195 -63 -195q-64 0 -172 81q-69 -100 -235 -146q-344 0 -344 276q0 153 407 357l188 49q-50 130 -157 130l-15 -49h-32v49h-15q-28 -1 -157 -195l-47 -16q-67 0 -94 162h-15q0 -49 -32 -49 h-31q150 309 501 309zM545 974v-65l63 65h-63zM655 942v-17l31 -32v49h-31zM310 796v-17h16q0 37 94 146h-16q-52 -22 -94 -129zM435 861h47l16 64zM545 844l16 -16h31l31 81v16zM623 828l32 -81h31l31 130zM154 796v-33l31 -32q0 71 47 130h-16zM263 844l-15 -65l46 49 l-15 16h-16zM670 568l125 163v32h-15q-110 -49 -110 -195zM263 747q0 -49 -47 -49l-15 -16v-16h15q68 38 78 81h-31zM498 585l-94 -130h31q52 22 94 130h-31zM686 487h-16l-15 16h-16l-16 -16v-16l32 -33v-32q-73 -114 -110 -114l16 -16v-32q-63 -74 -63 -114q91 57 157 146 l-32 32q157 217 157 277zM75 260l32 -114h15l16 98l-31 32q181 211 219 211v16h-16q-186 -100 -235 -243zM263 260h63l47 32l47 -32q187 133 188 162v16q0 33 -47 33l-282 -146l-16 -17v-48zM248 373v-16l93 81v17h-15zM764 438l-31 -48h78v32zM185 276v-16l31 32v16z M795 308q0 -58 -78 -146v-32l63 -16l31 97l-16 16v17l16 48v16h-16zM717 292l-47 -81h31l32 65v16h-16zM420 146q82 57 109 130h-15q-94 -65 -94 -130zM138 146l47 -49q0 61 47 130h-16q-27 0 -47 -81h-31zM310 130h31q0 65 63 65v32q-94 -23 -94 -97zM248 211l-16 -49h16 l46 49h-46zM248 114l-16 -49l16 -16h31v32zM357 114l-16 -65h47l-15 65h-16zM404 65v-16h31v48z" />
<glyph unicode="b" horiz-adv-x="995" d="M294 1446l81 -124l-28 -247l14 -17v-18l-14 -18v-17l14 -88h14q70 158 190 158q263 0 381 -423v-53q0 -398 -272 -528l-190 -71q-100 22 -150 88h-27l-54 -53h-55q-95 77 -95 247v123l27 142l-13 88q26 793 95 793l14 18h68zM185 1322h13l55 71h-14zM294 1357l-14 -70 l14 18h26v-36l-40 -176q34 0 67 176q-26 81 -53 88zM212 1093l-41 -88v-18h14l41 106h-14zM320 829v-18l14 18h13l41 -18q91 176 164 176l41 -53q0 44 54 53v18l-68 17q-67 0 -218 -158q-41 0 -41 -35zM226 829v-18q32 0 94 194zM688 970l-14 -53h28l13 53h-27zM212 934 q0 -88 -54 -88v-70h13l55 141v17h-14zM606 881h14l27 36v17zM742 917v-71l40 53v18h-40zM470 881q-136 -193 -136 -423q41 -135 109 -194q259 53 259 265v106l-41 158h-14l-13 -17h-14q0 67 -150 105zM674 846l14 -53h14l13 88zM715 758l14 -53h13l54 141zM158 635v-18h13 l82 159v17q-95 -94 -95 -158zM334 758l-95 -211h28l80 193v18h-13zM742 617v-18h13l55 124v17q-21 0 -68 -123zM837 688q0 -68 -108 -177l13 -17v-18l-13 -18v-17h26l96 229v18h-14zM226 652l-68 -141v-17l81 141v17h-13zM891 582q-29 -219 -189 -423l-14 -18v-18 q231 170 231 441v18h-28zM280 529l-82 -194q37 7 55 88h41v106h-14zM782 441v-36q-40 0 -40 -35h13l55 35v36h-28zM239 282v-18h14l81 89l-14 52zM702 388l-164 -194l-13 -71q27 1 136 177l68 53zM185 300l-41 -88h14l40 52h14v36h-27zM320 264h41v36h-14zM538 88v-17h14 q89 0 109 158q-92 -141 -123 -141zM429 159h14l27 35v18zM239 194q0 -53 -54 -53v-18l41 -52l54 70h-13l-28 -35l-27 35l41 53h-14zM361 141l14 -18q0 -52 68 -52l13 -18l14 18l27 88l-82 -71h-13v88z" />
<glyph unicode="c" horiz-adv-x="905" d="M531 921q231 0 320 -246q-26 -69 -96 -107h-64l-48 46v31l48 107l-16 -15h-32v31h-32v-31q48 0 48 -31q-32 0 -32 -77h-32q-103 62 -160 62q-102 0 -192 -169l-32 -108q36 -184 96 -184l64 16l64 -16l80 77h16l16 -15h16q80 107 144 107q128 -18 128 -61v-92 q-126 -215 -304 -215q0 -31 -80 -31l-16 15l-16 -15h-16q-304 53 -304 246q-48 0 -48 245q0 332 480 430zM515 829v-15l64 46h-32zM387 814v-16h16l48 46h-32zM643 844l16 -61h16l16 46l-16 15h-32zM531 783q0 -31 -48 -31v-31l64 62h-16zM739 783l-32 -62v-15q48 0 48 62 v15h-16zM403 737v-16l32 31v16zM307 752q0 -34 -96 -138v-46h16l96 169v15h-16zM563 752l-16 -61h32l16 61h-32zM163 706l-16 -15v-31h16l32 31v15h-32zM771 706l-64 -92h32q33 7 64 77l-16 15h-16zM131 537l-16 -76l48 61h32v15h-64zM163 461l-48 -139q35 0 64 123v16h-16z M147 230v-15l64 31l-16 15v31l16 15l-16 46q-48 -10 -48 -123zM691 338q0 -46 -80 -46l16 -16v-15l-16 -15v-31h16q0 67 112 92l16 -15v-31q-48 0 -48 -31v-15l80 77v15q0 31 -96 46v-15zM163 184l16 -46h16l16 62h-16l-16 -16h-16zM243 200l-16 -62h16l48 46zM515 184 q0 -47 -96 -107l-32 30l32 62h-16q-69 -38 -96 -108l144 -15l64 15v46l16 62v15h-16zM611 154l-32 -62h16q80 20 80 46z" />
<glyph unicode="d" horiz-adv-x="1040" d="M747 1339h28l55 -46l55 15v-15l-14 -15v-16q55 -110 83 -308l-14 -15v-15l14 -47l-28 -61l14 -46q-9 -108 -27 -108l13 -77v-62l-13 -138l13 -46q-27 -36 -27 -185q-43 -131 -96 -154q-65 0 -124 123l-193 -92h-14q-289 45 -289 123q-124 0 -124 323q0 195 220 447 l124 46h138q46 0 96 -46l14 76v154q0 109 96 185zM679 970v-16h13l55 108l-27 31v46l96 123l-41 31q-96 0 -96 -323zM844 1047v-47q55 16 55 93h-14zM761 985l-55 -123h28l41 108v15h-14zM885 939l-41 -108q50 29 69 93l-14 15h-14zM500 893h13l28 31h-14zM582 924 q0 -77 -27 -77h-14l-41 30l-55 -15v-15q192 -21 192 -124h28l14 47l-69 92l14 46h-14l-14 16h-14zM747 662v-46l97 107h14l-14 -15v-15h27v15l-13 15l41 77v16h-14q-22 0 -110 -154h-28zM279 523q66 -277 207 -277q165 0 165 324q-54 201 -124 230h-14v-30h-13l-55 30 q-166 -54 -166 -277zM720 739q0 -62 -69 -62l28 -107h13q3 61 28 61l-14 15v31l28 46v16h-14zM183 708l-28 -62h14q21 0 41 62h-27zM87 462v-16l55 77v16zM87 385l27 -31l96 169v16q-95 -154 -123 -154zM692 539l-13 -93v-61h13l42 138h-14l-14 16h-14zM871 539l-55 -93h14 l69 16v77h-28zM224 477v-15l28 31v15zM761 200q35 0 110 154v77q-27 0 -27 -77q-83 -106 -83 -154zM210 308h14l55 61v47q-22 0 -69 -108zM155 323h28l27 62v15zM761 339v-16l28 31v15zM266 246v-15l55 31v46zM624 292l-56 -153l124 153h-13l-42 -15zM734 277l-28 -62h28 l13 47v15h-13zM197 231l-14 -16v-30h14l13 46h-13zM541 215l-110 -138h82q0 65 55 138h-27zM858 215l-69 -153v-16q82 45 82 154v15h-13zM431 200l-14 -61q63 29 69 61h-55zM789 200l-55 -92v-16h27l42 93v15h-14zM321 108h55l13 61h-13z" />
<glyph unicode="e" horiz-adv-x="909" d="M521 1141h29q308 -73 308 -426l15 -102l-44 -34v51q-53 -85 -103 -85l-14 -17v-34q102 0 102 68h30l14 -85l-14 -17h-191l-15 17q-63 -34 -234 -34h-74l-14 -119v-52l88 -85h44q190 120 264 205h73l59 -68v-17q0 -307 -396 -307v17l-15 -17h-29q-246 0 -352 324v119 l-15 68q134 630 484 630zM638 1073v-17l30 -34h14v34zM433 1056l-29 -68v-17l58 85h-29zM316 1022q0 -40 -74 -85l-29 -68h29l88 136v17h-14zM712 988v-51q58 0 58 -68l-44 -120v-17q44 68 88 68v69q-61 119 -88 119h-14zM345 732v-17l73 17l220 -34l15 17v68q-59 0 -59 34 l30 34v18l-59 34h-103q-23 0 -117 -171zM682 800v-17h15l29 68h-14q-30 0 -30 -51zM272 732v-34h29l29 119zM81 460v-34h15q88 228 88 289q-103 -62 -103 -255zM345 681v-17h59l102 17v17h-88zM550 562h15l73 51v34h-29q-30 -7 -59 -85zM374 579v-17h15l44 51v17zM668 630 l-88 -119h73l29 102v17h-14zM198 528h15l44 51v17zM272 528v-34h58v68zM433 511v-17l59 -17v51h-15zM213 443v-17h29v51zM286 460l-88 -205q61 0 103 188v17h-15zM96 375v-51l102 -188v51q-44 0 -44 34l30 86q-44 0 -44 34l14 17v17h-58zM624 204v-17q69 103 190 103l-44 51 h-58q-24 0 -88 -137zM741 187l-15 -17v-34h15l29 34v17h-29zM242 136l44 -51l30 51v34zM345 119v-17l44 17v34h-15zM492 51v-17l161 34v17l-44 51l-29 -34h-15v51zM360 51h73l29 68h-44z" />
<glyph unicode="f" horiz-adv-x="559" d="M307 1420q194 0 236 -136v-16l-56 -85h-22l-57 51l-67 -68v-118q0 -34 56 -34q79 -99 79 -186l-46 -51l-56 17l-33 -321l11 -50l-11 -17v-17l11 -68l-45 -237l-34 -67l-12 -17h-44l-68 152l12 186l-12 51h12l-12 17l23 321l-11 50h11l33 -50v-17l-11 -17v-17h23l22 68 l-11 50l90 153v17q-25 -3 -124 -187h-11v51l-102 -34l-22 102v51q0 134 146 134q0 265 102 339zM261 1284h12l56 69l12 -17v-18l-12 -17v-17h12l22 85h-22q-64 0 -80 -85zM397 1369v-85h11l33 34h24l33 -34h11v34zM352 1268v-17l22 33v17zM273 1217l-12 -118h23l23 67 q-23 0 -23 51h-11zM295 1099l-34 -85l12 -50h11l23 117v18h-12zM93 980v-118h11q0 62 45 152v17h-12zM183 964l-34 -102h34l11 85v17h-11zM397 964l-23 -85l45 -51h22v51l-33 85h-11zM295 828h34l23 85h-11zM217 591l-34 -84v-17h11l45 101h-22zM194 456v-50q75 152 101 152 v33l-90 -135h-11zM183 287v-50q0 -125 34 -136v17l-12 85l12 17l-23 34v16l101 220h-11zM228 51h11l34 50v17z" />
<glyph unicode="g" horiz-adv-x="899" d="M640 1004h39q132 -144 132 -183l-26 -66q22 0 53 -265l-13 -66l13 -50l-13 -99l13 16h13l13 -16v-17l-39 -232l39 -16q-124 -398 -251 -398q0 -27 -92 -66q-476 0 -476 282v16q39 83 92 83q81 0 212 -182l-13 -17h13q225 0 225 232l131 232v17l-157 -183l-14 17l40 83v16 l-119 -99h-27q-344 32 -344 298q-25 0 -39 199q0 189 277 364h67q50 0 145 -83q6 80 106 183zM579 954l-53 -116v-17l105 133h-52zM644 871q0 -38 -105 -199h-13l-39 34h-93l-53 16q-145 0 -185 -265q34 0 40 -83q77 -87 171 -99l53 50h26v-50h14q106 40 106 182 q0 182 -146 182v33h67q92 -49 92 -132q48 49 105 215v17h-13q0 -42 -53 -50l-13 -16v-34h26v-33l-65 -16v49l92 149v50h-14zM314 838v-33l27 -33l26 33h-26l13 16v34zM539 772v-17q52 33 52 100zM261 821l-39 -99h13l53 66v33h-27zM394 821v-33l26 -49l40 16l-14 17v16 l14 17zM711 706l-53 -150l66 83v67h-13zM103 672l-40 -66v-50h13q0 67 53 67v16zM143 606l-80 -132v-17h27l66 133v16h-13zM724 507l-53 -149h13l66 99v17zM591 440q0 -167 -145 -248v-50q139 102 172 249l-13 49h-14zM76 374v-16h14l26 33v16h-13zM156 358q0 -50 -53 -50 v-33h13l66 50zM196 308l-40 -83l13 -16h13l53 33v16zM724 308v-66h13v66h-13zM552 192v-33l66 83v16h-13q-26 0 -26 -66h-27zM235 142h26q93 57 93 83l-66 17zM354 159h13l67 66h-27q-44 -16 -53 -66zM711 209l-53 -100h13l40 17v-17l-14 -49h14l39 49v100h-39zM314 142 l-13 -16v-33h53l66 16l-13 17v16l-13 -16h-53l-13 16h-14zM579 -90l-13 17l-27 -116q57 0 185 215zM724 -40l-40 -83h27q30 0 39 83h-26zM37 -222v-17h13l93 83v17l-53 16q-53 -16 -53 -99zM631 -189v-17l40 50h-13zM196 -189l-53 -116h13l66 99l-14 17h-12zM499 -305v-16 h14l53 33v82zM76 -272v-33h27v66zM208 -305v-16h14l27 66h-14q-27 0 -27 -50zM618 -272v-33l40 17v33zM420 -288q0 -67 -53 -67v-33h14q47 31 65 100h-26zM261 -305l-12 -66l39 50v16h-27zM420 -388v-16h26v-17l80 33v33h-53z" />
<glyph unicode="h" horiz-adv-x="1104" d="M247 1273q87 0 152 -314v-63h30q0 85 152 110q244 0 335 -267l15 -173l-15 -142l15 -15h15q-45 -378 -137 -378v-15h-30q0 63 -91 63q-31 104 -31 330l15 62l-15 63l31 32v15l-16 -15h-45q0 52 45 110l-106 63q-213 -61 -213 -189l16 -63q-31 -71 -31 -204v-16l15 -94 q0 -104 -106 -173h-30q-50 0 -76 157l-16 16l31 141l-15 16v16l15 15v16l-15 16l15 78l-15 63l15 63v16l-61 346l30 31v94l-15 110q86 79 137 79zM156 1179v-63h15l76 94v16q-91 -10 -91 -47zM277 1179l-60 -142l91 94v16zM323 1084l-76 -173v-15h15q8 63 46 63h15l-46 -126 v-16h16q0 42 76 79v15q-31 46 -31 173h-15zM156 911v-62l121 188v16zM551 959l-30 -63v-16l91 79h-61zM596 849h31q0 37 76 94v16q-72 -36 -107 -110zM627 817l-15 16h-31v-16h31l-16 -16v-31h46q0 39 61 110v16zM748 896l-60 -95h15l91 48v-48l-30 -47v-15l76 47 q-31 85 -76 110h-16zM293 739v-16l76 94v16zM460 754v-15h15l46 47v15h-16zM672 723v-16l46 47h-15zM824 676v-16l46 16v47zM718 629v-16l76 31v63zM186 660v-16l31 32v15zM308 629h15l30 31h-15zM247 629l-46 -95v-15h16l60 110h-30zM688 377l15 -94h15q0 43 137 173l30 31 v16h-30q0 -38 -122 -142l-15 16v63l106 157v16q-136 -113 -136 -236zM794 487v-16l91 110v32zM201 393h16q55 78 91 78v63h-15zM293 409l-76 -142v-16q45 0 45 63l46 16v79h-15zM855 361q-98 -125 -152 -125v-63h30q0 41 137 188h-15zM840 267h45v47zM232 110l76 94v32 q-76 -70 -76 -126zM764 141v-47q60 16 60 79z" />
<glyph unicode="i" horiz-adv-x="514" d="M225 1221h48l98 -94v-31q-77 -94 -195 -94h-49l-32 31v31l16 -15h33v15q-49 0 -49 79l49 47l48 -32q0 63 33 63zM192 1111v-31q74 30 81 63v31h-16zM290 924h16l48 -47l-16 -63l16 -16v-31h-16l16 -235v-78q-17 -454 -146 -454h-16l-65 157h17l-17 15v16q0 78 33 78 l-16 78l16 63l-33 63l17 94l-17 93l17 79l-33 94l65 47l16 -47h16q0 56 82 94zM192 783l16 -16h17v47zM273 501l-32 -78v-16h16q0 31 49 31v63h-33zM208 360l-16 -63q33 0 33 47v16h-17zM273 266q0 -47 -48 -47l16 -62l-16 -47l-17 15h-32l16 -47l16 16l17 -16h32l49 188 h-33z" />
<glyph unicode="j" horiz-adv-x="510" d="M308 1008l11 -14v-27q-43 0 -43 -28v-28l76 97h32q31 -14 31 -83v-27q0 -22 -85 -83h-11q-55 0 -64 41v55q0 78 53 97zM308 898v-14h22l11 14h11v-14l32 14v41l-11 14v14q-45 -19 -65 -69zM298 732h43q85 -89 85 -151l-11 -42l11 -83v-41l-11 -14l33 -289l-11 -55 l11 -111q0 -217 -129 -344l-118 -28q-105 55 -128 152q47 151 107 151l11 -55h21q43 0 43 138h11l-11 97v27q0 301 21 441l-21 28v55q19 124 43 124zM276 581l65 96v14h-22q-32 0 -43 -110zM352 663v-27l-11 -14l11 -14h21v-14l-21 -82h32l10 55l-32 96h-10zM319 539v-41h11 l11 41h-22zM384 498l-32 -124q42 14 42 82v42h-10zM276 277h22l32 138q-54 -55 -54 -138zM276 222l11 -83h11q0 38 75 180h-11zM394 222l-10 -69h21v-14l-21 -82l10 -42l-10 -69q31 14 31 83v55l-10 138h-11zM298 98l-11 14h-11v-14l11 -69h11l64 152v13zM287 -40v-27l11 13 q51 111 75 111v13h-11q-21 0 -75 -110zM341 -26q0 -36 -75 -138v-14q47 0 86 124h10v28h-21zM373 -109l-128 -276l139 262v14h-11zM116 -247l53 42v41h-11q-42 -28 -42 -83zM308 -343h11q33 15 86 151v28zM158 -233l-21 -55v-14l43 69h-22zM201 -233l-21 -55v-14h11l21 55 v14h-11zM255 -233q0 -41 -32 -41l-11 -14v-28h22l32 69v14h-11zM191 -371v-14l32 -13v41z" />
<glyph unicode="k" horiz-adv-x="1026" d="M374 1345l58 -164l-29 -377l15 -50h14q311 312 353 312l58 16l29 -65q0 -82 -190 -361v-49q220 -235 220 -427l-14 -16v-16l14 -66q-54 -49 -103 -49h-29l-147 147q0 66 -74 66l16 82q-30 0 -30 82q-59 23 -59 82l-117 -98l15 -17v-16q-62 -361 -118 -361h-29 q-90 0 -132 131v66q0 404 44 721l-14 17v16l14 148l-14 16l29 99v49l-15 16v17h15q29 0 29 -50q54 99 191 99zM271 1296l-29 -115v-33h14v33q45 9 89 115h-74zM212 1230l-29 -115v-16h15l29 115v16h-15zM359 1214l-14 -66v-16h14l29 32v50h-29zM301 1181l-133 -213v-82 q50 40 147 278v17h-14zM329 1082l-175 -328l-15 -164v-82h15l102 230h-14q-29 -75 -59 -82l-15 49l177 361v16h-16zM741 1000v-32l14 -17v-16q-122 -121 -249 -410l279 426l-15 49h-29zM623 869v-16h15l44 82v16q-31 -7 -59 -82zM271 787v-16l88 131v16zM741 869l-73 -131 v-16q28 4 87 147h-14zM345 836l-74 -164v-16h15q0 39 88 131v17zM549 804l-146 -148l-29 -82h29l176 230h-30zM374 476h14l15 16q45 33 45 82h28v49zM535 476v-17h30q0 59 58 131v17q-23 0 -88 -131zM638 558l-44 -99v-16h15q18 98 73 98v17h-44zM139 459v-115h15l73 197 l-59 -82h-29zM579 361h30l73 115v16zM711 476l-73 -132h14l89 99zM315 443l-29 -99h29l14 82v17h-14zM785 394l-44 -82l73 32v17zM242 377l-44 -147h14l59 98v16zM696 361l-28 -33l-30 -33v-49h14l74 115h-30zM125 197h29q0 65 44 115v16h-15q-38 0 -58 -131zM829 312 l-30 -82h15l58 16q-21 66 -43 66zM682 180l29 -32q0 41 59 114v17zM242 230q-31 -67 -103 -115q0 -46 103 -82q59 87 59 147v17h-30q0 -73 -59 -131l-14 16l58 148h-14zM741 115l44 -33h29l15 115z" />
<glyph unicode="l" horiz-adv-x="522" d="M230 1390h49q76 0 147 -196v-131q0 -196 -33 -196l16 -17v-16l-16 -311l16 -16v-16l-49 -278h33q-53 -213 -180 -213v16q-89 0 -131 311l17 131v16l-33 49l33 49v17l-17 114h17l-17 17v16q12 540 49 540l-16 49h16l17 -17h16q0 48 66 82zM148 1177v-81q26 0 82 114 l-17 49l66 66l-17 16h-16q-98 -66 -98 -164zM295 1243v-17l49 50h-16zM279 1047h16q82 65 82 147v16q-29 0 -98 -163zM246 1128q-115 -120 -115 -229v-163h17l32 114h-32v17q0 77 114 261h-16zM295 998h49v49zM344 932l-147 -278q33 0 33 49l81 82h49v114l17 17v16h-33z M344 736l-49 -115v-16l65 65v66h-16zM148 540v-66l147 213h-16zM328 540l-66 -131v-17l66 -16l-33 49v17q49 0 49 32v66h-16zM131 294h33q0 55 49 115v16q-55 -40 -82 -131zM311 360l-16 -66h16l33 33v33h-33zM164 229v-33h-16q26 -131 65 -131h17v49q0 33 -50 33v49l17 17 v16h-33zM328 229l-49 -98v-49h16l49 98v49h-16z" />
<glyph unicode="m" horiz-adv-x="1569" d="M625 1199h116q149 -116 149 -240q123 203 248 203h66q143 -101 183 -221h32v-18l-16 -93l34 -37v-73l16 -314q0 -306 -133 -369h-65l-83 92l32 480l-15 55l15 56l-116 110l-49 -37l-33 37l16 19h-16q-62 0 -100 -203v-240q50 0 50 -37v-37q-54 -62 -82 -277l-116 -37h-34 l-82 111v129l-17 111l49 203v55l-115 240q-147 0 -200 -203l-32 -258v-258q-13 -148 -116 -148l-116 111v55l16 19l-16 18v18q0 941 116 941l82 19l51 -166h15q150 184 266 184zM443 1015v-56h32q80 167 167 167v18h-50q-54 0 -100 -92q-49 0 -49 -37zM674 1107v-18l50 55 h-16zM1204 1089q-54 -166 -99 -166v-37l166 147zM161 996v-18q44 12 83 92h-16zM758 1033l16 -18h16l17 18v37h-17zM807 720h33q111 184 233 184l82 166h-17q-180 -75 -331 -350zM475 904h17l100 129v19zM691 1052l-99 -129v-19h16q71 61 100 148h-17zM145 720l16 -19h16 l100 295q-132 -110 -132 -276zM310 978l-33 -129q33 0 50 110v19h-17zM1204 830h17l116 93l-17 55q-61 -42 -116 -148zM824 959q0 -116 -116 -184v-111l149 222h-33v37h33v36h-33zM642 830v-55l116 148v18zM1138 849h17l34 37h-17zM1221 775l34 -37q0 59 98 111v37z M1353 830q0 -55 -82 -129h33l83 74l-16 55h-18zM161 461l100 148v-19q0 -90 -132 -239l16 -19v-18l-16 -19v-37h16q165 332 214 554q-70 0 -198 -351zM1238 627v-147h17l116 203v18h-18q-74 -74 -115 -74zM857 664q0 -47 -166 -258v-19q183 123 183 222v55h-17zM708 535v-18 h16l34 37l49 73v19zM1320 498l83 56l-16 55q-67 -37 -67 -111zM261 443q0 -62 -50 -129v-56l66 93v92h-16zM1304 314h16l83 73v56h-16q-27 0 -83 -129zM840 424l-16 -73q33 0 33 55v18h-17zM1238 387v-55l82 92h-16zM674 314q0 -240 116 -240l-16 18v56q100 103 100 184 l-133 -74l-17 19v18l66 92v19zM1221 240v-37q10 -111 50 -111h33l33 37l-17 19v18l67 129h-16zM145 203v-74q0 -42 83 -55v18l33 56v18l-66 -55h-34v18l34 56z" />
<glyph unicode="n" horiz-adv-x="1108" d="M194 1185h54l125 -74l-36 -111h18l215 166h107q197 0 340 -407v-129q0 -62 54 -130v-74q0 -241 -54 -241v19l18 222q-45 0 -53 -74l17 -19v-18l-35 -148h18l17 18h18v-37l-53 -92q-156 0 -215 166l-18 130l36 55q-25 389 -90 389l-18 -18l-17 18l17 19v37h-89 q-251 -189 -251 -778l-143 -74q-107 193 -107 278v315l18 314l-18 19h-18q0 153 143 259zM105 1018l18 -148h17q27 148 108 148l-18 56l18 55l-18 19q-60 0 -107 -130h-18zM552 1037q82 36 90 74h-36q-27 0 -54 -74zM695 1092l-36 -92v-19l108 56v18l-36 37h-36zM785 1055 l-18 -129q81 36 89 74zM427 852l18 -19h18l161 185h-18q-54 0 -54 -55q-125 -45 -125 -111zM642 907v-18h53l36 74v18q-82 -36 -89 -74zM284 944l-54 -111v-37q27 0 54 74h35v37zM749 833l18 -55h18l89 148h-18zM874 852h18l36 37h-18zM194 593v-19h18q0 58 90 111l35 37v93 q-65 -38 -143 -222zM928 796l-72 -129v-19q108 43 108 74v37zM373 741l-125 -241v-19h18l143 260h-36zM176 704l-71 -130h35l54 130h-18zM928 611l-108 -204q86 108 162 130l-18 74h-36zM284 463l-108 -222h18l54 18v-18l-36 -167h54l53 370l-17 19h-18zM123 426v-204h17 l18 148l-18 56h-17zM820 204q27 -74 54 -74h18l-18 18v19l36 129z" />
<glyph unicode="o" horiz-adv-x="1010" d="M490 1097l115 -15h116q0 -41 132 -150q115 -137 115 -209v-30q0 -433 -396 -509h-49q-305 0 -446 239q-33 66 -33 210q0 214 264 404q182 30 182 60zM374 992v-30l149 45q33 0 33 -60h16q0 45 66 45v30l-115 15zM193 797v-15h16l149 165v15q-144 -115 -165 -165zM424 932 v-15h82v45h-16zM242 947l-16 -15v-15l49 15v15h-33zM556 887l16 -15h33l17 75zM638 857l17 -15h16l33 90q-66 -15 -66 -75zM704 842v-30l50 -44l66 134h-17q-49 -60 -99 -60zM242 693q39 -270 99 -270l83 -15h82q172 0 248 150q-33 284 -231 284l-66 15q-182 -40 -182 -134z M127 797l-33 -104v-15h16q8 60 50 60l-17 59h-16zM770 753v-90q42 0 83 119zM160 678q49 11 66 60h-17zM770 648l17 -75l66 60v30zM193 648q0 -50 -50 -105v-15q44 10 83 75v15zM110 618l-16 -60v-15h16l33 60v15h-33zM869 603q0 -44 -313 -284l-17 -15v-15h17l181 119 l66 -15l-16 15v15q82 99 99 165v15h-17zM110 438v-15h33l50 75v15zM226 513l-33 -75l49 15v60h-16zM160 379l16 -45q38 0 50 74zM275 393l-33 -44v-30l66 60l-16 14h-17zM341 274v-15l132 105h-49zM523 364q-79 -105 -132 -105l33 -30h49q0 54 66 120v15h-16zM292 304v-15 h33l16 60zM688 349l-198 -135h16q159 0 198 135h-16z" />
<glyph unicode="p" horiz-adv-x="1010" d="M152 1062h47l62 -68v-17l-15 -17l15 -17v-17l-15 -51h15q150 142 297 170h93q250 -94 250 -273q22 0 31 -187q0 -453 -359 -562l-140 -17l-140 119l-15 -170l15 -154q-58 -153 -156 -153l-78 545l16 85l-16 137l16 85l-16 17v17l47 358h31v-69h15l63 120l-32 34l32 34 h-63l-15 -85h-31q10 136 46 136zM636 994l-32 -85h16l47 34h31l32 -34q-32 -86 -63 -86v-17h31l63 69h15q32 0 32 -120l46 34q0 127 -218 205zM558 960q0 -51 -47 -51l-15 -17v-34h15l62 85v17h-15zM215 755v-17l31 -68q62 105 234 256h-16zM620 858v-17h31l16 51h-16z M246 398l15 -52l-15 -17q109 -71 109 -119q375 91 375 307l15 68q0 51 -47 51l16 85l-47 34l-63 -17v68h-77v-34l-47 51q-166 0 -234 -425zM730 789v-34h31v68zM121 704v-17h16l15 68q-31 0 -31 -51zM761 585h15l78 136v17q-93 -42 -93 -153zM870 687l-47 -153l62 34v119 h-15zM215 653l-94 -221q125 127 125 170l-16 51h-15zM745 415v-51h16q0 51 93 85l31 68v17h-15zM183 415l-46 -154h31l31 85v69h-16zM636 108h15q105 46 172 170l31 103zM215 278l-63 -136h16l93 102l-31 34h-15zM496 193l-16 -68l62 68h-46zM215 40l46 17v102 q-31 0 -46 -119zM480 74v-17h47l93 34l-16 51q-75 -68 -124 -68zM121 6l78 102v17q-78 -51 -78 -119zM402 125v-34l47 17v17h-47zM230 -28l-15 -68v-17h15l16 68v17h-16zM152 -113v-18h16l15 69q-31 0 -31 -51zM152 -182v-17l16 -85l-16 -17h31l16 119h-47z" />
<glyph unicode="q" horiz-adv-x="1024" d="M744 1053h14q168 0 168 -492v-17l-14 -82h28v-16l-28 -99q14 -144 42 -180l-28 -50v-115l14 -65q-42 -58 -42 -181l-112 -131q-111 55 -111 410v33q154 263 181 263l15 -17v66q-161 -159 -183 -263l-251 -115q-315 0 -364 493q0 241 210 443q82 75 167 98q0 -54 238 -65 q0 48 56 82zM744 1004l-41 -99l83 -16q0 33 42 33l14 16v16q-51 50 -98 50zM227 840v-17h14l98 49v50h-15zM618 922l-83 -66v-49h13q63 27 98 98l-13 17h-15zM450 889v-33h15l42 49h-15zM842 889v-33h-14l14 -16v-17l-56 -164h14l84 82l-13 82v66h-29zM605 757v-32l83 98 h-13zM730 823l-42 -82h15l41 49h14v33h-28zM156 593l15 -16h14l98 213v17q-52 0 -127 -214zM269 626l14 -16v-17l-29 -98q40 -279 196 -279l127 98l13 -16h15l41 82v164l-84 115l15 49h-15l-83 33v33h41v16h-41l-14 -16l-28 33q-128 -60 -168 -181zM660 610v-17h15l111 148 v33q-94 -83 -126 -164zM842 593v-16h29l27 66v32zM101 462q28 -43 28 -148q23 0 84 214v16h-14q0 -49 -28 -49h-15v82q-41 0 -41 -115h-14zM675 429h28l70 132h-15q-83 -56 -83 -132zM842 528q0 -32 -224 -263l-126 -180h15q119 33 321 377l14 -66q21 0 42 66h-13l-15 -16 h-14v65h29v17h-29zM199 396v-16l28 33v16zM185 314q0 -49 -29 -49l15 -66h14l28 115h-28zM241 314l-14 -16v-66h14l28 66l-15 16h-13zM297 249v-99l42 49zM800 85v-17h14l84 115v49zM213 150l41 -16l15 16l-15 49zM394 183l-13 -66h13l43 50v16h-43zM450 117v-16l42 49h15 v33zM311 101v-16h28l13 65zM716 85v-50q22 0 42 66zM716 -30q0 -105 57 -296h27l-14 82l85 99v33l-71 -66h-27q0 78 83 131v33q-83 -64 -83 -115h-43v33l43 82z" />
<glyph unicode="r" horiz-adv-x="692" d="M190 1126q117 -17 117 -123q77 106 168 106h39q91 0 91 -141q-26 0 -26 53l-13 17h-13v-52h26l-26 -106l26 -35v-35l-39 35h-13v-18l26 -35h52l13 88h13v-88l-39 -53h-13q-78 0 -78 71h-52l-116 -36v-228l-26 -53v-53q0 -440 -143 -440q-53 49 -91 370q39 756 117 756z M190 1074q-65 -242 -65 -458v-18h13l39 106h-26v35q0 68 104 317zM397 1003v-17l91 52v36q-69 0 -91 -71zM475 880v-18h39v36zM229 862v-52l39 17v53zM307 810h13l51 17v35h-13q-51 -26 -51 -52zM281 774l-39 -193q19 0 39 70h26l-13 123h-13zM177 598q0 -52 -26 -52l-13 17 h-13l-13 -141v-35h13l65 194v17h-13zM203 387v-35q78 62 78 158v36zM216 246l13 18h13l13 -18v-17l-52 -141h13q52 0 65 299q-65 -78 -65 -141z" />
<glyph unicode="s" horiz-adv-x="702" d="M419 1258q163 -71 166 -147l12 21h23l25 -84v-83l-60 -84l-106 63q-60 -98 -60 -148h60q87 0 94 -62l-12 -21q107 0 107 -294v-21q-124 -398 -368 -398q-249 55 -249 272q0 165 71 231h48q117 -188 202 -188l35 62h12l12 -20h12q0 41 59 41l12 64q-32 151 -154 230 l-120 -63v21l-34 -21q-31 6 -84 147v125q0 322 297 357zM372 1196v-22l23 -42q0 42 36 42v22h-59zM158 881v-21h12q0 48 95 272h-12q-95 -84 -95 -251zM431 1006v-20h12l59 105v20zM170 818v-42l24 -42q0 58 59 210v21h12l11 -21h12l36 104v22q-31 -64 -71 -64 q-41 -188 -83 -188zM514 1027v-41l83 -42l12 21v21zM300 901l-83 -188h71l-23 63l47 105h12v20h-24zM300 755v-21h12q12 126 60 126v41q-36 -11 -72 -146zM502 734l-12 -84l35 63l-11 21h-12zM585 671l-24 -126l59 42q-17 84 -35 84zM502 567h12l35 62v21h-11q-19 0 -36 -83 zM609 503v-62l23 41v21h-23zM479 210h11q24 83 59 83l-11 22v42l35 125zM87 293q12 -126 35 -126l12 85l-24 41v22l60 104l11 -62l-11 -85v-20l36 41h11v-41l-23 -63v-22h12l70 105h12v-41l-23 -64v-20l71 125q-166 58 -166 190q-83 -43 -83 -169zM573 315h12l24 42h-12z M383 167v-20h12q8 105 59 105v41q-40 -16 -71 -126zM502 167h12l59 105v21zM347 252v-63l25 42v21h-25zM372 105l-36 21l-24 -42l-36 21v-42l167 42v62z" />
<glyph unicode="t" horiz-adv-x="674" d="M376 1368q76 -35 83 -71v-71l-17 -267l17 18h100l66 -89v-18l-116 -124h-116v-142q0 -320 116 -320l116 18l50 -89q0 -213 -315 -213h-17q-70 0 -117 302l17 18v18q-49 119 -99 461l-17 -17h-17q-66 28 -66 124v18q42 94 133 142l17 -18l49 195l-17 18v18l17 53l17 -18 h33zM293 1261l-16 18h-17v-178l116 160l17 -18h33v18h-33l17 18v35h-50zM410 1226l-101 -267h34q5 71 67 71l16 125v71h-16zM78 870h16l100 107v36h-17q-99 -37 -99 -143zM160 888v-35l83 71v17zM442 924v-36h17l17 18h17l16 -18v-18q0 -53 -99 -53v-18h99q0 36 50 36l16 18 v35l-33 53zM293 870l16 -17h17l17 53h-17zM260 853q0 -53 -66 -89l16 -107h33l-17 89q28 0 67 107h-33zM309 693l-32 -36l16 -71l50 18v89h-34zM293 551l-33 -71v-36q28 0 49 89v18h-16zM326 320l-49 -89v-18h16q29 0 50 89v18h-17zM376 266v-17l34 35v18zM442 266l-16 -53 v-18h16l17 54v17h-17zM509 213v-18q50 0 50 -71l66 71v54h-83zM426 178q0 -53 -66 -89v35h-34v-17l34 -71q46 0 82 124v18h-16zM459 89v-18h50l16 71h-16z" />
<glyph unicode="u" horiz-adv-x="1059" d="M828 1221h15q94 -61 94 -213l-31 -116l62 -504q-22 -369 -93 -369l-16 -19h-62q-78 26 -78 233q-158 -163 -295 -194q-296 114 -296 368l-16 97v252l-31 58v19h31v39h-31v39q0 155 125 252q113 0 171 -175l-47 -484l31 -175h32l46 39h16v-19l-16 -58q45 5 202 155 q47 0 78 290l-16 194q0 143 125 291zM734 988l16 -135h15l78 310zM828 911v-39q62 26 62 175v58q-31 0 -62 -194zM143 756h31l94 310h-16q-109 -80 -109 -310zM268 892l47 38l15 -19v116h-15q-37 0 -47 -135zM828 853l-78 -213v-20h15l32 116h31q0 -79 -47 -155l16 -19v-19 q0 -58 -63 -58l16 -20v-19h-16l16 -20v-19q0 -58 -156 -194v-19h31q139 119 187 329l47 39h16q0 -105 -78 -213v-20q31 0 31 59l15 19h32v-19l-16 -20v-19l31 -39l-125 -194l47 -58h31l32 39v19l-47 20q24 77 47 77h15v-39l16 20h15l-15 97l15 19l-15 19l15 97v20h-31 l31 155v19l-15 -19h-31l15 97v19l-47 136h-15zM237 795q0 -72 -78 -155l-16 -117q27 -232 63 -232l15 135q-47 0 -47 39q37 175 94 271v20zM299 775l-31 -155l47 58v97h-16zM284 485l-32 -136l63 77l-16 59h-15zM641 407v-78l31 39v39h-31zM221 252l47 -58l16 135zM315 291 v-39l31 39v38zM579 329l-155 -213h46q83 0 124 194v19h-15zM781 310l-16 -58v-19h16l16 58v19h-16zM393 194v-39l93 97v19q-93 -39 -93 -77zM315 174l31 -38l15 97z" />
<glyph unicode="v" horiz-adv-x="993" d="M225 1390q102 -154 157 -417q122 -149 122 -347h17q123 487 279 695q139 0 139 -232q-335 -1081 -400 -1089h-53q-156 167 -278 626l-87 231l17 23l-87 348q0 106 174 162zM138 1158v-23h17l53 139v70q-70 -19 -70 -186zM695 996v-23h18q0 70 34 70l35 -47 q24 162 105 162v24l-52 69q-140 -125 -140 -255zM190 1182l-52 -163q35 0 70 139v24h-18zM208 1043v-47l69 116v70zM312 996l-35 -139l87 23h18v-23q0 -73 -70 -185v-23q79 92 122 92q0 64 -104 255h-18zM190 811h35l35 162q-35 0 -70 -162zM556 626l17 -93h18l87 347 q-26 0 -105 -254h-17zM243 672l34 -46l35 162zM399 695l-87 -162v-70l122 209v23h-35zM451 649l-17 -70v-23h17l35 46v47h-35zM695 649q0 -172 -156 -371l-53 23v-23l-52 -69l70 -139q65 0 243 579h-52zM330 348l52 -70l104 185v93q-101 -208 -139 -208h-17zM504 255h17v-46 l-35 -47h-17v47z" />
<glyph unicode="w" horiz-adv-x="1415" d="M710 1280h34q218 -54 218 -442l35 -242h33q111 604 286 639l34 -66q-64 -514 -202 -816q-54 -309 -186 -309h-33q-55 29 -185 419q-10 221 -51 221q-62 -92 -168 -552l-101 -132q-253 0 -253 375l-134 574q66 224 117 264q85 0 203 -529l-17 -22h-17l-17 22l-33 -221v-22 h17q0 88 33 88h17v-22q-46 -190 -84 -198h-17v176h-50v-22q66 -293 101 -309l67 375l-17 133h50l17 -22h17q132 496 286 640zM727 1235q-126 -157 -151 -308v-22h16l68 198h33v-198h17q45 176 85 176v-44l-102 -243v-44h51q45 287 84 287v-66l-50 -287v-66h17q8 221 67 264 v-22l-34 -198l51 44v-66q37 0 50 242l-17 89h-17v-44h-33v22l33 110l-16 22h-17l-17 -22q0 176 -118 176zM962 419v155l-16 -22h-17v22l17 88v22h-17l-34 -110v-45l17 23h17v-45l-84 -198q34 0 34 -66h33q0 162 50 176l35 -44v-22l-68 -199v-44h50l51 265l-16 66 q106 0 167 530h51v-44h17l51 242q-107 0 -236 -617zM138 1125q0 -59 -51 -132q26 -243 67 -243l17 221h35v-89l33 45v66q-50 0 -50 44l-18 -22h-33v44h33v66h-33zM643 993l-185 -728q-34 0 -34 -111h-51l51 309v66l-17 -22l-17 -66h-17l17 -22v-44l-33 -176v-133l16 22h17 l17 -22h17q96 180 185 552h17l-17 22v22l51 243v88h-17zM256 905l-17 -133l34 44v89h-17zM542 860l-17 -66v-22h17l17 66v22h-17zM1148 529h33l85 309q-68 0 -118 -309zM508 750l-33 -132h33l17 88v44h-17zM138 706q16 -199 51 -199l-18 111l18 88h-51zM256 684l-34 -155 v-22h17l34 155v22h-17zM811 507v-66h17l17 66h-34zM1081 353l-17 -110l33 44v66h-16z" />
<glyph unicode="x" horiz-adv-x="1010" d="M238 1419h56q92 0 210 -399q280 355 362 355q76 -34 76 -67v-22l-19 -111l38 -44v-22l-38 -45l-20 22q-75 -244 -152 -244q0 -66 -95 -66q305 -436 305 -599q-81 -88 -152 -88q-38 0 -324 332q-233 -421 -381 -421l-38 89q0 187 210 598l-191 399l-19 89q38 244 172 244z M161 1352l-37 -221q49 -143 94 -156l76 355l-56 -44v22l19 22v22h-96zM313 1330l-19 -155h38l39 44v89zM675 1175l20 -66l-20 -111l134 177h19v-66h19l38 177v22h-19zM218 1264v-67h-38v22zM390 1175l-38 -177l76 66l19 -111h19v111q-38 0 -38 89l-19 22h-19zM751 1064 l-114 -244v-22q133 109 133 244v22h-19zM294 1042l-37 -177q31 0 56 155v22h-19zM599 975l-95 -310v-22h19l95 310v22h-19zM371 953l-77 -155l38 -44l58 177v22h-19zM409 865l-115 -244q-170 -419 -170 -510l18 22h19v-44h19l58 66v22h-20l-57 -44v44l267 643v45h-19z M466 798l-172 -554h38q0 54 96 177l-19 22l76 333v22h-19zM599 732l-38 -222v-22h19q0 66 76 177l-19 67h-38zM714 599l-58 -156v-22l95 133zM580 399q42 0 76 177q-42 0 -76 -177zM276 466l-38 -156v-22h19l37 133v45h-18zM733 443l-58 -110q33 -100 134 -178h19l75 67 q0 75 -75 199v22q-28 0 -58 -88q96 0 96 -89h-19l-19 22h-19l-76 -22l-19 22v22l37 111v22h-18z" />
<glyph unicode="y" horiz-adv-x="868" d="M720 1001h58q44 -17 44 -98q-158 -637 -204 -637l-14 146h-15v-163l15 17h14v-17l-73 -179q-211 -457 -392 -457l-15 -17q-145 33 -145 163v50q61 114 87 114h44l58 -49h15q50 0 73 179v17q-117 283 -219 653v33q0 147 116 228h44q131 -146 131 -228h15l-15 -16v-148 q40 -142 73 -163q164 555 291 555zM473 527l14 -17q-6 -65 -43 -65v-49h43l-14 -245v-114h14l73 179q-44 0 -58 229v49h29v-16l14 -164l15 17h14l-14 16v17l14 16l-14 16l29 327h29v-65l-14 -16l14 -17v-131l15 -82h15q18 180 58 180v50h-29v48h14l15 -16h14v49l-14 -16h-15 v131q44 -17 44 -98h14l15 65l-15 114l29 33l-14 16h-44q-146 -98 -218 -441h-29zM197 919v-98l14 17h15v-17q-54 -235 -88 -244l73 -278h15l44 278h-29q0 -148 -44 -148l-15 16v65q29 214 73 262v33q0 88 -58 114zM95 805v-49q0 -121 43 -131l15 213zM270 772l-29 -147v-16 h14q0 73 58 114l-14 49h-29zM299 577l-15 -148v-17h15l29 82l-15 83h-14zM357 412q-34 -244 -58 -244l-15 16l15 -81l-15 -17l29 -147h15l58 408v33zM429 380l-14 -81v-83h29v164h-15zM226 282l58 -81l29 163q-25 0 -43 -82h-44zM400 -12l-87 -212h15l116 179v17zM22 -224 l29 -98h29l15 65l-15 147q-23 0 -58 -114zM109 -126l15 -147h14q10 82 73 82v32l-87 33h-15zM255 -175q0 -54 -58 -147h29l58 33l-14 114h-15z" />
<glyph unicode="z" horiz-adv-x="727" d="M229 1302l275 -46l30 23q0 -46 41 -46v-22l-51 -137v22l10 23v23h-30q0 46 30 46v23h-51v-69h21v-23q-32 0 -62 -114v-23l51 69h21l-21 -137h11l101 251v-46l-254 -616l-10 -115l10 -68l214 68l81 -137q0 -36 -81 -114v-23l-41 23l-92 -91l-10 23h-10l-71 -69h-10l-21 46 l-10 -23h-20l-133 -23l-81 46v23l31 205l-11 23l214 640q0 45 31 45l10 23v46h-10q-81 -92 -133 -92h-91q0 46 40 46l-10 114v23q22 96 92 160zM168 1119v-23l112 115v45q-112 -74 -112 -137zM392 1142v-23h10l51 46v46h-31zM188 1028h51l61 137v23q-112 -96 -112 -160z M270 754v-23l122 206l40 137v22q-30 0 -162 -342zM432 937l-20 -46l-31 -92h11l71 138h-31zM229 685l-31 -137v-23h10l31 115v45h-10zM310 457l-20 -137v-23q41 37 41 160h-21zM137 365l-51 -274l31 -22l10 22h10l10 -22h11l91 228h-10l-61 -91h-20l-11 159h-10zM381 160h11 l81 91l10 -68q46 91 71 91v46h-122q-51 -69 -51 -160zM575 297l10 -69l20 46l-10 23h-20zM219 91h30l21 92v23zM290 114v-23h10l31 23v46z" />
<glyph unicode="{" horiz-adv-x="1014" d="M240 698q172 5 223 71t51 133v468q0 74 77 141.5t185 67.5h108v-50h-90q-61 0 -107 -33.5t-47 -91.5v-500q0 -83 -60.5 -158.5t-142.5 -76.5v-2q82 -1 143 -76t61 -158l-1 -500q1 -58 47 -91.5t107 -33.5h90v-50h-108q-108 0 -184.5 67.5t-77.5 141.5v468q0 66 -51 132 t-223 71v60z" />
<glyph unicode="|" horiz-adv-x="1014" d="M427 1577h160v-1995h-160v1995z" />
<glyph unicode="}" horiz-adv-x="1014" d="M774 638q-172 -5 -223 -71t-51 -132v-468q-1 -74 -77.5 -141.5t-184.5 -67.5h-108v50h90q61 0 107 33.5t47 91.5l-1 500q0 83 61 158t144 76v2q-83 1 -143.5 76.5t-60.5 158.5v500q-1 58 -47 91.5t-107 33.5h-90v50h108q108 0 185 -67.5t77 -141.5v-468q0 -67 51 -133 t223 -71v-60z" />
<glyph unicode="~" horiz-adv-x="1014" d="M923 878v-156q-63 -72 -122 -97.5t-116 -25.5q-60 0 -177.5 48.5t-176.5 48.5q-51 0 -107.5 -28t-129.5 -112v156q64 73 123 99t114 26q64 0 181.5 -49.5t172.5 -49.5q52 0 108.5 28t129.5 112z" />
<glyph unicode="&#xa1;" d="M584 1341h63v-31q-166 0 -268 -95h15q66 47 300 63q474 -58 474 -126l189 -426l-16 -16v-16l16 -15q-7 -98 -79 -190l16 -63q0 -143 -410 -347l-253 -79h-79v32h32q663 197 663 378l-16 16h-16q-229 -316 -757 -316q-160 0 -379 206h-16q116 -284 284 -284h79v-32h-95 q-285 0 -331 536v48q0 464 268 584q158 173 316 173zM505 1120h16l236 63l-15 16l-48 16v16q-109 -37 -189 -111zM221 947q263 236 315 236v16h-15q-300 -63 -300 -252zM805 1199q0 -44 -426 -173q-237 -192 -237 -363v-79q0 -178 158 -253q0 117 473 269l126 -16l95 16 l16 -16v-16l-47 -63l-64 16q-375 -43 -457 -127q-56 0 -126 -78q73 -48 315 -64q316 0 442 237q79 105 79 174v63l-47 173h15q58 0 79 -236q0 -131 -221 -347v-16h16q174 95 221 205l32 47v237q-83 256 -190 300v-16q63 -91 63 -142h-31q-115 268 -221 268l-16 -16h-16 l-15 16h-16zM1026 1183v-15q39 0 110 -63v15q0 31 -95 63h-15zM142 915v-16h16l47 158q-54 0 -63 -142zM899 1010q79 -47 79 -111l-15 -47l31 -31q-107 -95 -173 -95q-84 0 -95 158l47 31q0 -142 32 -142h16v16l-16 79l47 31h16l-16 -78v-16h32l47 126l-47 47h-16l-95 -63 v32q0 41 126 63zM79 931l-47 -363v-32h15l63 395h-31zM489 868q0 -32 47 -32l16 -15v-16q-89 -142 -173 -142h-16l-32 31v32q0 85 63 110h32v-15q-63 -56 -63 -111h31l79 79v32q-47 0 -47 31zM1294 742v-127h16v127h-16zM95 505v-32q0 -98 79 -173v31q-64 95 -64 174h-15z M221 331v-15q47 -142 221 -142h79l158 15l-16 16v16l-16 -16h-63l-16 16l-16 -16q-203 22 -331 126zM757 189h16l111 32v16q-127 -16 -127 -48z" />
<glyph unicode="&#xa2;" d="M584 1341h63v-31q-166 0 -268 -95h15q66 47 300 63q474 -58 474 -126l189 -426l-16 -16v-16l16 -15q-7 -98 -79 -190l16 -63q0 -143 -410 -347l-253 -79h-79v32h32q663 197 663 378l-16 16h-16q-229 -316 -757 -316q-160 0 -379 206h-16q116 -284 284 -284h79v-32h-95 q-285 0 -331 536v48q0 464 268 584q158 173 316 173zM505 1120h16l236 63l-15 16l-48 16v16q-109 -37 -189 -111zM221 947q263 236 315 236v16h-15q-300 -63 -300 -252zM805 1199q0 -44 -426 -173q-237 -192 -237 -363v-79q0 -178 158 -253q0 117 473 269l126 -16l95 16 l16 -16v-16l-47 -63l-64 16q-375 -43 -457 -127q-56 0 -126 -78q73 -48 315 -64q316 0 442 237q79 105 79 174v63l-47 173h15q58 0 79 -236q0 -131 -221 -347v-16h16q174 95 221 205l32 47v237q-83 256 -190 300v-16q63 -91 63 -142h-31q-115 268 -221 268l-16 -16h-16 l-15 16h-16zM1026 1183v-15q39 0 110 -63v15q0 31 -95 63h-15zM142 915v-16h16l47 158q-54 0 -63 -142zM899 1010q79 -47 79 -111l-15 -47l31 -31q-107 -95 -173 -95q-84 0 -95 158l47 31q0 -142 32 -142h16v16l-16 79l47 31h16l-16 -78v-16h32l47 126l-47 47h-16l-95 -63 v32q0 41 126 63zM79 931l-47 -363v-32h15l63 395h-31zM489 868q0 -32 47 -32l16 -15v-16q-89 -142 -173 -142h-16l-32 31v32q0 85 63 110h32v-15q-63 -56 -63 -111h31l79 79v32q-47 0 -47 31zM1294 742v-127h16v127h-16zM95 505v-32q0 -98 79 -173v31q-64 95 -64 174h-15z M221 331v-15q47 -142 221 -142h79l158 15l-16 16v16l-16 -16h-63l-16 16l-16 -16q-203 22 -331 126zM757 189h16l111 32v16q-127 -16 -127 -48z" />
<glyph unicode="&#xa3;" horiz-adv-x="1014" d="M375 1421h98q258 -35 258 -155l36 -51v-68l-12 -86h-24q-25 0 -25 86l-12 17h-25l25 -137v-34h-12l-62 154l-110 17q-98 -17 -98 -154v-52q0 -102 110 -102l37 -52h-24l-50 17q-122 -42 -122 -85h12l110 51q25 0 25 -51l49 17l37 -17l-25 51v34h13l36 -51v-34 q-53 -107 -135 -137l-24 34q-37 -68 -86 -291q172 -23 172 -85h98l233 102h36l25 -34v-85q-133 -223 -294 -223l-12 -17q-25 0 -25 68q-125 18 -172 69h-73q-44 -51 -208 -86q0 35 49 35v17l-25 51q-53 -17 -61 -86h-12l-13 18v51q56 108 111 325q24 0 24 86l12 17h13 l24 -34h12v68l-36 -17q-172 29 -172 85q0 112 74 172h85l-24 308q0 94 159 274zM253 1164v-52q102 206 147 206q0 34 61 34v17h-74q-133 -162 -134 -205zM522 1369v-17l49 -17q0 34 -36 34h-13zM620 1318l37 -52h37q0 35 -74 52zM412 1284l-12 -18v-17h12l37 17v18h-37z M351 1112v-51h24v86zM155 804l-25 -34v-34l37 51v17h-12zM204 702h36v34h-12zM363 616v-68h12l12 68h-24zM314 496v-34l24 34v35zM216 411l-25 -120q28 0 37 86v34h-12zM265 394l-49 -206v-17h12q0 51 37 51l-25 52v17q37 0 37 86v17h-12zM878 325v-34l-13 -17l13 -17l36 17 v51h-36zM682 222l24 -34h25q82 103 110 103v17h-12zM314 274l-25 -103h37q0 69 61 69v34h-73zM559 154v-17l74 -17l12 17v34zM228 120h37v34h-12zM718 103v-17h49v34h-12z" />
<glyph unicode="&#xa4;" horiz-adv-x="1014" d="M350 560q41 -40 99 -57q29 -8 58 -8t58 8q58 17 99 57q40 41 57 99q9 29 9 58t-9 58q-17 58 -57 99q-41 40 -100 57q-29 8 -58 8t-58 -9q-58 -17 -98 -56q-39 -40 -56 -98q-10 -30 -10 -60q0 -28 9 -56q16 -59 57 -100zM240 903l-118 118l80 81l118 -118q44 30 99 46 q44 14 89 14q41 0 83 -12q57 -17 102 -48l118 118l80 -81l-117 -117q31 -46 48 -102q12 -42 12 -85q0 -42 -12 -85q-17 -56 -48 -102l117 -117l-80 -81l-118 118q-45 -32 -101 -48q-42 -12 -85 -12q-42 0 -85 12q-57 16 -102 48l-118 -118l-80 81l118 117q-32 46 -48 103 q-12 42 -12 84q0 44 13 87q16 55 47 99z" />
<glyph unicode="&#xa5;" horiz-adv-x="1262" d="M290 1456q137 0 330 -386l15 -53l-15 -17l45 -35q182 345 330 456q75 -24 75 -123v-35q-99 -313 -375 -614l15 -53h-15l15 -17v-351q0 -202 -150 -228h-15q-75 0 -75 421l15 175q-33 106 -195 386q0 91 -121 193l-15 18v140q80 123 136 123zM199 1333v-17q0 -130 46 -141 v176h30v-53h15l30 105q-121 -21 -121 -70zM335 1403l15 -87l-15 -71l45 36l45 -53l-15 -70l45 35h15v-53l-15 -17l15 -88q75 53 75 123l-195 245h-15zM965 1351l30 -35l15 17v18h-45zM875 1281l-45 -141h15q30 0 45 123v18h-15zM935 1281v-53l30 -53l-15 -52h30l45 158 l-45 -36l-30 36h-15zM365 1210l-30 -105h45v105h-15zM890 1140q0 -144 -105 -193l15 -105l135 228l-30 70h-15zM560 1088l-15 -106v-17h15l30 70l-15 53h-15zM395 1000v-123h15l30 176zM590 965l-30 -123q60 29 60 123h-30zM695 947l-45 -193h15q41 0 60 193h-30zM455 877 l-15 -70v-18h15l15 71v17h-15zM515 614h30l60 193q-26 0 -90 -193zM560 561l-45 -158v-105q34 0 45 228l15 18v17h-15zM657 487l-30 -106v-17h30l30 123h-30zM620 246h45v105q-25 0 -45 -105zM530 211v-71l30 35v36h-30zM545 70v-17h15q90 48 90 140zM702 759v-19h83l-21 19 v18zM890 686l186 -8h165v-8l-41 -16h-144l-21 8h-21v-16q91 0 124 -31l-82 -16v-8q82 -4 82 -24l-20 -8h-21v8l-145 -24h-123l-207 -8v8l-330 -32h-83q-35 0 -62 40h-41v8l21 32l-21 8v8l21 8v8l-21 23h21q62 0 62 16l103 -8h20q281 0 578 32zM640 167v-12h62l42 24h-42z M867 407l186 -7h165v-7l-41 -14h-144l-21 7h-21v-14q91 0 124 -28l-82 -14v-7q82 -3 82 -21l-20 -7h-21v7l-145 -21h-123l-207 -7v7l-330 -28h-83q-35 0 -62 35h-41v7l21 28l-21 7v7l21 7v7l-21 21h21q62 0 62 14l103 -7h20q281 0 578 28zM867 370l42 -24h20v24h-62z M991 321v-25h62l-41 25h-21zM640 247v-12h62l42 24h-42z" />
<glyph unicode="&#xa6;" horiz-adv-x="1014" d="M427 371h160v-789h-160v789zM427 1578h160v-789h-160v789z" />
<glyph unicode="&#xa7;" horiz-adv-x="1014" d="M546 1435v-15l-14 -15v-14q170 -17 320 -160v-102q-36 -73 -131 -73l-87 160q-58 0 -58 29h29v15h-15q-43 -6 -102 -73h-14v-44h29l-29 -87q146 -146 174 -146l44 15l15 -15v-15l14 15h29q204 -113 204 -262h-14l14 -15v-15q-56 -218 -131 -247l-58 14q73 -68 102 -189 q-44 -215 -189 -321q-88 -58 -132 -58h-58q-350 87 -350 291q57 147 102 161h73q40 -12 117 -161l58 -58h29q117 63 117 160q0 50 -219 132l-29 29l-14 -15h-73q-142 0 -204 248l-44 58q32 263 131 263q-58 60 -58 145v29q90 321 393 321l15 15h14zM372 1333v-15h43v29z M488 1318v-44h15q29 29 116 29v15l-73 15zM299 1274v-14l43 43h-14zM430 1245l14 -14h30l-15 43zM153 1070q35 -116 58 -116l-14 116q0 46 58 117v73q-63 0 -102 -190zM678 1260v-15q55 -144 87 -146l44 59q0 102 -131 102zM401 1216l-15 -73l29 -73h15v117zM299 1172 l-15 -58h29v58h-14zM459 997v-14l73 -146h14v73l-72 87h-15zM109 808l29 -29q73 0 73 73h15l-15 58q-102 -68 -102 -102zM634 866v-14l44 -175h29v14q-29 44 -44 175h-29zM721 866l44 -102l58 29v30zM270 823v-30h14l44 30v-30l-29 -87q78 -123 204 -175l14 15h29 q0 -44 30 -44h87v14q-81 186 -277 292l-87 44zM590 852v-73h15v73h-15zM692 837v-14l15 -44h29l-29 58h-15zM168 750l29 -30v59zM109 764l-14 -58l14 -15h15l14 15v14l-14 44h-15zM809 764l-15 -58l15 -73h14l15 73v29zM619 706v-15l29 -29v15zM882 706l-30 -146h15 q44 15 44 88l-15 58h-14zM138 691l-14 -58q44 0 44 -44h14l15 59l-15 43h-44zM707 662v-29h-29l-15 15h-15v-15l44 -87h15l29 29v14l-15 73h-14zM211 633l15 -44h29l-15 44h-29zM197 560l29 -58h29v14l-44 44h-14zM765 531l-15 -44v-14h15l15 43v15h-15zM415 516v-14 q0 -33 73 -44v15q0 25 -73 43zM517 458q6 -39 73 -58v58h-73zM678 429v-15l29 30v14zM532 356v-14l87 -44h15v29l-29 29h-73zM721 327q12 -146 44 -146v59q0 75 -44 87zM794 254l-14 -146v-14h14l29 116l-14 44h-15zM270 225v-15l43 -14v29h-43zM182 79q50 -116 73 -116 l-15 73l30 131q-30 0 -30 43q-32 0 -58 -131zM328 167v-15q48 -126 146 -160h14v14q-131 64 -131 161h-29zM648 123l15 -44l-29 -58h14l30 29v88l-15 -15h-15zM284 94v-29q0 -57 102 -146h29zM721 79q0 -65 -58 -131v-14q102 37 102 145h-44zM561 21v-15h29l15 44h-15z M532 -52h-29v-44q131 28 131 59zM503 -125v-29h58v29h-58z" />
<glyph unicode="&#xa8;" horiz-adv-x="1024" d="M223 1289l71 72q13 12 25 12q11 0 27 -14l69 -73q10 -14 10 -25q0 -13 -12 -27l-69 -75q-17 -17 -25 -17q-14 0 -25 12l-76 86q-9 12 -9 23q0 13 14 26zM588 1289l71 72q13 12 25 12q11 0 27 -13l69 -74q10 -14 10 -25q0 -13 -12 -26l-69 -76q-17 -17 -25 -17 q-14 0 -25 12l-76 87q-9 11 -9 22q0 13 14 26z" />
<glyph unicode="&#xa9;" horiz-adv-x="1674" d="M864 972q131 0 182 -158q-16 -45 -55 -70h-36l-27 30v20l27 69l-9 -10h-18v20h-19v-20q28 0 28 -19q-18 0 -18 -50h-19q-58 40 -90 40q-58 0 -109 -109l-18 -69q21 -119 54 -119l36 10l37 -10l45 49h9l9 -10h9q46 70 82 70q72 -12 72 -40v-59q-71 -139 -172 -139 q0 -20 -45 -20l-9 10l-9 -10h-9q-173 34 -173 159q-27 0 -27 158q0 214 272 277zM855 913v-10l36 29h-18zM782 903v-10h10l27 30h-18zM928 923l9 -40h9l9 30l-9 10h-18zM864 883q0 -20 -27 -20v-20l36 40h-9zM982 883l-18 -40v-9q27 0 27 39v10h-9zM792 853v-10l18 20v10z M737 863q0 -22 -54 -89v-30h9l54 109v10h-9zM882 863l-9 -39h18l9 39h-18zM656 834l-10 -10v-20h10l18 20v10h-18zM1000 834l-36 -60h18q19 4 36 50l-9 10h-9zM637 725l-9 -50l28 40h18v10h-37zM656 675l-28 -89q20 0 37 79v10h-9zM646 527v-10l37 20l-9 10v19l9 10l-9 30 q-28 -6 -28 -79zM955 596q0 -30 -46 -30l10 -10v-9l-10 -10v-20h10q0 43 63 59l9 -10v-19q-27 0 -27 -20v-10l45 49v10q0 20 -54 30v-10zM656 497l9 -30h9l9 40h-9l-9 -10h-9zM701 507l-9 -40h9l27 30zM855 497q0 -31 -54 -69l-19 20l19 39h-9q-40 -24 -55 -69l82 -10l36 10 v30l9 39v10h-9zM909 477l-18 -39h9q46 12 46 29zM810 1566l80 -22v22q374 0 602 -372q80 -140 80 -306v-176l20 -87q0 -419 -541 -722q-161 -66 -321 -66q-413 0 -562 394v44h-20l-20 -22h-20l-20 22q0 869 522 1225q0 35 200 66zM910 1478l-40 -131v-22h20l121 153h-101z M710 1303h100l40 154q-119 -87 -140 -154zM1091 1435l-60 -175q115 71 160 153l-100 44v-22zM148 515v-21h20q98 513 361 831l81 88q-299 -169 -442 -701zM930 1303l21 -22h40l20 110zM1111 1238l40 -44l40 109v22zM449 1106v-21l181 196v22h-20zM369 669q88 -504 341 -504 l20 -22h20q330 76 441 263l101 153v219q0 288 -241 394l-161 44l-140 -22v44h60v22h-60q-246 0 -361 -591h-20zM1191 1150q88 -31 161 -241v-262l20 22h20l-20 22v21q120 168 120 307v22h-20q0 -66 -40 -66h-20v66l20 153l-120 -88h-20v44l20 110h-20zM309 866l-20 -66h20 l20 22v44h-20zM1472 800q0 -137 -341 -569v-22h20q302 268 361 591h-40zM248 625v-66h41v66h-41zM208 362v-87h20q10 87 61 87l-20 22v22l20 88zM168 406v-22l40 44v22zM329 450l-40 -132v-21q40 0 40 65h20q40 0 40 -65l-20 -154q80 46 80 110l-80 197h-40zM1271 165h-20 v44l-160 -197v-22q327 242 401 416v22q-80 -36 -221 -263zM269 122v-22h20l40 153q-60 -22 -60 -131zM369 56l20 -66h40l40 175q-30 0 -60 -87h-40v-22zM509 165l-20 -87h20l60 65l-20 22h-40zM910 56v-22h20l81 131h-20q-54 -8 -81 -109zM670 -75v-22h80l140 219h-20 q-190 -143 -200 -197zM670 100l-40 -110v-22l100 110zM469 -32l80 -22l61 132h-21zM890 -97h20q54 0 121 153v22q-75 -28 -141 -175z" />
<glyph unicode="&#xaa;" d="M584 1341h63v-31q-166 0 -268 -95h15q66 47 300 63q474 -58 474 -126l189 -426l-16 -16v-16l16 -15q-7 -98 -79 -190l16 -63q0 -143 -410 -347l-253 -79h-79v32h32q663 197 663 378l-16 16h-16q-229 -316 -757 -316q-160 0 -379 206h-16q116 -284 284 -284h79v-32h-95 q-285 0 -331 536v48q0 464 268 584q158 173 316 173zM505 1120h16l236 63l-15 16l-48 16v16q-109 -37 -189 -111zM221 947q263 236 315 236v16h-15q-300 -63 -300 -252zM805 1199q0 -44 -426 -173q-237 -192 -237 -363v-79q0 -178 158 -253q0 117 473 269l126 -16l95 16 l16 -16v-16l-47 -63l-64 16q-375 -43 -457 -127q-56 0 -126 -78q73 -48 315 -64q316 0 442 237q79 105 79 174v63l-47 173h15q58 0 79 -236q0 -131 -221 -347v-16h16q174 95 221 205l32 47v237q-83 256 -190 300v-16q63 -91 63 -142h-31q-115 268 -221 268l-16 -16h-16 l-15 16h-16zM1026 1183v-15q39 0 110 -63v15q0 31 -95 63h-15zM142 915v-16h16l47 158q-54 0 -63 -142zM899 1010q79 -47 79 -111l-15 -47l31 -31q-107 -95 -173 -95q-84 0 -95 158l47 31q0 -142 32 -142h16v16l-16 79l47 31h16l-16 -78v-16h32l47 126l-47 47h-16l-95 -63 v32q0 41 126 63zM79 931l-47 -363v-32h15l63 395h-31zM489 868q0 -32 47 -32l16 -15v-16q-89 -142 -173 -142h-16l-32 31v32q0 85 63 110h32v-15q-63 -56 -63 -111h31l79 79v32q-47 0 -47 31zM1294 742v-127h16v127h-16zM95 505v-32q0 -98 79 -173v31q-64 95 -64 174h-15z M221 331v-15q47 -142 221 -142h79l158 15l-16 16v16l-16 -16h-63l-16 16l-16 -16q-203 22 -331 126zM757 189h16l111 32v16q-127 -16 -127 -48z" />
<glyph unicode="&#xab;" horiz-adv-x="944" d="M174 479l342 303h14v-37l-205 -266l205 -266v-37h-14zM487 479l342 303h14v-37l-205 -266l205 -266v-37h-14z" />
<glyph unicode="&#xac;" horiz-adv-x="1014" d="M87 767h840v-491l-1 -1h-98v392h-741v100z" />
<glyph unicode="&#xad;" horiz-adv-x="670" d="M338 685q258 -42 271 -85l-34 -24l-17 12h-17q0 -30 -203 -61q0 -18 -67 -36l-17 12h-17l-51 -12q-135 18 -135 85q0 97 152 97zM338 624v-12h85v25zM457 612v-12l51 -12v24h-51zM271 576h51v24h-17z" />
<glyph unicode="&#xae;" horiz-adv-x="1674" d="M751 1099v-374l3 -8q23 -56 56 -81q29 -22 56 -22h6q31 4 61.5 38.5t46.5 97.5q13 50 13 103q0 13 -1 27q-4 67 -28 124.5t-56.5 76t-63.5 18.5h-93zM984 576l82 -116q100 -141 150 -141h34v-50h-346v50h45q30 0 30 22q0 29 -69 114l-75 102q-42 0 -84 42v-159 q0 -121 36 -121h53v-50h-316v50h43q37 0 37 121v538q0 121 -37 121h-43v70h356q64 -1 125 -42q60 -41 92.5 -114t32.5 -152q0 -78 -32 -150.5t-114 -134.5zM840 1456q145 0 280 -56.5t239 -160.5q102 -101 158.5 -238t56.5 -283q0 -147 -56.5 -282t-162.5 -240 q-105 -105 -239 -159.5t-283 -54.5q-146 0 -278 55.5t-238 160.5q-106 104 -161.5 237.5t-55.5 282.5q0 148 55.5 283t159.5 238q102 104 238.5 160.5t286.5 56.5zM357 1197q-95 -96 -146 -219.5t-51 -259.5q0 -137 51 -259t148 -219q98 -96 219 -147t256 -51 q137 0 259.5 50.5t219.5 145.5q97 98 149 221.5t52 258.5q0 134 -52 259.5t-145 219.5q-96 96 -220 147.5t-258 51.5q-137 0 -262 -51.5t-220 -147.5z" />
<glyph unicode="&#xaf;" d="M584 1341h63v-31q-166 0 -268 -95h15q66 47 300 63q474 -58 474 -126l189 -426l-16 -16v-16l16 -15q-7 -98 -79 -190l16 -63q0 -143 -410 -347l-253 -79h-79v32h32q663 197 663 378l-16 16h-16q-229 -316 -757 -316q-160 0 -379 206h-16q116 -284 284 -284h79v-32h-95 q-285 0 -331 536v48q0 464 268 584q158 173 316 173zM505 1120h16l236 63l-15 16l-48 16v16q-109 -37 -189 -111zM221 947q263 236 315 236v16h-15q-300 -63 -300 -252zM805 1199q0 -44 -426 -173q-237 -192 -237 -363v-79q0 -178 158 -253q0 117 473 269l126 -16l95 16 l16 -16v-16l-47 -63l-64 16q-375 -43 -457 -127q-56 0 -126 -78q73 -48 315 -64q316 0 442 237q79 105 79 174v63l-47 173h15q58 0 79 -236q0 -131 -221 -347v-16h16q174 95 221 205l32 47v237q-83 256 -190 300v-16q63 -91 63 -142h-31q-115 268 -221 268l-16 -16h-16 l-15 16h-16zM1026 1183v-15q39 0 110 -63v15q0 31 -95 63h-15zM142 915v-16h16l47 158q-54 0 -63 -142zM899 1010q79 -47 79 -111l-15 -47l31 -31q-107 -95 -173 -95q-84 0 -95 158l47 31q0 -142 32 -142h16v16l-16 79l47 31h16l-16 -78v-16h32l47 126l-47 47h-16l-95 -63 v32q0 41 126 63zM79 931l-47 -363v-32h15l63 395h-31zM489 868q0 -32 47 -32l16 -15v-16q-89 -142 -173 -142h-16l-32 31v32q0 85 63 110h32v-15q-63 -56 -63 -111h31l79 79v32q-47 0 -47 31zM1294 742v-127h16v127h-16zM95 505v-32q0 -98 79 -173v31q-64 95 -64 174h-15z M221 331v-15q47 -142 221 -142h79l158 15l-16 16v16l-16 -16h-63l-16 16l-16 -16q-203 22 -331 126zM757 189h16l111 32v16q-127 -16 -127 -48z" />
<glyph unicode="&#xb0;" horiz-adv-x="674" d="M339 1372q-86 0 -147.5 -61t-61.5 -148t61 -147t148 -60t147 60t60 147t-60.5 148t-146.5 61zM339 1442q115 0 196 -81.5t81 -196.5q0 -114 -82 -196t-197 -82q-117 0 -197 81t-80 197t81.5 197t197.5 81z" />
<glyph unicode="&#xb1;" d="M584 1341h63v-31q-166 0 -268 -95h15q66 47 300 63q474 -58 474 -126l189 -426l-16 -16v-16l16 -15q-7 -98 -79 -190l16 -63q0 -143 -410 -347l-253 -79h-79v32h32q663 197 663 378l-16 16h-16q-229 -316 -757 -316q-160 0 -379 206h-16q116 -284 284 -284h79v-32h-95 q-285 0 -331 536v48q0 464 268 584q158 173 316 173zM505 1120h16l236 63l-15 16l-48 16v16q-109 -37 -189 -111zM221 947q263 236 315 236v16h-15q-300 -63 -300 -252zM805 1199q0 -44 -426 -173q-237 -192 -237 -363v-79q0 -178 158 -253q0 117 473 269l126 -16l95 16 l16 -16v-16l-47 -63l-64 16q-375 -43 -457 -127q-56 0 -126 -78q73 -48 315 -64q316 0 442 237q79 105 79 174v63l-47 173h15q58 0 79 -236q0 -131 -221 -347v-16h16q174 95 221 205l32 47v237q-83 256 -190 300v-16q63 -91 63 -142h-31q-115 268 -221 268l-16 -16h-16 l-15 16h-16zM1026 1183v-15q39 0 110 -63v15q0 31 -95 63h-15zM142 915v-16h16l47 158q-54 0 -63 -142zM899 1010q79 -47 79 -111l-15 -47l31 -31q-107 -95 -173 -95q-84 0 -95 158l47 31q0 -142 32 -142h16v16l-16 79l47 31h16l-16 -78v-16h32l47 126l-47 47h-16l-95 -63 v32q0 41 126 63zM79 931l-47 -363v-32h15l63 395h-31zM489 868q0 -32 47 -32l16 -15v-16q-89 -142 -173 -142h-16l-32 31v32q0 85 63 110h32v-15q-63 -56 -63 -111h31l79 79v32q-47 0 -47 31zM1294 742v-127h16v127h-16zM95 505v-32q0 -98 79 -173v31q-64 95 -64 174h-15z M221 331v-15q47 -142 221 -142h79l158 15l-16 16v16l-16 -16h-63l-16 16l-16 -16q-203 22 -331 126zM757 189h16l111 32v16q-127 -16 -127 -48z" />
<glyph unicode="&#xb2;" d="M584 1341h63v-31q-166 0 -268 -95h15q66 47 300 63q474 -58 474 -126l189 -426l-16 -16v-16l16 -15q-7 -98 -79 -190l16 -63q0 -143 -410 -347l-253 -79h-79v32h32q663 197 663 378l-16 16h-16q-229 -316 -757 -316q-160 0 -379 206h-16q116 -284 284 -284h79v-32h-95 q-285 0 -331 536v48q0 464 268 584q158 173 316 173zM505 1120h16l236 63l-15 16l-48 16v16q-109 -37 -189 -111zM221 947q263 236 315 236v16h-15q-300 -63 -300 -252zM805 1199q0 -44 -426 -173q-237 -192 -237 -363v-79q0 -178 158 -253q0 117 473 269l126 -16l95 16 l16 -16v-16l-47 -63l-64 16q-375 -43 -457 -127q-56 0 -126 -78q73 -48 315 -64q316 0 442 237q79 105 79 174v63l-47 173h15q58 0 79 -236q0 -131 -221 -347v-16h16q174 95 221 205l32 47v237q-83 256 -190 300v-16q63 -91 63 -142h-31q-115 268 -221 268l-16 -16h-16 l-15 16h-16zM1026 1183v-15q39 0 110 -63v15q0 31 -95 63h-15zM142 915v-16h16l47 158q-54 0 -63 -142zM899 1010q79 -47 79 -111l-15 -47l31 -31q-107 -95 -173 -95q-84 0 -95 158l47 31q0 -142 32 -142h16v16l-16 79l47 31h16l-16 -78v-16h32l47 126l-47 47h-16l-95 -63 v32q0 41 126 63zM79 931l-47 -363v-32h15l63 395h-31zM489 868q0 -32 47 -32l16 -15v-16q-89 -142 -173 -142h-16l-32 31v32q0 85 63 110h32v-15q-63 -56 -63 -111h31l79 79v32q-47 0 -47 31zM1294 742v-127h16v127h-16zM95 505v-32q0 -98 79 -173v31q-64 95 -64 174h-15z M221 331v-15q47 -142 221 -142h79l158 15l-16 16v16l-16 -16h-63l-16 16l-16 -16q-203 22 -331 126zM757 189h16l111 32v16q-127 -16 -127 -48z" />
<glyph unicode="&#xb3;" d="M584 1341h63v-31q-166 0 -268 -95h15q66 47 300 63q474 -58 474 -126l189 -426l-16 -16v-16l16 -15q-7 -98 -79 -190l16 -63q0 -143 -410 -347l-253 -79h-79v32h32q663 197 663 378l-16 16h-16q-229 -316 -757 -316q-160 0 -379 206h-16q116 -284 284 -284h79v-32h-95 q-285 0 -331 536v48q0 464 268 584q158 173 316 173zM505 1120h16l236 63l-15 16l-48 16v16q-109 -37 -189 -111zM221 947q263 236 315 236v16h-15q-300 -63 -300 -252zM805 1199q0 -44 -426 -173q-237 -192 -237 -363v-79q0 -178 158 -253q0 117 473 269l126 -16l95 16 l16 -16v-16l-47 -63l-64 16q-375 -43 -457 -127q-56 0 -126 -78q73 -48 315 -64q316 0 442 237q79 105 79 174v63l-47 173h15q58 0 79 -236q0 -131 -221 -347v-16h16q174 95 221 205l32 47v237q-83 256 -190 300v-16q63 -91 63 -142h-31q-115 268 -221 268l-16 -16h-16 l-15 16h-16zM1026 1183v-15q39 0 110 -63v15q0 31 -95 63h-15zM142 915v-16h16l47 158q-54 0 -63 -142zM899 1010q79 -47 79 -111l-15 -47l31 -31q-107 -95 -173 -95q-84 0 -95 158l47 31q0 -142 32 -142h16v16l-16 79l47 31h16l-16 -78v-16h32l47 126l-47 47h-16l-95 -63 v32q0 41 126 63zM79 931l-47 -363v-32h15l63 395h-31zM489 868q0 -32 47 -32l16 -15v-16q-89 -142 -173 -142h-16l-32 31v32q0 85 63 110h32v-15q-63 -56 -63 -111h31l79 79v32q-47 0 -47 31zM1294 742v-127h16v127h-16zM95 505v-32q0 -98 79 -173v31q-64 95 -64 174h-15z M221 331v-15q47 -142 221 -142h79l158 15l-16 16v16l-16 -16h-63l-16 16l-16 -16q-203 22 -331 126zM757 189h16l111 32v16q-127 -16 -127 -48z" />
<glyph unicode="&#xb4;" horiz-adv-x="1024" d="M607 1375q35 35 55.5 47t40.5 12q33 0 53.5 -20t20.5 -51q0 -22 -15.5 -42t-46.5 -40l-330 -203h-69z" />
<glyph unicode="&#xb5;" d="M584 1341h63v-31q-166 0 -268 -95h15q66 47 300 63q474 -58 474 -126l189 -426l-16 -16v-16l16 -15q-7 -98 -79 -190l16 -63q0 -143 -410 -347l-253 -79h-79v32h32q663 197 663 378l-16 16h-16q-229 -316 -757 -316q-160 0 -379 206h-16q116 -284 284 -284h79v-32h-95 q-285 0 -331 536v48q0 464 268 584q158 173 316 173zM505 1120h16l236 63l-15 16l-48 16v16q-109 -37 -189 -111zM221 947q263 236 315 236v16h-15q-300 -63 -300 -252zM805 1199q0 -44 -426 -173q-237 -192 -237 -363v-79q0 -178 158 -253q0 117 473 269l126 -16l95 16 l16 -16v-16l-47 -63l-64 16q-375 -43 -457 -127q-56 0 -126 -78q73 -48 315 -64q316 0 442 237q79 105 79 174v63l-47 173h15q58 0 79 -236q0 -131 -221 -347v-16h16q174 95 221 205l32 47v237q-83 256 -190 300v-16q63 -91 63 -142h-31q-115 268 -221 268l-16 -16h-16 l-15 16h-16zM1026 1183v-15q39 0 110 -63v15q0 31 -95 63h-15zM142 915v-16h16l47 158q-54 0 -63 -142zM899 1010q79 -47 79 -111l-15 -47l31 -31q-107 -95 -173 -95q-84 0 -95 158l47 31q0 -142 32 -142h16v16l-16 79l47 31h16l-16 -78v-16h32l47 126l-47 47h-16l-95 -63 v32q0 41 126 63zM79 931l-47 -363v-32h15l63 395h-31zM489 868q0 -32 47 -32l16 -15v-16q-89 -142 -173 -142h-16l-32 31v32q0 85 63 110h32v-15q-63 -56 -63 -111h31l79 79v32q-47 0 -47 31zM1294 742v-127h16v127h-16zM95 505v-32q0 -98 79 -173v31q-64 95 -64 174h-15z M221 331v-15q47 -142 221 -142h79l158 15l-16 16v16l-16 -16h-63l-16 16l-16 -16q-203 22 -331 126zM757 189h16l111 32v16q-127 -16 -127 -48z" />
<glyph unicode="&#xb6;" horiz-adv-x="1024" d="M929 1435v-70h-127v-1365h-82v1365h-166v-1365h-84v738q-174 8 -275.5 102.5t-101.5 245.5q0 157 107.5 253t285.5 96h443z" />
<glyph unicode="&#xb7;" horiz-adv-x="508" d="M145 740l82 84q15 14 29 14q13 0 31 -16l80 -86q12 -16 12 -29q0 -15 -14 -31l-80 -88q-20 -20 -29 -20q-16 0 -29 14l-88 101q-10 13 -10 26q0 15 16 31z" />
<glyph unicode="&#x2219;" horiz-adv-x="508" d="M145 740l82 84q15 14 29 14q13 0 31 -16l80 -86q12 -16 12 -29q0 -15 -14 -31l-80 -88q-20 -20 -29 -20q-16 0 -29 14l-88 101q-10 13 -10 26q0 15 16 31z" />
<glyph unicode="&#xb8;" horiz-adv-x="1024" d="M360 -290q85 -52 152 -52q66 0 94.5 21.5t28.5 66.5t-49 64q-40 16 -102 16q-16 0 -34 -2l48 176h63l-37 -104q32 4 62 5q86 0 134 -40.5t48 -113.5q0 -76 -58.5 -120.5t-160.5 -44.5q-109 0 -189 32v96z" />
<glyph unicode="&#xb9;" d="M584 1341h63v-31q-166 0 -268 -95h15q66 47 300 63q474 -58 474 -126l189 -426l-16 -16v-16l16 -15q-7 -98 -79 -190l16 -63q0 -143 -410 -347l-253 -79h-79v32h32q663 197 663 378l-16 16h-16q-229 -316 -757 -316q-160 0 -379 206h-16q116 -284 284 -284h79v-32h-95 q-285 0 -331 536v48q0 464 268 584q158 173 316 173zM505 1120h16l236 63l-15 16l-48 16v16q-109 -37 -189 -111zM221 947q263 236 315 236v16h-15q-300 -63 -300 -252zM805 1199q0 -44 -426 -173q-237 -192 -237 -363v-79q0 -178 158 -253q0 117 473 269l126 -16l95 16 l16 -16v-16l-47 -63l-64 16q-375 -43 -457 -127q-56 0 -126 -78q73 -48 315 -64q316 0 442 237q79 105 79 174v63l-47 173h15q58 0 79 -236q0 -131 -221 -347v-16h16q174 95 221 205l32 47v237q-83 256 -190 300v-16q63 -91 63 -142h-31q-115 268 -221 268l-16 -16h-16 l-15 16h-16zM1026 1183v-15q39 0 110 -63v15q0 31 -95 63h-15zM142 915v-16h16l47 158q-54 0 -63 -142zM899 1010q79 -47 79 -111l-15 -47l31 -31q-107 -95 -173 -95q-84 0 -95 158l47 31q0 -142 32 -142h16v16l-16 79l47 31h16l-16 -78v-16h32l47 126l-47 47h-16l-95 -63 v32q0 41 126 63zM79 931l-47 -363v-32h15l63 395h-31zM489 868q0 -32 47 -32l16 -15v-16q-89 -142 -173 -142h-16l-32 31v32q0 85 63 110h32v-15q-63 -56 -63 -111h31l79 79v32q-47 0 -47 31zM1294 742v-127h16v127h-16zM95 505v-32q0 -98 79 -173v31q-64 95 -64 174h-15z M221 331v-15q47 -142 221 -142h79l158 15l-16 16v16l-16 -16h-63l-16 16l-16 -16q-203 22 -331 126zM757 189h16l111 32v16q-127 -16 -127 -48z" />
<glyph unicode="&#xba;" d="M584 1341h63v-31q-166 0 -268 -95h15q66 47 300 63q474 -58 474 -126l189 -426l-16 -16v-16l16 -15q-7 -98 -79 -190l16 -63q0 -143 -410 -347l-253 -79h-79v32h32q663 197 663 378l-16 16h-16q-229 -316 -757 -316q-160 0 -379 206h-16q116 -284 284 -284h79v-32h-95 q-285 0 -331 536v48q0 464 268 584q158 173 316 173zM505 1120h16l236 63l-15 16l-48 16v16q-109 -37 -189 -111zM221 947q263 236 315 236v16h-15q-300 -63 -300 -252zM805 1199q0 -44 -426 -173q-237 -192 -237 -363v-79q0 -178 158 -253q0 117 473 269l126 -16l95 16 l16 -16v-16l-47 -63l-64 16q-375 -43 -457 -127q-56 0 -126 -78q73 -48 315 -64q316 0 442 237q79 105 79 174v63l-47 173h15q58 0 79 -236q0 -131 -221 -347v-16h16q174 95 221 205l32 47v237q-83 256 -190 300v-16q63 -91 63 -142h-31q-115 268 -221 268l-16 -16h-16 l-15 16h-16zM1026 1183v-15q39 0 110 -63v15q0 31 -95 63h-15zM142 915v-16h16l47 158q-54 0 -63 -142zM899 1010q79 -47 79 -111l-15 -47l31 -31q-107 -95 -173 -95q-84 0 -95 158l47 31q0 -142 32 -142h16v16l-16 79l47 31h16l-16 -78v-16h32l47 126l-47 47h-16l-95 -63 v32q0 41 126 63zM79 931l-47 -363v-32h15l63 395h-31zM489 868q0 -32 47 -32l16 -15v-16q-89 -142 -173 -142h-16l-32 31v32q0 85 63 110h32v-15q-63 -56 -63 -111h31l79 79v32q-47 0 -47 31zM1294 742v-127h16v127h-16zM95 505v-32q0 -98 79 -173v31q-64 95 -64 174h-15z M221 331v-15q47 -142 221 -142h79l158 15l-16 16v16l-16 -16h-63l-16 16l-16 -16q-203 22 -331 126zM757 189h16l111 32v16q-127 -16 -127 -48z" />
<glyph unicode="&#xbb;" horiz-adv-x="944" d="M115 176h-14v37l205 266l-205 266v37h14l342 -303zM428 176h-14v37l205 266l-205 266v37h14l342 -303z" />
<glyph unicode="&#xbc;" d="M584 1341h63v-31q-166 0 -268 -95h15q66 47 300 63q474 -58 474 -126l189 -426l-16 -16v-16l16 -15q-7 -98 -79 -190l16 -63q0 -143 -410 -347l-253 -79h-79v32h32q663 197 663 378l-16 16h-16q-229 -316 -757 -316q-160 0 -379 206h-16q116 -284 284 -284h79v-32h-95 q-285 0 -331 536v48q0 464 268 584q158 173 316 173zM505 1120h16l236 63l-15 16l-48 16v16q-109 -37 -189 -111zM221 947q263 236 315 236v16h-15q-300 -63 -300 -252zM805 1199q0 -44 -426 -173q-237 -192 -237 -363v-79q0 -178 158 -253q0 117 473 269l126 -16l95 16 l16 -16v-16l-47 -63l-64 16q-375 -43 -457 -127q-56 0 -126 -78q73 -48 315 -64q316 0 442 237q79 105 79 174v63l-47 173h15q58 0 79 -236q0 -131 -221 -347v-16h16q174 95 221 205l32 47v237q-83 256 -190 300v-16q63 -91 63 -142h-31q-115 268 -221 268l-16 -16h-16 l-15 16h-16zM1026 1183v-15q39 0 110 -63v15q0 31 -95 63h-15zM142 915v-16h16l47 158q-54 0 -63 -142zM899 1010q79 -47 79 -111l-15 -47l31 -31q-107 -95 -173 -95q-84 0 -95 158l47 31q0 -142 32 -142h16v16l-16 79l47 31h16l-16 -78v-16h32l47 126l-47 47h-16l-95 -63 v32q0 41 126 63zM79 931l-47 -363v-32h15l63 395h-31zM489 868q0 -32 47 -32l16 -15v-16q-89 -142 -173 -142h-16l-32 31v32q0 85 63 110h32v-15q-63 -56 -63 -111h31l79 79v32q-47 0 -47 31zM1294 742v-127h16v127h-16zM95 505v-32q0 -98 79 -173v31q-64 95 -64 174h-15z M221 331v-15q47 -142 221 -142h79l158 15l-16 16v16l-16 -16h-63l-16 16l-16 -16q-203 22 -331 126zM757 189h16l111 32v16q-127 -16 -127 -48z" />
<glyph unicode="&#xbd;" d="M584 1341h63v-31q-166 0 -268 -95h15q66 47 300 63q474 -58 474 -126l189 -426l-16 -16v-16l16 -15q-7 -98 -79 -190l16 -63q0 -143 -410 -347l-253 -79h-79v32h32q663 197 663 378l-16 16h-16q-229 -316 -757 -316q-160 0 -379 206h-16q116 -284 284 -284h79v-32h-95 q-285 0 -331 536v48q0 464 268 584q158 173 316 173zM505 1120h16l236 63l-15 16l-48 16v16q-109 -37 -189 -111zM221 947q263 236 315 236v16h-15q-300 -63 -300 -252zM805 1199q0 -44 -426 -173q-237 -192 -237 -363v-79q0 -178 158 -253q0 117 473 269l126 -16l95 16 l16 -16v-16l-47 -63l-64 16q-375 -43 -457 -127q-56 0 -126 -78q73 -48 315 -64q316 0 442 237q79 105 79 174v63l-47 173h15q58 0 79 -236q0 -131 -221 -347v-16h16q174 95 221 205l32 47v237q-83 256 -190 300v-16q63 -91 63 -142h-31q-115 268 -221 268l-16 -16h-16 l-15 16h-16zM1026 1183v-15q39 0 110 -63v15q0 31 -95 63h-15zM142 915v-16h16l47 158q-54 0 -63 -142zM899 1010q79 -47 79 -111l-15 -47l31 -31q-107 -95 -173 -95q-84 0 -95 158l47 31q0 -142 32 -142h16v16l-16 79l47 31h16l-16 -78v-16h32l47 126l-47 47h-16l-95 -63 v32q0 41 126 63zM79 931l-47 -363v-32h15l63 395h-31zM489 868q0 -32 47 -32l16 -15v-16q-89 -142 -173 -142h-16l-32 31v32q0 85 63 110h32v-15q-63 -56 -63 -111h31l79 79v32q-47 0 -47 31zM1294 742v-127h16v127h-16zM95 505v-32q0 -98 79 -173v31q-64 95 -64 174h-15z M221 331v-15q47 -142 221 -142h79l158 15l-16 16v16l-16 -16h-63l-16 16l-16 -16q-203 22 -331 126zM757 189h16l111 32v16q-127 -16 -127 -48z" />
<glyph unicode="&#xbe;" d="M584 1341h63v-31q-166 0 -268 -95h15q66 47 300 63q474 -58 474 -126l189 -426l-16 -16v-16l16 -15q-7 -98 -79 -190l16 -63q0 -143 -410 -347l-253 -79h-79v32h32q663 197 663 378l-16 16h-16q-229 -316 -757 -316q-160 0 -379 206h-16q116 -284 284 -284h79v-32h-95 q-285 0 -331 536v48q0 464 268 584q158 173 316 173zM505 1120h16l236 63l-15 16l-48 16v16q-109 -37 -189 -111zM221 947q263 236 315 236v16h-15q-300 -63 -300 -252zM805 1199q0 -44 -426 -173q-237 -192 -237 -363v-79q0 -178 158 -253q0 117 473 269l126 -16l95 16 l16 -16v-16l-47 -63l-64 16q-375 -43 -457 -127q-56 0 -126 -78q73 -48 315 -64q316 0 442 237q79 105 79 174v63l-47 173h15q58 0 79 -236q0 -131 -221 -347v-16h16q174 95 221 205l32 47v237q-83 256 -190 300v-16q63 -91 63 -142h-31q-115 268 -221 268l-16 -16h-16 l-15 16h-16zM1026 1183v-15q39 0 110 -63v15q0 31 -95 63h-15zM142 915v-16h16l47 158q-54 0 -63 -142zM899 1010q79 -47 79 -111l-15 -47l31 -31q-107 -95 -173 -95q-84 0 -95 158l47 31q0 -142 32 -142h16v16l-16 79l47 31h16l-16 -78v-16h32l47 126l-47 47h-16l-95 -63 v32q0 41 126 63zM79 931l-47 -363v-32h15l63 395h-31zM489 868q0 -32 47 -32l16 -15v-16q-89 -142 -173 -142h-16l-32 31v32q0 85 63 110h32v-15q-63 -56 -63 -111h31l79 79v32q-47 0 -47 31zM1294 742v-127h16v127h-16zM95 505v-32q0 -98 79 -173v31q-64 95 -64 174h-15z M221 331v-15q47 -142 221 -142h79l158 15l-16 16v16l-16 -16h-63l-16 16l-16 -16q-203 22 -331 126zM757 189h16l111 32v16q-127 -16 -127 -48z" />
<glyph unicode="&#xbf;" d="M584 1341h63v-31q-166 0 -268 -95h15q66 47 300 63q474 -58 474 -126l189 -426l-16 -16v-16l16 -15q-7 -98 -79 -190l16 -63q0 -143 -410 -347l-253 -79h-79v32h32q663 197 663 378l-16 16h-16q-229 -316 -757 -316q-160 0 -379 206h-16q116 -284 284 -284h79v-32h-95 q-285 0 -331 536v48q0 464 268 584q158 173 316 173zM505 1120h16l236 63l-15 16l-48 16v16q-109 -37 -189 -111zM221 947q263 236 315 236v16h-15q-300 -63 -300 -252zM805 1199q0 -44 -426 -173q-237 -192 -237 -363v-79q0 -178 158 -253q0 117 473 269l126 -16l95 16 l16 -16v-16l-47 -63l-64 16q-375 -43 -457 -127q-56 0 -126 -78q73 -48 315 -64q316 0 442 237q79 105 79 174v63l-47 173h15q58 0 79 -236q0 -131 -221 -347v-16h16q174 95 221 205l32 47v237q-83 256 -190 300v-16q63 -91 63 -142h-31q-115 268 -221 268l-16 -16h-16 l-15 16h-16zM1026 1183v-15q39 0 110 -63v15q0 31 -95 63h-15zM142 915v-16h16l47 158q-54 0 -63 -142zM899 1010q79 -47 79 -111l-15 -47l31 -31q-107 -95 -173 -95q-84 0 -95 158l47 31q0 -142 32 -142h16v16l-16 79l47 31h16l-16 -78v-16h32l47 126l-47 47h-16l-95 -63 v32q0 41 126 63zM79 931l-47 -363v-32h15l63 395h-31zM489 868q0 -32 47 -32l16 -15v-16q-89 -142 -173 -142h-16l-32 31v32q0 85 63 110h32v-15q-63 -56 -63 -111h31l79 79v32q-47 0 -47 31zM1294 742v-127h16v127h-16zM95 505v-32q0 -98 79 -173v31q-64 95 -64 174h-15z M221 331v-15q47 -142 221 -142h79l158 15l-16 16v16l-16 -16h-63l-16 16l-16 -16q-203 22 -331 126zM757 189h16l111 32v16q-127 -16 -127 -48z" />
<glyph unicode="&#xc0;" d="M584 1341h63v-31q-166 0 -268 -95h15q66 47 300 63q474 -58 474 -126l189 -426l-16 -16v-16l16 -15q-7 -98 -79 -190l16 -63q0 -143 -410 -347l-253 -79h-79v32h32q663 197 663 378l-16 16h-16q-229 -316 -757 -316q-160 0 -379 206h-16q116 -284 284 -284h79v-32h-95 q-285 0 -331 536v48q0 464 268 584q158 173 316 173zM505 1120h16l236 63l-15 16l-48 16v16q-109 -37 -189 -111zM221 947q263 236 315 236v16h-15q-300 -63 -300 -252zM805 1199q0 -44 -426 -173q-237 -192 -237 -363v-79q0 -178 158 -253q0 117 473 269l126 -16l95 16 l16 -16v-16l-47 -63l-64 16q-375 -43 -457 -127q-56 0 -126 -78q73 -48 315 -64q316 0 442 237q79 105 79 174v63l-47 173h15q58 0 79 -236q0 -131 -221 -347v-16h16q174 95 221 205l32 47v237q-83 256 -190 300v-16q63 -91 63 -142h-31q-115 268 -221 268l-16 -16h-16 l-15 16h-16zM1026 1183v-15q39 0 110 -63v15q0 31 -95 63h-15zM142 915v-16h16l47 158q-54 0 -63 -142zM899 1010q79 -47 79 -111l-15 -47l31 -31q-107 -95 -173 -95q-84 0 -95 158l47 31q0 -142 32 -142h16v16l-16 79l47 31h16l-16 -78v-16h32l47 126l-47 47h-16l-95 -63 v32q0 41 126 63zM79 931l-47 -363v-32h15l63 395h-31zM489 868q0 -32 47 -32l16 -15v-16q-89 -142 -173 -142h-16l-32 31v32q0 85 63 110h32v-15q-63 -56 -63 -111h31l79 79v32q-47 0 -47 31zM1294 742v-127h16v127h-16zM95 505v-32q0 -98 79 -173v31q-64 95 -64 174h-15z M221 331v-15q47 -142 221 -142h79l158 15l-16 16v16l-16 -16h-63l-16 16l-16 -16q-203 22 -331 126zM757 189h16l111 32v16q-127 -16 -127 -48z" />
<glyph unicode="&#xc1;" d="M584 1341h63v-31q-166 0 -268 -95h15q66 47 300 63q474 -58 474 -126l189 -426l-16 -16v-16l16 -15q-7 -98 -79 -190l16 -63q0 -143 -410 -347l-253 -79h-79v32h32q663 197 663 378l-16 16h-16q-229 -316 -757 -316q-160 0 -379 206h-16q116 -284 284 -284h79v-32h-95 q-285 0 -331 536v48q0 464 268 584q158 173 316 173zM505 1120h16l236 63l-15 16l-48 16v16q-109 -37 -189 -111zM221 947q263 236 315 236v16h-15q-300 -63 -300 -252zM805 1199q0 -44 -426 -173q-237 -192 -237 -363v-79q0 -178 158 -253q0 117 473 269l126 -16l95 16 l16 -16v-16l-47 -63l-64 16q-375 -43 -457 -127q-56 0 -126 -78q73 -48 315 -64q316 0 442 237q79 105 79 174v63l-47 173h15q58 0 79 -236q0 -131 -221 -347v-16h16q174 95 221 205l32 47v237q-83 256 -190 300v-16q63 -91 63 -142h-31q-115 268 -221 268l-16 -16h-16 l-15 16h-16zM1026 1183v-15q39 0 110 -63v15q0 31 -95 63h-15zM142 915v-16h16l47 158q-54 0 -63 -142zM899 1010q79 -47 79 -111l-15 -47l31 -31q-107 -95 -173 -95q-84 0 -95 158l47 31q0 -142 32 -142h16v16l-16 79l47 31h16l-16 -78v-16h32l47 126l-47 47h-16l-95 -63 v32q0 41 126 63zM79 931l-47 -363v-32h15l63 395h-31zM489 868q0 -32 47 -32l16 -15v-16q-89 -142 -173 -142h-16l-32 31v32q0 85 63 110h32v-15q-63 -56 -63 -111h31l79 79v32q-47 0 -47 31zM1294 742v-127h16v127h-16zM95 505v-32q0 -98 79 -173v31q-64 95 -64 174h-15z M221 331v-15q47 -142 221 -142h79l158 15l-16 16v16l-16 -16h-63l-16 16l-16 -16q-203 22 -331 126zM757 189h16l111 32v16q-127 -16 -127 -48z" />
<glyph unicode="&#xc2;" d="M584 1341h63v-31q-166 0 -268 -95h15q66 47 300 63q474 -58 474 -126l189 -426l-16 -16v-16l16 -15q-7 -98 -79 -190l16 -63q0 -143 -410 -347l-253 -79h-79v32h32q663 197 663 378l-16 16h-16q-229 -316 -757 -316q-160 0 -379 206h-16q116 -284 284 -284h79v-32h-95 q-285 0 -331 536v48q0 464 268 584q158 173 316 173zM505 1120h16l236 63l-15 16l-48 16v16q-109 -37 -189 -111zM221 947q263 236 315 236v16h-15q-300 -63 -300 -252zM805 1199q0 -44 -426 -173q-237 -192 -237 -363v-79q0 -178 158 -253q0 117 473 269l126 -16l95 16 l16 -16v-16l-47 -63l-64 16q-375 -43 -457 -127q-56 0 -126 -78q73 -48 315 -64q316 0 442 237q79 105 79 174v63l-47 173h15q58 0 79 -236q0 -131 -221 -347v-16h16q174 95 221 205l32 47v237q-83 256 -190 300v-16q63 -91 63 -142h-31q-115 268 -221 268l-16 -16h-16 l-15 16h-16zM1026 1183v-15q39 0 110 -63v15q0 31 -95 63h-15zM142 915v-16h16l47 158q-54 0 -63 -142zM899 1010q79 -47 79 -111l-15 -47l31 -31q-107 -95 -173 -95q-84 0 -95 158l47 31q0 -142 32 -142h16v16l-16 79l47 31h16l-16 -78v-16h32l47 126l-47 47h-16l-95 -63 v32q0 41 126 63zM79 931l-47 -363v-32h15l63 395h-31zM489 868q0 -32 47 -32l16 -15v-16q-89 -142 -173 -142h-16l-32 31v32q0 85 63 110h32v-15q-63 -56 -63 -111h31l79 79v32q-47 0 -47 31zM1294 742v-127h16v127h-16zM95 505v-32q0 -98 79 -173v31q-64 95 -64 174h-15z M221 331v-15q47 -142 221 -142h79l158 15l-16 16v16l-16 -16h-63l-16 16l-16 -16q-203 22 -331 126zM757 189h16l111 32v16q-127 -16 -127 -48z" />
<glyph unicode="&#xc3;" d="M584 1341h63v-31q-166 0 -268 -95h15q66 47 300 63q474 -58 474 -126l189 -426l-16 -16v-16l16 -15q-7 -98 -79 -190l16 -63q0 -143 -410 -347l-253 -79h-79v32h32q663 197 663 378l-16 16h-16q-229 -316 -757 -316q-160 0 -379 206h-16q116 -284 284 -284h79v-32h-95 q-285 0 -331 536v48q0 464 268 584q158 173 316 173zM505 1120h16l236 63l-15 16l-48 16v16q-109 -37 -189 -111zM221 947q263 236 315 236v16h-15q-300 -63 -300 -252zM805 1199q0 -44 -426 -173q-237 -192 -237 -363v-79q0 -178 158 -253q0 117 473 269l126 -16l95 16 l16 -16v-16l-47 -63l-64 16q-375 -43 -457 -127q-56 0 -126 -78q73 -48 315 -64q316 0 442 237q79 105 79 174v63l-47 173h15q58 0 79 -236q0 -131 -221 -347v-16h16q174 95 221 205l32 47v237q-83 256 -190 300v-16q63 -91 63 -142h-31q-115 268 -221 268l-16 -16h-16 l-15 16h-16zM1026 1183v-15q39 0 110 -63v15q0 31 -95 63h-15zM142 915v-16h16l47 158q-54 0 -63 -142zM899 1010q79 -47 79 -111l-15 -47l31 -31q-107 -95 -173 -95q-84 0 -95 158l47 31q0 -142 32 -142h16v16l-16 79l47 31h16l-16 -78v-16h32l47 126l-47 47h-16l-95 -63 v32q0 41 126 63zM79 931l-47 -363v-32h15l63 395h-31zM489 868q0 -32 47 -32l16 -15v-16q-89 -142 -173 -142h-16l-32 31v32q0 85 63 110h32v-15q-63 -56 -63 -111h31l79 79v32q-47 0 -47 31zM1294 742v-127h16v127h-16zM95 505v-32q0 -98 79 -173v31q-64 95 -64 174h-15z M221 331v-15q47 -142 221 -142h79l158 15l-16 16v16l-16 -16h-63l-16 16l-16 -16q-203 22 -331 126zM757 189h16l111 32v16q-127 -16 -127 -48z" />
<glyph unicode="&#xc4;" d="M584 1341h63v-31q-166 0 -268 -95h15q66 47 300 63q474 -58 474 -126l189 -426l-16 -16v-16l16 -15q-7 -98 -79 -190l16 -63q0 -143 -410 -347l-253 -79h-79v32h32q663 197 663 378l-16 16h-16q-229 -316 -757 -316q-160 0 -379 206h-16q116 -284 284 -284h79v-32h-95 q-285 0 -331 536v48q0 464 268 584q158 173 316 173zM505 1120h16l236 63l-15 16l-48 16v16q-109 -37 -189 -111zM221 947q263 236 315 236v16h-15q-300 -63 -300 -252zM805 1199q0 -44 -426 -173q-237 -192 -237 -363v-79q0 -178 158 -253q0 117 473 269l126 -16l95 16 l16 -16v-16l-47 -63l-64 16q-375 -43 -457 -127q-56 0 -126 -78q73 -48 315 -64q316 0 442 237q79 105 79 174v63l-47 173h15q58 0 79 -236q0 -131 -221 -347v-16h16q174 95 221 205l32 47v237q-83 256 -190 300v-16q63 -91 63 -142h-31q-115 268 -221 268l-16 -16h-16 l-15 16h-16zM1026 1183v-15q39 0 110 -63v15q0 31 -95 63h-15zM142 915v-16h16l47 158q-54 0 -63 -142zM899 1010q79 -47 79 -111l-15 -47l31 -31q-107 -95 -173 -95q-84 0 -95 158l47 31q0 -142 32 -142h16v16l-16 79l47 31h16l-16 -78v-16h32l47 126l-47 47h-16l-95 -63 v32q0 41 126 63zM79 931l-47 -363v-32h15l63 395h-31zM489 868q0 -32 47 -32l16 -15v-16q-89 -142 -173 -142h-16l-32 31v32q0 85 63 110h32v-15q-63 -56 -63 -111h31l79 79v32q-47 0 -47 31zM1294 742v-127h16v127h-16zM95 505v-32q0 -98 79 -173v31q-64 95 -64 174h-15z M221 331v-15q47 -142 221 -142h79l158 15l-16 16v16l-16 -16h-63l-16 16l-16 -16q-203 22 -331 126zM757 189h16l111 32v16q-127 -16 -127 -48z" />
<glyph unicode="&#xc5;" d="M584 1341h63v-31q-166 0 -268 -95h15q66 47 300 63q474 -58 474 -126l189 -426l-16 -16v-16l16 -15q-7 -98 -79 -190l16 -63q0 -143 -410 -347l-253 -79h-79v32h32q663 197 663 378l-16 16h-16q-229 -316 -757 -316q-160 0 -379 206h-16q116 -284 284 -284h79v-32h-95 q-285 0 -331 536v48q0 464 268 584q158 173 316 173zM505 1120h16l236 63l-15 16l-48 16v16q-109 -37 -189 -111zM221 947q263 236 315 236v16h-15q-300 -63 -300 -252zM805 1199q0 -44 -426 -173q-237 -192 -237 -363v-79q0 -178 158 -253q0 117 473 269l126 -16l95 16 l16 -16v-16l-47 -63l-64 16q-375 -43 -457 -127q-56 0 -126 -78q73 -48 315 -64q316 0 442 237q79 105 79 174v63l-47 173h15q58 0 79 -236q0 -131 -221 -347v-16h16q174 95 221 205l32 47v237q-83 256 -190 300v-16q63 -91 63 -142h-31q-115 268 -221 268l-16 -16h-16 l-15 16h-16zM1026 1183v-15q39 0 110 -63v15q0 31 -95 63h-15zM142 915v-16h16l47 158q-54 0 -63 -142zM899 1010q79 -47 79 -111l-15 -47l31 -31q-107 -95 -173 -95q-84 0 -95 158l47 31q0 -142 32 -142h16v16l-16 79l47 31h16l-16 -78v-16h32l47 126l-47 47h-16l-95 -63 v32q0 41 126 63zM79 931l-47 -363v-32h15l63 395h-31zM489 868q0 -32 47 -32l16 -15v-16q-89 -142 -173 -142h-16l-32 31v32q0 85 63 110h32v-15q-63 -56 -63 -111h31l79 79v32q-47 0 -47 31zM1294 742v-127h16v127h-16zM95 505v-32q0 -98 79 -173v31q-64 95 -64 174h-15z M221 331v-15q47 -142 221 -142h79l158 15l-16 16v16l-16 -16h-63l-16 16l-16 -16q-203 22 -331 126zM757 189h16l111 32v16q-127 -16 -127 -48z" />
<glyph unicode="&#xc6;" d="M584 1341h63v-31q-166 0 -268 -95h15q66 47 300 63q474 -58 474 -126l189 -426l-16 -16v-16l16 -15q-7 -98 -79 -190l16 -63q0 -143 -410 -347l-253 -79h-79v32h32q663 197 663 378l-16 16h-16q-229 -316 -757 -316q-160 0 -379 206h-16q116 -284 284 -284h79v-32h-95 q-285 0 -331 536v48q0 464 268 584q158 173 316 173zM505 1120h16l236 63l-15 16l-48 16v16q-109 -37 -189 -111zM221 947q263 236 315 236v16h-15q-300 -63 -300 -252zM805 1199q0 -44 -426 -173q-237 -192 -237 -363v-79q0 -178 158 -253q0 117 473 269l126 -16l95 16 l16 -16v-16l-47 -63l-64 16q-375 -43 -457 -127q-56 0 -126 -78q73 -48 315 -64q316 0 442 237q79 105 79 174v63l-47 173h15q58 0 79 -236q0 -131 -221 -347v-16h16q174 95 221 205l32 47v237q-83 256 -190 300v-16q63 -91 63 -142h-31q-115 268 -221 268l-16 -16h-16 l-15 16h-16zM1026 1183v-15q39 0 110 -63v15q0 31 -95 63h-15zM142 915v-16h16l47 158q-54 0 -63 -142zM899 1010q79 -47 79 -111l-15 -47l31 -31q-107 -95 -173 -95q-84 0 -95 158l47 31q0 -142 32 -142h16v16l-16 79l47 31h16l-16 -78v-16h32l47 126l-47 47h-16l-95 -63 v32q0 41 126 63zM79 931l-47 -363v-32h15l63 395h-31zM489 868q0 -32 47 -32l16 -15v-16q-89 -142 -173 -142h-16l-32 31v32q0 85 63 110h32v-15q-63 -56 -63 -111h31l79 79v32q-47 0 -47 31zM1294 742v-127h16v127h-16zM95 505v-32q0 -98 79 -173v31q-64 95 -64 174h-15z M221 331v-15q47 -142 221 -142h79l158 15l-16 16v16l-16 -16h-63l-16 16l-16 -16q-203 22 -331 126zM757 189h16l111 32v16q-127 -16 -127 -48z" />
<glyph unicode="&#xc7;" d="M584 1341h63v-31q-166 0 -268 -95h15q66 47 300 63q474 -58 474 -126l189 -426l-16 -16v-16l16 -15q-7 -98 -79 -190l16 -63q0 -143 -410 -347l-253 -79h-79v32h32q663 197 663 378l-16 16h-16q-229 -316 -757 -316q-160 0 -379 206h-16q116 -284 284 -284h79v-32h-95 q-285 0 -331 536v48q0 464 268 584q158 173 316 173zM505 1120h16l236 63l-15 16l-48 16v16q-109 -37 -189 -111zM221 947q263 236 315 236v16h-15q-300 -63 -300 -252zM805 1199q0 -44 -426 -173q-237 -192 -237 -363v-79q0 -178 158 -253q0 117 473 269l126 -16l95 16 l16 -16v-16l-47 -63l-64 16q-375 -43 -457 -127q-56 0 -126 -78q73 -48 315 -64q316 0 442 237q79 105 79 174v63l-47 173h15q58 0 79 -236q0 -131 -221 -347v-16h16q174 95 221 205l32 47v237q-83 256 -190 300v-16q63 -91 63 -142h-31q-115 268 -221 268l-16 -16h-16 l-15 16h-16zM1026 1183v-15q39 0 110 -63v15q0 31 -95 63h-15zM142 915v-16h16l47 158q-54 0 -63 -142zM899 1010q79 -47 79 -111l-15 -47l31 -31q-107 -95 -173 -95q-84 0 -95 158l47 31q0 -142 32 -142h16v16l-16 79l47 31h16l-16 -78v-16h32l47 126l-47 47h-16l-95 -63 v32q0 41 126 63zM79 931l-47 -363v-32h15l63 395h-31zM489 868q0 -32 47 -32l16 -15v-16q-89 -142 -173 -142h-16l-32 31v32q0 85 63 110h32v-15q-63 -56 -63 -111h31l79 79v32q-47 0 -47 31zM1294 742v-127h16v127h-16zM95 505v-32q0 -98 79 -173v31q-64 95 -64 174h-15z M221 331v-15q47 -142 221 -142h79l158 15l-16 16v16l-16 -16h-63l-16 16l-16 -16q-203 22 -331 126zM757 189h16l111 32v16q-127 -16 -127 -48z" />
<glyph unicode="&#xc8;" d="M584 1341h63v-31q-166 0 -268 -95h15q66 47 300 63q474 -58 474 -126l189 -426l-16 -16v-16l16 -15q-7 -98 -79 -190l16 -63q0 -143 -410 -347l-253 -79h-79v32h32q663 197 663 378l-16 16h-16q-229 -316 -757 -316q-160 0 -379 206h-16q116 -284 284 -284h79v-32h-95 q-285 0 -331 536v48q0 464 268 584q158 173 316 173zM505 1120h16l236 63l-15 16l-48 16v16q-109 -37 -189 -111zM221 947q263 236 315 236v16h-15q-300 -63 -300 -252zM805 1199q0 -44 -426 -173q-237 -192 -237 -363v-79q0 -178 158 -253q0 117 473 269l126 -16l95 16 l16 -16v-16l-47 -63l-64 16q-375 -43 -457 -127q-56 0 -126 -78q73 -48 315 -64q316 0 442 237q79 105 79 174v63l-47 173h15q58 0 79 -236q0 -131 -221 -347v-16h16q174 95 221 205l32 47v237q-83 256 -190 300v-16q63 -91 63 -142h-31q-115 268 -221 268l-16 -16h-16 l-15 16h-16zM1026 1183v-15q39 0 110 -63v15q0 31 -95 63h-15zM142 915v-16h16l47 158q-54 0 -63 -142zM899 1010q79 -47 79 -111l-15 -47l31 -31q-107 -95 -173 -95q-84 0 -95 158l47 31q0 -142 32 -142h16v16l-16 79l47 31h16l-16 -78v-16h32l47 126l-47 47h-16l-95 -63 v32q0 41 126 63zM79 931l-47 -363v-32h15l63 395h-31zM489 868q0 -32 47 -32l16 -15v-16q-89 -142 -173 -142h-16l-32 31v32q0 85 63 110h32v-15q-63 -56 -63 -111h31l79 79v32q-47 0 -47 31zM1294 742v-127h16v127h-16zM95 505v-32q0 -98 79 -173v31q-64 95 -64 174h-15z M221 331v-15q47 -142 221 -142h79l158 15l-16 16v16l-16 -16h-63l-16 16l-16 -16q-203 22 -331 126zM757 189h16l111 32v16q-127 -16 -127 -48z" />
<glyph unicode="&#xc9;" d="M584 1341h63v-31q-166 0 -268 -95h15q66 47 300 63q474 -58 474 -126l189 -426l-16 -16v-16l16 -15q-7 -98 -79 -190l16 -63q0 -143 -410 -347l-253 -79h-79v32h32q663 197 663 378l-16 16h-16q-229 -316 -757 -316q-160 0 -379 206h-16q116 -284 284 -284h79v-32h-95 q-285 0 -331 536v48q0 464 268 584q158 173 316 173zM505 1120h16l236 63l-15 16l-48 16v16q-109 -37 -189 -111zM221 947q263 236 315 236v16h-15q-300 -63 -300 -252zM805 1199q0 -44 -426 -173q-237 -192 -237 -363v-79q0 -178 158 -253q0 117 473 269l126 -16l95 16 l16 -16v-16l-47 -63l-64 16q-375 -43 -457 -127q-56 0 -126 -78q73 -48 315 -64q316 0 442 237q79 105 79 174v63l-47 173h15q58 0 79 -236q0 -131 -221 -347v-16h16q174 95 221 205l32 47v237q-83 256 -190 300v-16q63 -91 63 -142h-31q-115 268 -221 268l-16 -16h-16 l-15 16h-16zM1026 1183v-15q39 0 110 -63v15q0 31 -95 63h-15zM142 915v-16h16l47 158q-54 0 -63 -142zM899 1010q79 -47 79 -111l-15 -47l31 -31q-107 -95 -173 -95q-84 0 -95 158l47 31q0 -142 32 -142h16v16l-16 79l47 31h16l-16 -78v-16h32l47 126l-47 47h-16l-95 -63 v32q0 41 126 63zM79 931l-47 -363v-32h15l63 395h-31zM489 868q0 -32 47 -32l16 -15v-16q-89 -142 -173 -142h-16l-32 31v32q0 85 63 110h32v-15q-63 -56 -63 -111h31l79 79v32q-47 0 -47 31zM1294 742v-127h16v127h-16zM95 505v-32q0 -98 79 -173v31q-64 95 -64 174h-15z M221 331v-15q47 -142 221 -142h79l158 15l-16 16v16l-16 -16h-63l-16 16l-16 -16q-203 22 -331 126zM757 189h16l111 32v16q-127 -16 -127 -48z" />
<glyph unicode="&#xca;" d="M584 1341h63v-31q-166 0 -268 -95h15q66 47 300 63q474 -58 474 -126l189 -426l-16 -16v-16l16 -15q-7 -98 -79 -190l16 -63q0 -143 -410 -347l-253 -79h-79v32h32q663 197 663 378l-16 16h-16q-229 -316 -757 -316q-160 0 -379 206h-16q116 -284 284 -284h79v-32h-95 q-285 0 -331 536v48q0 464 268 584q158 173 316 173zM505 1120h16l236 63l-15 16l-48 16v16q-109 -37 -189 -111zM221 947q263 236 315 236v16h-15q-300 -63 -300 -252zM805 1199q0 -44 -426 -173q-237 -192 -237 -363v-79q0 -178 158 -253q0 117 473 269l126 -16l95 16 l16 -16v-16l-47 -63l-64 16q-375 -43 -457 -127q-56 0 -126 -78q73 -48 315 -64q316 0 442 237q79 105 79 174v63l-47 173h15q58 0 79 -236q0 -131 -221 -347v-16h16q174 95 221 205l32 47v237q-83 256 -190 300v-16q63 -91 63 -142h-31q-115 268 -221 268l-16 -16h-16 l-15 16h-16zM1026 1183v-15q39 0 110 -63v15q0 31 -95 63h-15zM142 915v-16h16l47 158q-54 0 -63 -142zM899 1010q79 -47 79 -111l-15 -47l31 -31q-107 -95 -173 -95q-84 0 -95 158l47 31q0 -142 32 -142h16v16l-16 79l47 31h16l-16 -78v-16h32l47 126l-47 47h-16l-95 -63 v32q0 41 126 63zM79 931l-47 -363v-32h15l63 395h-31zM489 868q0 -32 47 -32l16 -15v-16q-89 -142 -173 -142h-16l-32 31v32q0 85 63 110h32v-15q-63 -56 -63 -111h31l79 79v32q-47 0 -47 31zM1294 742v-127h16v127h-16zM95 505v-32q0 -98 79 -173v31q-64 95 -64 174h-15z M221 331v-15q47 -142 221 -142h79l158 15l-16 16v16l-16 -16h-63l-16 16l-16 -16q-203 22 -331 126zM757 189h16l111 32v16q-127 -16 -127 -48z" />
<glyph unicode="&#xcb;" d="M584 1341h63v-31q-166 0 -268 -95h15q66 47 300 63q474 -58 474 -126l189 -426l-16 -16v-16l16 -15q-7 -98 -79 -190l16 -63q0 -143 -410 -347l-253 -79h-79v32h32q663 197 663 378l-16 16h-16q-229 -316 -757 -316q-160 0 -379 206h-16q116 -284 284 -284h79v-32h-95 q-285 0 -331 536v48q0 464 268 584q158 173 316 173zM505 1120h16l236 63l-15 16l-48 16v16q-109 -37 -189 -111zM221 947q263 236 315 236v16h-15q-300 -63 -300 -252zM805 1199q0 -44 -426 -173q-237 -192 -237 -363v-79q0 -178 158 -253q0 117 473 269l126 -16l95 16 l16 -16v-16l-47 -63l-64 16q-375 -43 -457 -127q-56 0 -126 -78q73 -48 315 -64q316 0 442 237q79 105 79 174v63l-47 173h15q58 0 79 -236q0 -131 -221 -347v-16h16q174 95 221 205l32 47v237q-83 256 -190 300v-16q63 -91 63 -142h-31q-115 268 -221 268l-16 -16h-16 l-15 16h-16zM1026 1183v-15q39 0 110 -63v15q0 31 -95 63h-15zM142 915v-16h16l47 158q-54 0 -63 -142zM899 1010q79 -47 79 -111l-15 -47l31 -31q-107 -95 -173 -95q-84 0 -95 158l47 31q0 -142 32 -142h16v16l-16 79l47 31h16l-16 -78v-16h32l47 126l-47 47h-16l-95 -63 v32q0 41 126 63zM79 931l-47 -363v-32h15l63 395h-31zM489 868q0 -32 47 -32l16 -15v-16q-89 -142 -173 -142h-16l-32 31v32q0 85 63 110h32v-15q-63 -56 -63 -111h31l79 79v32q-47 0 -47 31zM1294 742v-127h16v127h-16zM95 505v-32q0 -98 79 -173v31q-64 95 -64 174h-15z M221 331v-15q47 -142 221 -142h79l158 15l-16 16v16l-16 -16h-63l-16 16l-16 -16q-203 22 -331 126zM757 189h16l111 32v16q-127 -16 -127 -48z" />
<glyph unicode="&#xcc;" d="M584 1341h63v-31q-166 0 -268 -95h15q66 47 300 63q474 -58 474 -126l189 -426l-16 -16v-16l16 -15q-7 -98 -79 -190l16 -63q0 -143 -410 -347l-253 -79h-79v32h32q663 197 663 378l-16 16h-16q-229 -316 -757 -316q-160 0 -379 206h-16q116 -284 284 -284h79v-32h-95 q-285 0 -331 536v48q0 464 268 584q158 173 316 173zM505 1120h16l236 63l-15 16l-48 16v16q-109 -37 -189 -111zM221 947q263 236 315 236v16h-15q-300 -63 -300 -252zM805 1199q0 -44 -426 -173q-237 -192 -237 -363v-79q0 -178 158 -253q0 117 473 269l126 -16l95 16 l16 -16v-16l-47 -63l-64 16q-375 -43 -457 -127q-56 0 -126 -78q73 -48 315 -64q316 0 442 237q79 105 79 174v63l-47 173h15q58 0 79 -236q0 -131 -221 -347v-16h16q174 95 221 205l32 47v237q-83 256 -190 300v-16q63 -91 63 -142h-31q-115 268 -221 268l-16 -16h-16 l-15 16h-16zM1026 1183v-15q39 0 110 -63v15q0 31 -95 63h-15zM142 915v-16h16l47 158q-54 0 -63 -142zM899 1010q79 -47 79 -111l-15 -47l31 -31q-107 -95 -173 -95q-84 0 -95 158l47 31q0 -142 32 -142h16v16l-16 79l47 31h16l-16 -78v-16h32l47 126l-47 47h-16l-95 -63 v32q0 41 126 63zM79 931l-47 -363v-32h15l63 395h-31zM489 868q0 -32 47 -32l16 -15v-16q-89 -142 -173 -142h-16l-32 31v32q0 85 63 110h32v-15q-63 -56 -63 -111h31l79 79v32q-47 0 -47 31zM1294 742v-127h16v127h-16zM95 505v-32q0 -98 79 -173v31q-64 95 -64 174h-15z M221 331v-15q47 -142 221 -142h79l158 15l-16 16v16l-16 -16h-63l-16 16l-16 -16q-203 22 -331 126zM757 189h16l111 32v16q-127 -16 -127 -48z" />
<glyph unicode="&#xcd;" d="M584 1341h63v-31q-166 0 -268 -95h15q66 47 300 63q474 -58 474 -126l189 -426l-16 -16v-16l16 -15q-7 -98 -79 -190l16 -63q0 -143 -410 -347l-253 -79h-79v32h32q663 197 663 378l-16 16h-16q-229 -316 -757 -316q-160 0 -379 206h-16q116 -284 284 -284h79v-32h-95 q-285 0 -331 536v48q0 464 268 584q158 173 316 173zM505 1120h16l236 63l-15 16l-48 16v16q-109 -37 -189 -111zM221 947q263 236 315 236v16h-15q-300 -63 -300 -252zM805 1199q0 -44 -426 -173q-237 -192 -237 -363v-79q0 -178 158 -253q0 117 473 269l126 -16l95 16 l16 -16v-16l-47 -63l-64 16q-375 -43 -457 -127q-56 0 -126 -78q73 -48 315 -64q316 0 442 237q79 105 79 174v63l-47 173h15q58 0 79 -236q0 -131 -221 -347v-16h16q174 95 221 205l32 47v237q-83 256 -190 300v-16q63 -91 63 -142h-31q-115 268 -221 268l-16 -16h-16 l-15 16h-16zM1026 1183v-15q39 0 110 -63v15q0 31 -95 63h-15zM142 915v-16h16l47 158q-54 0 -63 -142zM899 1010q79 -47 79 -111l-15 -47l31 -31q-107 -95 -173 -95q-84 0 -95 158l47 31q0 -142 32 -142h16v16l-16 79l47 31h16l-16 -78v-16h32l47 126l-47 47h-16l-95 -63 v32q0 41 126 63zM79 931l-47 -363v-32h15l63 395h-31zM489 868q0 -32 47 -32l16 -15v-16q-89 -142 -173 -142h-16l-32 31v32q0 85 63 110h32v-15q-63 -56 -63 -111h31l79 79v32q-47 0 -47 31zM1294 742v-127h16v127h-16zM95 505v-32q0 -98 79 -173v31q-64 95 -64 174h-15z M221 331v-15q47 -142 221 -142h79l158 15l-16 16v16l-16 -16h-63l-16 16l-16 -16q-203 22 -331 126zM757 189h16l111 32v16q-127 -16 -127 -48z" />
<glyph unicode="&#xce;" d="M584 1341h63v-31q-166 0 -268 -95h15q66 47 300 63q474 -58 474 -126l189 -426l-16 -16v-16l16 -15q-7 -98 -79 -190l16 -63q0 -143 -410 -347l-253 -79h-79v32h32q663 197 663 378l-16 16h-16q-229 -316 -757 -316q-160 0 -379 206h-16q116 -284 284 -284h79v-32h-95 q-285 0 -331 536v48q0 464 268 584q158 173 316 173zM505 1120h16l236 63l-15 16l-48 16v16q-109 -37 -189 -111zM221 947q263 236 315 236v16h-15q-300 -63 -300 -252zM805 1199q0 -44 -426 -173q-237 -192 -237 -363v-79q0 -178 158 -253q0 117 473 269l126 -16l95 16 l16 -16v-16l-47 -63l-64 16q-375 -43 -457 -127q-56 0 -126 -78q73 -48 315 -64q316 0 442 237q79 105 79 174v63l-47 173h15q58 0 79 -236q0 -131 -221 -347v-16h16q174 95 221 205l32 47v237q-83 256 -190 300v-16q63 -91 63 -142h-31q-115 268 -221 268l-16 -16h-16 l-15 16h-16zM1026 1183v-15q39 0 110 -63v15q0 31 -95 63h-15zM142 915v-16h16l47 158q-54 0 -63 -142zM899 1010q79 -47 79 -111l-15 -47l31 -31q-107 -95 -173 -95q-84 0 -95 158l47 31q0 -142 32 -142h16v16l-16 79l47 31h16l-16 -78v-16h32l47 126l-47 47h-16l-95 -63 v32q0 41 126 63zM79 931l-47 -363v-32h15l63 395h-31zM489 868q0 -32 47 -32l16 -15v-16q-89 -142 -173 -142h-16l-32 31v32q0 85 63 110h32v-15q-63 -56 -63 -111h31l79 79v32q-47 0 -47 31zM1294 742v-127h16v127h-16zM95 505v-32q0 -98 79 -173v31q-64 95 -64 174h-15z M221 331v-15q47 -142 221 -142h79l158 15l-16 16v16l-16 -16h-63l-16 16l-16 -16q-203 22 -331 126zM757 189h16l111 32v16q-127 -16 -127 -48z" />
<glyph unicode="&#xcf;" d="M584 1341h63v-31q-166 0 -268 -95h15q66 47 300 63q474 -58 474 -126l189 -426l-16 -16v-16l16 -15q-7 -98 -79 -190l16 -63q0 -143 -410 -347l-253 -79h-79v32h32q663 197 663 378l-16 16h-16q-229 -316 -757 -316q-160 0 -379 206h-16q116 -284 284 -284h79v-32h-95 q-285 0 -331 536v48q0 464 268 584q158 173 316 173zM505 1120h16l236 63l-15 16l-48 16v16q-109 -37 -189 -111zM221 947q263 236 315 236v16h-15q-300 -63 -300 -252zM805 1199q0 -44 -426 -173q-237 -192 -237 -363v-79q0 -178 158 -253q0 117 473 269l126 -16l95 16 l16 -16v-16l-47 -63l-64 16q-375 -43 -457 -127q-56 0 -126 -78q73 -48 315 -64q316 0 442 237q79 105 79 174v63l-47 173h15q58 0 79 -236q0 -131 -221 -347v-16h16q174 95 221 205l32 47v237q-83 256 -190 300v-16q63 -91 63 -142h-31q-115 268 -221 268l-16 -16h-16 l-15 16h-16zM1026 1183v-15q39 0 110 -63v15q0 31 -95 63h-15zM142 915v-16h16l47 158q-54 0 -63 -142zM899 1010q79 -47 79 -111l-15 -47l31 -31q-107 -95 -173 -95q-84 0 -95 158l47 31q0 -142 32 -142h16v16l-16 79l47 31h16l-16 -78v-16h32l47 126l-47 47h-16l-95 -63 v32q0 41 126 63zM79 931l-47 -363v-32h15l63 395h-31zM489 868q0 -32 47 -32l16 -15v-16q-89 -142 -173 -142h-16l-32 31v32q0 85 63 110h32v-15q-63 -56 -63 -111h31l79 79v32q-47 0 -47 31zM1294 742v-127h16v127h-16zM95 505v-32q0 -98 79 -173v31q-64 95 -64 174h-15z M221 331v-15q47 -142 221 -142h79l158 15l-16 16v16l-16 -16h-63l-16 16l-16 -16q-203 22 -331 126zM757 189h16l111 32v16q-127 -16 -127 -48z" />
<glyph unicode="&#xd0;" d="M584 1341h63v-31q-166 0 -268 -95h15q66 47 300 63q474 -58 474 -126l189 -426l-16 -16v-16l16 -15q-7 -98 -79 -190l16 -63q0 -143 -410 -347l-253 -79h-79v32h32q663 197 663 378l-16 16h-16q-229 -316 -757 -316q-160 0 -379 206h-16q116 -284 284 -284h79v-32h-95 q-285 0 -331 536v48q0 464 268 584q158 173 316 173zM505 1120h16l236 63l-15 16l-48 16v16q-109 -37 -189 -111zM221 947q263 236 315 236v16h-15q-300 -63 -300 -252zM805 1199q0 -44 -426 -173q-237 -192 -237 -363v-79q0 -178 158 -253q0 117 473 269l126 -16l95 16 l16 -16v-16l-47 -63l-64 16q-375 -43 -457 -127q-56 0 -126 -78q73 -48 315 -64q316 0 442 237q79 105 79 174v63l-47 173h15q58 0 79 -236q0 -131 -221 -347v-16h16q174 95 221 205l32 47v237q-83 256 -190 300v-16q63 -91 63 -142h-31q-115 268 -221 268l-16 -16h-16 l-15 16h-16zM1026 1183v-15q39 0 110 -63v15q0 31 -95 63h-15zM142 915v-16h16l47 158q-54 0 -63 -142zM899 1010q79 -47 79 -111l-15 -47l31 -31q-107 -95 -173 -95q-84 0 -95 158l47 31q0 -142 32 -142h16v16l-16 79l47 31h16l-16 -78v-16h32l47 126l-47 47h-16l-95 -63 v32q0 41 126 63zM79 931l-47 -363v-32h15l63 395h-31zM489 868q0 -32 47 -32l16 -15v-16q-89 -142 -173 -142h-16l-32 31v32q0 85 63 110h32v-15q-63 -56 -63 -111h31l79 79v32q-47 0 -47 31zM1294 742v-127h16v127h-16zM95 505v-32q0 -98 79 -173v31q-64 95 -64 174h-15z M221 331v-15q47 -142 221 -142h79l158 15l-16 16v16l-16 -16h-63l-16 16l-16 -16q-203 22 -331 126zM757 189h16l111 32v16q-127 -16 -127 -48z" />
<glyph unicode="&#xd1;" d="M584 1341h63v-31q-166 0 -268 -95h15q66 47 300 63q474 -58 474 -126l189 -426l-16 -16v-16l16 -15q-7 -98 -79 -190l16 -63q0 -143 -410 -347l-253 -79h-79v32h32q663 197 663 378l-16 16h-16q-229 -316 -757 -316q-160 0 -379 206h-16q116 -284 284 -284h79v-32h-95 q-285 0 -331 536v48q0 464 268 584q158 173 316 173zM505 1120h16l236 63l-15 16l-48 16v16q-109 -37 -189 -111zM221 947q263 236 315 236v16h-15q-300 -63 -300 -252zM805 1199q0 -44 -426 -173q-237 -192 -237 -363v-79q0 -178 158 -253q0 117 473 269l126 -16l95 16 l16 -16v-16l-47 -63l-64 16q-375 -43 -457 -127q-56 0 -126 -78q73 -48 315 -64q316 0 442 237q79 105 79 174v63l-47 173h15q58 0 79 -236q0 -131 -221 -347v-16h16q174 95 221 205l32 47v237q-83 256 -190 300v-16q63 -91 63 -142h-31q-115 268 -221 268l-16 -16h-16 l-15 16h-16zM1026 1183v-15q39 0 110 -63v15q0 31 -95 63h-15zM142 915v-16h16l47 158q-54 0 -63 -142zM899 1010q79 -47 79 -111l-15 -47l31 -31q-107 -95 -173 -95q-84 0 -95 158l47 31q0 -142 32 -142h16v16l-16 79l47 31h16l-16 -78v-16h32l47 126l-47 47h-16l-95 -63 v32q0 41 126 63zM79 931l-47 -363v-32h15l63 395h-31zM489 868q0 -32 47 -32l16 -15v-16q-89 -142 -173 -142h-16l-32 31v32q0 85 63 110h32v-15q-63 -56 -63 -111h31l79 79v32q-47 0 -47 31zM1294 742v-127h16v127h-16zM95 505v-32q0 -98 79 -173v31q-64 95 -64 174h-15z M221 331v-15q47 -142 221 -142h79l158 15l-16 16v16l-16 -16h-63l-16 16l-16 -16q-203 22 -331 126zM757 189h16l111 32v16q-127 -16 -127 -48z" />
<glyph unicode="&#xd2;" d="M584 1341h63v-31q-166 0 -268 -95h15q66 47 300 63q474 -58 474 -126l189 -426l-16 -16v-16l16 -15q-7 -98 -79 -190l16 -63q0 -143 -410 -347l-253 -79h-79v32h32q663 197 663 378l-16 16h-16q-229 -316 -757 -316q-160 0 -379 206h-16q116 -284 284 -284h79v-32h-95 q-285 0 -331 536v48q0 464 268 584q158 173 316 173zM505 1120h16l236 63l-15 16l-48 16v16q-109 -37 -189 -111zM221 947q263 236 315 236v16h-15q-300 -63 -300 -252zM805 1199q0 -44 -426 -173q-237 -192 -237 -363v-79q0 -178 158 -253q0 117 473 269l126 -16l95 16 l16 -16v-16l-47 -63l-64 16q-375 -43 -457 -127q-56 0 -126 -78q73 -48 315 -64q316 0 442 237q79 105 79 174v63l-47 173h15q58 0 79 -236q0 -131 -221 -347v-16h16q174 95 221 205l32 47v237q-83 256 -190 300v-16q63 -91 63 -142h-31q-115 268 -221 268l-16 -16h-16 l-15 16h-16zM1026 1183v-15q39 0 110 -63v15q0 31 -95 63h-15zM142 915v-16h16l47 158q-54 0 -63 -142zM899 1010q79 -47 79 -111l-15 -47l31 -31q-107 -95 -173 -95q-84 0 -95 158l47 31q0 -142 32 -142h16v16l-16 79l47 31h16l-16 -78v-16h32l47 126l-47 47h-16l-95 -63 v32q0 41 126 63zM79 931l-47 -363v-32h15l63 395h-31zM489 868q0 -32 47 -32l16 -15v-16q-89 -142 -173 -142h-16l-32 31v32q0 85 63 110h32v-15q-63 -56 -63 -111h31l79 79v32q-47 0 -47 31zM1294 742v-127h16v127h-16zM95 505v-32q0 -98 79 -173v31q-64 95 -64 174h-15z M221 331v-15q47 -142 221 -142h79l158 15l-16 16v16l-16 -16h-63l-16 16l-16 -16q-203 22 -331 126zM757 189h16l111 32v16q-127 -16 -127 -48z" />
<glyph unicode="&#xd3;" d="M584 1341h63v-31q-166 0 -268 -95h15q66 47 300 63q474 -58 474 -126l189 -426l-16 -16v-16l16 -15q-7 -98 -79 -190l16 -63q0 -143 -410 -347l-253 -79h-79v32h32q663 197 663 378l-16 16h-16q-229 -316 -757 -316q-160 0 -379 206h-16q116 -284 284 -284h79v-32h-95 q-285 0 -331 536v48q0 464 268 584q158 173 316 173zM505 1120h16l236 63l-15 16l-48 16v16q-109 -37 -189 -111zM221 947q263 236 315 236v16h-15q-300 -63 -300 -252zM805 1199q0 -44 -426 -173q-237 -192 -237 -363v-79q0 -178 158 -253q0 117 473 269l126 -16l95 16 l16 -16v-16l-47 -63l-64 16q-375 -43 -457 -127q-56 0 -126 -78q73 -48 315 -64q316 0 442 237q79 105 79 174v63l-47 173h15q58 0 79 -236q0 -131 -221 -347v-16h16q174 95 221 205l32 47v237q-83 256 -190 300v-16q63 -91 63 -142h-31q-115 268 -221 268l-16 -16h-16 l-15 16h-16zM1026 1183v-15q39 0 110 -63v15q0 31 -95 63h-15zM142 915v-16h16l47 158q-54 0 -63 -142zM899 1010q79 -47 79 -111l-15 -47l31 -31q-107 -95 -173 -95q-84 0 -95 158l47 31q0 -142 32 -142h16v16l-16 79l47 31h16l-16 -78v-16h32l47 126l-47 47h-16l-95 -63 v32q0 41 126 63zM79 931l-47 -363v-32h15l63 395h-31zM489 868q0 -32 47 -32l16 -15v-16q-89 -142 -173 -142h-16l-32 31v32q0 85 63 110h32v-15q-63 -56 -63 -111h31l79 79v32q-47 0 -47 31zM1294 742v-127h16v127h-16zM95 505v-32q0 -98 79 -173v31q-64 95 -64 174h-15z M221 331v-15q47 -142 221 -142h79l158 15l-16 16v16l-16 -16h-63l-16 16l-16 -16q-203 22 -331 126zM757 189h16l111 32v16q-127 -16 -127 -48z" />
<glyph unicode="&#xd4;" d="M584 1341h63v-31q-166 0 -268 -95h15q66 47 300 63q474 -58 474 -126l189 -426l-16 -16v-16l16 -15q-7 -98 -79 -190l16 -63q0 -143 -410 -347l-253 -79h-79v32h32q663 197 663 378l-16 16h-16q-229 -316 -757 -316q-160 0 -379 206h-16q116 -284 284 -284h79v-32h-95 q-285 0 -331 536v48q0 464 268 584q158 173 316 173zM505 1120h16l236 63l-15 16l-48 16v16q-109 -37 -189 -111zM221 947q263 236 315 236v16h-15q-300 -63 -300 -252zM805 1199q0 -44 -426 -173q-237 -192 -237 -363v-79q0 -178 158 -253q0 117 473 269l126 -16l95 16 l16 -16v-16l-47 -63l-64 16q-375 -43 -457 -127q-56 0 -126 -78q73 -48 315 -64q316 0 442 237q79 105 79 174v63l-47 173h15q58 0 79 -236q0 -131 -221 -347v-16h16q174 95 221 205l32 47v237q-83 256 -190 300v-16q63 -91 63 -142h-31q-115 268 -221 268l-16 -16h-16 l-15 16h-16zM1026 1183v-15q39 0 110 -63v15q0 31 -95 63h-15zM142 915v-16h16l47 158q-54 0 -63 -142zM899 1010q79 -47 79 -111l-15 -47l31 -31q-107 -95 -173 -95q-84 0 -95 158l47 31q0 -142 32 -142h16v16l-16 79l47 31h16l-16 -78v-16h32l47 126l-47 47h-16l-95 -63 v32q0 41 126 63zM79 931l-47 -363v-32h15l63 395h-31zM489 868q0 -32 47 -32l16 -15v-16q-89 -142 -173 -142h-16l-32 31v32q0 85 63 110h32v-15q-63 -56 -63 -111h31l79 79v32q-47 0 -47 31zM1294 742v-127h16v127h-16zM95 505v-32q0 -98 79 -173v31q-64 95 -64 174h-15z M221 331v-15q47 -142 221 -142h79l158 15l-16 16v16l-16 -16h-63l-16 16l-16 -16q-203 22 -331 126zM757 189h16l111 32v16q-127 -16 -127 -48z" />
<glyph unicode="&#xd5;" d="M584 1341h63v-31q-166 0 -268 -95h15q66 47 300 63q474 -58 474 -126l189 -426l-16 -16v-16l16 -15q-7 -98 -79 -190l16 -63q0 -143 -410 -347l-253 -79h-79v32h32q663 197 663 378l-16 16h-16q-229 -316 -757 -316q-160 0 -379 206h-16q116 -284 284 -284h79v-32h-95 q-285 0 -331 536v48q0 464 268 584q158 173 316 173zM505 1120h16l236 63l-15 16l-48 16v16q-109 -37 -189 -111zM221 947q263 236 315 236v16h-15q-300 -63 -300 -252zM805 1199q0 -44 -426 -173q-237 -192 -237 -363v-79q0 -178 158 -253q0 117 473 269l126 -16l95 16 l16 -16v-16l-47 -63l-64 16q-375 -43 -457 -127q-56 0 -126 -78q73 -48 315 -64q316 0 442 237q79 105 79 174v63l-47 173h15q58 0 79 -236q0 -131 -221 -347v-16h16q174 95 221 205l32 47v237q-83 256 -190 300v-16q63 -91 63 -142h-31q-115 268 -221 268l-16 -16h-16 l-15 16h-16zM1026 1183v-15q39 0 110 -63v15q0 31 -95 63h-15zM142 915v-16h16l47 158q-54 0 -63 -142zM899 1010q79 -47 79 -111l-15 -47l31 -31q-107 -95 -173 -95q-84 0 -95 158l47 31q0 -142 32 -142h16v16l-16 79l47 31h16l-16 -78v-16h32l47 126l-47 47h-16l-95 -63 v32q0 41 126 63zM79 931l-47 -363v-32h15l63 395h-31zM489 868q0 -32 47 -32l16 -15v-16q-89 -142 -173 -142h-16l-32 31v32q0 85 63 110h32v-15q-63 -56 -63 -111h31l79 79v32q-47 0 -47 31zM1294 742v-127h16v127h-16zM95 505v-32q0 -98 79 -173v31q-64 95 -64 174h-15z M221 331v-15q47 -142 221 -142h79l158 15l-16 16v16l-16 -16h-63l-16 16l-16 -16q-203 22 -331 126zM757 189h16l111 32v16q-127 -16 -127 -48z" />
<glyph unicode="&#xd6;" d="M584 1341h63v-31q-166 0 -268 -95h15q66 47 300 63q474 -58 474 -126l189 -426l-16 -16v-16l16 -15q-7 -98 -79 -190l16 -63q0 -143 -410 -347l-253 -79h-79v32h32q663 197 663 378l-16 16h-16q-229 -316 -757 -316q-160 0 -379 206h-16q116 -284 284 -284h79v-32h-95 q-285 0 -331 536v48q0 464 268 584q158 173 316 173zM505 1120h16l236 63l-15 16l-48 16v16q-109 -37 -189 -111zM221 947q263 236 315 236v16h-15q-300 -63 -300 -252zM805 1199q0 -44 -426 -173q-237 -192 -237 -363v-79q0 -178 158 -253q0 117 473 269l126 -16l95 16 l16 -16v-16l-47 -63l-64 16q-375 -43 -457 -127q-56 0 -126 -78q73 -48 315 -64q316 0 442 237q79 105 79 174v63l-47 173h15q58 0 79 -236q0 -131 -221 -347v-16h16q174 95 221 205l32 47v237q-83 256 -190 300v-16q63 -91 63 -142h-31q-115 268 -221 268l-16 -16h-16 l-15 16h-16zM1026 1183v-15q39 0 110 -63v15q0 31 -95 63h-15zM142 915v-16h16l47 158q-54 0 -63 -142zM899 1010q79 -47 79 -111l-15 -47l31 -31q-107 -95 -173 -95q-84 0 -95 158l47 31q0 -142 32 -142h16v16l-16 79l47 31h16l-16 -78v-16h32l47 126l-47 47h-16l-95 -63 v32q0 41 126 63zM79 931l-47 -363v-32h15l63 395h-31zM489 868q0 -32 47 -32l16 -15v-16q-89 -142 -173 -142h-16l-32 31v32q0 85 63 110h32v-15q-63 -56 -63 -111h31l79 79v32q-47 0 -47 31zM1294 742v-127h16v127h-16zM95 505v-32q0 -98 79 -173v31q-64 95 -64 174h-15z M221 331v-15q47 -142 221 -142h79l158 15l-16 16v16l-16 -16h-63l-16 16l-16 -16q-203 22 -331 126zM757 189h16l111 32v16q-127 -16 -127 -48z" />
<glyph unicode="&#xd7;" horiz-adv-x="1014" d="M507 618l-247 -247l-99 99l247 247l-247 248l99 98l247 -247l248 247l98 -99l-247 -247l247 -247l-99 -99z" />
<glyph unicode="&#xd8;" d="M584 1341h63v-31q-166 0 -268 -95h15q66 47 300 63q474 -58 474 -126l189 -426l-16 -16v-16l16 -15q-7 -98 -79 -190l16 -63q0 -143 -410 -347l-253 -79h-79v32h32q663 197 663 378l-16 16h-16q-229 -316 -757 -316q-160 0 -379 206h-16q116 -284 284 -284h79v-32h-95 q-285 0 -331 536v48q0 464 268 584q158 173 316 173zM505 1120h16l236 63l-15 16l-48 16v16q-109 -37 -189 -111zM221 947q263 236 315 236v16h-15q-300 -63 -300 -252zM805 1199q0 -44 -426 -173q-237 -192 -237 -363v-79q0 -178 158 -253q0 117 473 269l126 -16l95 16 l16 -16v-16l-47 -63l-64 16q-375 -43 -457 -127q-56 0 -126 -78q73 -48 315 -64q316 0 442 237q79 105 79 174v63l-47 173h15q58 0 79 -236q0 -131 -221 -347v-16h16q174 95 221 205l32 47v237q-83 256 -190 300v-16q63 -91 63 -142h-31q-115 268 -221 268l-16 -16h-16 l-15 16h-16zM1026 1183v-15q39 0 110 -63v15q0 31 -95 63h-15zM142 915v-16h16l47 158q-54 0 -63 -142zM899 1010q79 -47 79 -111l-15 -47l31 -31q-107 -95 -173 -95q-84 0 -95 158l47 31q0 -142 32 -142h16v16l-16 79l47 31h16l-16 -78v-16h32l47 126l-47 47h-16l-95 -63 v32q0 41 126 63zM79 931l-47 -363v-32h15l63 395h-31zM489 868q0 -32 47 -32l16 -15v-16q-89 -142 -173 -142h-16l-32 31v32q0 85 63 110h32v-15q-63 -56 -63 -111h31l79 79v32q-47 0 -47 31zM1294 742v-127h16v127h-16zM95 505v-32q0 -98 79 -173v31q-64 95 -64 174h-15z M221 331v-15q47 -142 221 -142h79l158 15l-16 16v16l-16 -16h-63l-16 16l-16 -16q-203 22 -331 126zM757 189h16l111 32v16q-127 -16 -127 -48z" />
<glyph unicode="&#xd9;" d="M584 1341h63v-31q-166 0 -268 -95h15q66 47 300 63q474 -58 474 -126l189 -426l-16 -16v-16l16 -15q-7 -98 -79 -190l16 -63q0 -143 -410 -347l-253 -79h-79v32h32q663 197 663 378l-16 16h-16q-229 -316 -757 -316q-160 0 -379 206h-16q116 -284 284 -284h79v-32h-95 q-285 0 -331 536v48q0 464 268 584q158 173 316 173zM505 1120h16l236 63l-15 16l-48 16v16q-109 -37 -189 -111zM221 947q263 236 315 236v16h-15q-300 -63 -300 -252zM805 1199q0 -44 -426 -173q-237 -192 -237 -363v-79q0 -178 158 -253q0 117 473 269l126 -16l95 16 l16 -16v-16l-47 -63l-64 16q-375 -43 -457 -127q-56 0 -126 -78q73 -48 315 -64q316 0 442 237q79 105 79 174v63l-47 173h15q58 0 79 -236q0 -131 -221 -347v-16h16q174 95 221 205l32 47v237q-83 256 -190 300v-16q63 -91 63 -142h-31q-115 268 -221 268l-16 -16h-16 l-15 16h-16zM1026 1183v-15q39 0 110 -63v15q0 31 -95 63h-15zM142 915v-16h16l47 158q-54 0 -63 -142zM899 1010q79 -47 79 -111l-15 -47l31 -31q-107 -95 -173 -95q-84 0 -95 158l47 31q0 -142 32 -142h16v16l-16 79l47 31h16l-16 -78v-16h32l47 126l-47 47h-16l-95 -63 v32q0 41 126 63zM79 931l-47 -363v-32h15l63 395h-31zM489 868q0 -32 47 -32l16 -15v-16q-89 -142 -173 -142h-16l-32 31v32q0 85 63 110h32v-15q-63 -56 -63 -111h31l79 79v32q-47 0 -47 31zM1294 742v-127h16v127h-16zM95 505v-32q0 -98 79 -173v31q-64 95 -64 174h-15z M221 331v-15q47 -142 221 -142h79l158 15l-16 16v16l-16 -16h-63l-16 16l-16 -16q-203 22 -331 126zM757 189h16l111 32v16q-127 -16 -127 -48z" />
<glyph unicode="&#xda;" d="M584 1341h63v-31q-166 0 -268 -95h15q66 47 300 63q474 -58 474 -126l189 -426l-16 -16v-16l16 -15q-7 -98 -79 -190l16 -63q0 -143 -410 -347l-253 -79h-79v32h32q663 197 663 378l-16 16h-16q-229 -316 -757 -316q-160 0 -379 206h-16q116 -284 284 -284h79v-32h-95 q-285 0 -331 536v48q0 464 268 584q158 173 316 173zM505 1120h16l236 63l-15 16l-48 16v16q-109 -37 -189 -111zM221 947q263 236 315 236v16h-15q-300 -63 -300 -252zM805 1199q0 -44 -426 -173q-237 -192 -237 -363v-79q0 -178 158 -253q0 117 473 269l126 -16l95 16 l16 -16v-16l-47 -63l-64 16q-375 -43 -457 -127q-56 0 -126 -78q73 -48 315 -64q316 0 442 237q79 105 79 174v63l-47 173h15q58 0 79 -236q0 -131 -221 -347v-16h16q174 95 221 205l32 47v237q-83 256 -190 300v-16q63 -91 63 -142h-31q-115 268 -221 268l-16 -16h-16 l-15 16h-16zM1026 1183v-15q39 0 110 -63v15q0 31 -95 63h-15zM142 915v-16h16l47 158q-54 0 -63 -142zM899 1010q79 -47 79 -111l-15 -47l31 -31q-107 -95 -173 -95q-84 0 -95 158l47 31q0 -142 32 -142h16v16l-16 79l47 31h16l-16 -78v-16h32l47 126l-47 47h-16l-95 -63 v32q0 41 126 63zM79 931l-47 -363v-32h15l63 395h-31zM489 868q0 -32 47 -32l16 -15v-16q-89 -142 -173 -142h-16l-32 31v32q0 85 63 110h32v-15q-63 -56 -63 -111h31l79 79v32q-47 0 -47 31zM1294 742v-127h16v127h-16zM95 505v-32q0 -98 79 -173v31q-64 95 -64 174h-15z M221 331v-15q47 -142 221 -142h79l158 15l-16 16v16l-16 -16h-63l-16 16l-16 -16q-203 22 -331 126zM757 189h16l111 32v16q-127 -16 -127 -48z" />
<glyph unicode="&#xdb;" d="M584 1341h63v-31q-166 0 -268 -95h15q66 47 300 63q474 -58 474 -126l189 -426l-16 -16v-16l16 -15q-7 -98 -79 -190l16 -63q0 -143 -410 -347l-253 -79h-79v32h32q663 197 663 378l-16 16h-16q-229 -316 -757 -316q-160 0 -379 206h-16q116 -284 284 -284h79v-32h-95 q-285 0 -331 536v48q0 464 268 584q158 173 316 173zM505 1120h16l236 63l-15 16l-48 16v16q-109 -37 -189 -111zM221 947q263 236 315 236v16h-15q-300 -63 -300 -252zM805 1199q0 -44 -426 -173q-237 -192 -237 -363v-79q0 -178 158 -253q0 117 473 269l126 -16l95 16 l16 -16v-16l-47 -63l-64 16q-375 -43 -457 -127q-56 0 -126 -78q73 -48 315 -64q316 0 442 237q79 105 79 174v63l-47 173h15q58 0 79 -236q0 -131 -221 -347v-16h16q174 95 221 205l32 47v237q-83 256 -190 300v-16q63 -91 63 -142h-31q-115 268 -221 268l-16 -16h-16 l-15 16h-16zM1026 1183v-15q39 0 110 -63v15q0 31 -95 63h-15zM142 915v-16h16l47 158q-54 0 -63 -142zM899 1010q79 -47 79 -111l-15 -47l31 -31q-107 -95 -173 -95q-84 0 -95 158l47 31q0 -142 32 -142h16v16l-16 79l47 31h16l-16 -78v-16h32l47 126l-47 47h-16l-95 -63 v32q0 41 126 63zM79 931l-47 -363v-32h15l63 395h-31zM489 868q0 -32 47 -32l16 -15v-16q-89 -142 -173 -142h-16l-32 31v32q0 85 63 110h32v-15q-63 -56 -63 -111h31l79 79v32q-47 0 -47 31zM1294 742v-127h16v127h-16zM95 505v-32q0 -98 79 -173v31q-64 95 -64 174h-15z M221 331v-15q47 -142 221 -142h79l158 15l-16 16v16l-16 -16h-63l-16 16l-16 -16q-203 22 -331 126zM757 189h16l111 32v16q-127 -16 -127 -48z" />
<glyph unicode="&#xdc;" d="M584 1341h63v-31q-166 0 -268 -95h15q66 47 300 63q474 -58 474 -126l189 -426l-16 -16v-16l16 -15q-7 -98 -79 -190l16 -63q0 -143 -410 -347l-253 -79h-79v32h32q663 197 663 378l-16 16h-16q-229 -316 -757 -316q-160 0 -379 206h-16q116 -284 284 -284h79v-32h-95 q-285 0 -331 536v48q0 464 268 584q158 173 316 173zM505 1120h16l236 63l-15 16l-48 16v16q-109 -37 -189 -111zM221 947q263 236 315 236v16h-15q-300 -63 -300 -252zM805 1199q0 -44 -426 -173q-237 -192 -237 -363v-79q0 -178 158 -253q0 117 473 269l126 -16l95 16 l16 -16v-16l-47 -63l-64 16q-375 -43 -457 -127q-56 0 -126 -78q73 -48 315 -64q316 0 442 237q79 105 79 174v63l-47 173h15q58 0 79 -236q0 -131 -221 -347v-16h16q174 95 221 205l32 47v237q-83 256 -190 300v-16q63 -91 63 -142h-31q-115 268 -221 268l-16 -16h-16 l-15 16h-16zM1026 1183v-15q39 0 110 -63v15q0 31 -95 63h-15zM142 915v-16h16l47 158q-54 0 -63 -142zM899 1010q79 -47 79 -111l-15 -47l31 -31q-107 -95 -173 -95q-84 0 -95 158l47 31q0 -142 32 -142h16v16l-16 79l47 31h16l-16 -78v-16h32l47 126l-47 47h-16l-95 -63 v32q0 41 126 63zM79 931l-47 -363v-32h15l63 395h-31zM489 868q0 -32 47 -32l16 -15v-16q-89 -142 -173 -142h-16l-32 31v32q0 85 63 110h32v-15q-63 -56 -63 -111h31l79 79v32q-47 0 -47 31zM1294 742v-127h16v127h-16zM95 505v-32q0 -98 79 -173v31q-64 95 -64 174h-15z M221 331v-15q47 -142 221 -142h79l158 15l-16 16v16l-16 -16h-63l-16 16l-16 -16q-203 22 -331 126zM757 189h16l111 32v16q-127 -16 -127 -48z" />
<glyph unicode="&#xdd;" d="M584 1341h63v-31q-166 0 -268 -95h15q66 47 300 63q474 -58 474 -126l189 -426l-16 -16v-16l16 -15q-7 -98 -79 -190l16 -63q0 -143 -410 -347l-253 -79h-79v32h32q663 197 663 378l-16 16h-16q-229 -316 -757 -316q-160 0 -379 206h-16q116 -284 284 -284h79v-32h-95 q-285 0 -331 536v48q0 464 268 584q158 173 316 173zM505 1120h16l236 63l-15 16l-48 16v16q-109 -37 -189 -111zM221 947q263 236 315 236v16h-15q-300 -63 -300 -252zM805 1199q0 -44 -426 -173q-237 -192 -237 -363v-79q0 -178 158 -253q0 117 473 269l126 -16l95 16 l16 -16v-16l-47 -63l-64 16q-375 -43 -457 -127q-56 0 -126 -78q73 -48 315 -64q316 0 442 237q79 105 79 174v63l-47 173h15q58 0 79 -236q0 -131 -221 -347v-16h16q174 95 221 205l32 47v237q-83 256 -190 300v-16q63 -91 63 -142h-31q-115 268 -221 268l-16 -16h-16 l-15 16h-16zM1026 1183v-15q39 0 110 -63v15q0 31 -95 63h-15zM142 915v-16h16l47 158q-54 0 -63 -142zM899 1010q79 -47 79 -111l-15 -47l31 -31q-107 -95 -173 -95q-84 0 -95 158l47 31q0 -142 32 -142h16v16l-16 79l47 31h16l-16 -78v-16h32l47 126l-47 47h-16l-95 -63 v32q0 41 126 63zM79 931l-47 -363v-32h15l63 395h-31zM489 868q0 -32 47 -32l16 -15v-16q-89 -142 -173 -142h-16l-32 31v32q0 85 63 110h32v-15q-63 -56 -63 -111h31l79 79v32q-47 0 -47 31zM1294 742v-127h16v127h-16zM95 505v-32q0 -98 79 -173v31q-64 95 -64 174h-15z M221 331v-15q47 -142 221 -142h79l158 15l-16 16v16l-16 -16h-63l-16 16l-16 -16q-203 22 -331 126zM757 189h16l111 32v16q-127 -16 -127 -48z" />
<glyph unicode="&#xde;" d="M584 1341h63v-31q-166 0 -268 -95h15q66 47 300 63q474 -58 474 -126l189 -426l-16 -16v-16l16 -15q-7 -98 -79 -190l16 -63q0 -143 -410 -347l-253 -79h-79v32h32q663 197 663 378l-16 16h-16q-229 -316 -757 -316q-160 0 -379 206h-16q116 -284 284 -284h79v-32h-95 q-285 0 -331 536v48q0 464 268 584q158 173 316 173zM505 1120h16l236 63l-15 16l-48 16v16q-109 -37 -189 -111zM221 947q263 236 315 236v16h-15q-300 -63 -300 -252zM805 1199q0 -44 -426 -173q-237 -192 -237 -363v-79q0 -178 158 -253q0 117 473 269l126 -16l95 16 l16 -16v-16l-47 -63l-64 16q-375 -43 -457 -127q-56 0 -126 -78q73 -48 315 -64q316 0 442 237q79 105 79 174v63l-47 173h15q58 0 79 -236q0 -131 -221 -347v-16h16q174 95 221 205l32 47v237q-83 256 -190 300v-16q63 -91 63 -142h-31q-115 268 -221 268l-16 -16h-16 l-15 16h-16zM1026 1183v-15q39 0 110 -63v15q0 31 -95 63h-15zM142 915v-16h16l47 158q-54 0 -63 -142zM899 1010q79 -47 79 -111l-15 -47l31 -31q-107 -95 -173 -95q-84 0 -95 158l47 31q0 -142 32 -142h16v16l-16 79l47 31h16l-16 -78v-16h32l47 126l-47 47h-16l-95 -63 v32q0 41 126 63zM79 931l-47 -363v-32h15l63 395h-31zM489 868q0 -32 47 -32l16 -15v-16q-89 -142 -173 -142h-16l-32 31v32q0 85 63 110h32v-15q-63 -56 -63 -111h31l79 79v32q-47 0 -47 31zM1294 742v-127h16v127h-16zM95 505v-32q0 -98 79 -173v31q-64 95 -64 174h-15z M221 331v-15q47 -142 221 -142h79l158 15l-16 16v16l-16 -16h-63l-16 16l-16 -16q-203 22 -331 126zM757 189h16l111 32v16q-127 -16 -127 -48z" />
<glyph unicode="&#xdf;" d="M584 1341h63v-31q-166 0 -268 -95h15q66 47 300 63q474 -58 474 -126l189 -426l-16 -16v-16l16 -15q-7 -98 -79 -190l16 -63q0 -143 -410 -347l-253 -79h-79v32h32q663 197 663 378l-16 16h-16q-229 -316 -757 -316q-160 0 -379 206h-16q116 -284 284 -284h79v-32h-95 q-285 0 -331 536v48q0 464 268 584q158 173 316 173zM505 1120h16l236 63l-15 16l-48 16v16q-109 -37 -189 -111zM221 947q263 236 315 236v16h-15q-300 -63 -300 -252zM805 1199q0 -44 -426 -173q-237 -192 -237 -363v-79q0 -178 158 -253q0 117 473 269l126 -16l95 16 l16 -16v-16l-47 -63l-64 16q-375 -43 -457 -127q-56 0 -126 -78q73 -48 315 -64q316 0 442 237q79 105 79 174v63l-47 173h15q58 0 79 -236q0 -131 -221 -347v-16h16q174 95 221 205l32 47v237q-83 256 -190 300v-16q63 -91 63 -142h-31q-115 268 -221 268l-16 -16h-16 l-15 16h-16zM1026 1183v-15q39 0 110 -63v15q0 31 -95 63h-15zM142 915v-16h16l47 158q-54 0 -63 -142zM899 1010q79 -47 79 -111l-15 -47l31 -31q-107 -95 -173 -95q-84 0 -95 158l47 31q0 -142 32 -142h16v16l-16 79l47 31h16l-16 -78v-16h32l47 126l-47 47h-16l-95 -63 v32q0 41 126 63zM79 931l-47 -363v-32h15l63 395h-31zM489 868q0 -32 47 -32l16 -15v-16q-89 -142 -173 -142h-16l-32 31v32q0 85 63 110h32v-15q-63 -56 -63 -111h31l79 79v32q-47 0 -47 31zM1294 742v-127h16v127h-16zM95 505v-32q0 -98 79 -173v31q-64 95 -64 174h-15z M221 331v-15q47 -142 221 -142h79l158 15l-16 16v16l-16 -16h-63l-16 16l-16 -16q-203 22 -331 126zM757 189h16l111 32v16q-127 -16 -127 -48z" />
<glyph unicode="&#xe0;" horiz-adv-x="922" d="M335 1192h15l42 -28l14 14q127 -132 142 -227l-99 -43q-170 139 -170 213q27 65 56 71zM534 894q198 -71 298 -284l14 -71l-14 -71l28 -269v-29q0 -142 -113 -142h-57q-38 0 -42 71l-114 -99q-42 0 -42 57l-15 -14h-28l-199 -15q-101 43 -170 156v86q0 140 199 269h14 l99 -14q241 48 241 71q-71 78 -71 142h-14q0 -57 -71 -57v14q-241 -51 -241 -127h-71l-57 71q57 0 57 56q57 71 85 71v14h-28l-114 -113v43q157 184 426 184zM520 851l85 -71l14 15v14zM335 766h15q71 18 71 43h-43zM648 780l14 -14v-14l-14 -14v-14l99 -71v14l-85 113h-14z M335 710v-29l171 43v28zM179 624v-14h43v29zM733 596v-14l14 -57h28q-18 71 -42 71zM662 553v-14q14 -46 57 -57v15l-29 56h-28zM577 497v-15l42 -42h14v71h-14zM790 511l-15 -114l29 -85h14v29l-14 170h-14zM208 440v-14h14q99 48 99 71h-14q-76 0 -99 -57zM492 468v-14 l70 -14l-28 28h-42zM605 397v-14q0 -28 43 -28l14 -14v-57l-14 -14v-15h14l28 29v99zM264 284q0 -85 114 -100h14q156 0 227 114l-42 71h-128q-56 0 -185 -85zM761 312l-14 -71v-14l28 -28l15 14v71zM108 270v-57l57 -71v57l-28 42l14 43zM194 227v-43l56 57v14h-28z M250 199l-14 -15v-28l28 -28h57v14zM676 170l-14 -42l14 -57h71l71 14v29l-85 42v-14l14 -43l-14 -14h-14l-29 29v14l14 14v14l-14 14h-14zM506 57l14 -14v-15q42 0 85 86h-14z" />
<glyph unicode="&#xe1;" d="M584 1341h63v-31q-166 0 -268 -95h15q66 47 300 63q474 -58 474 -126l189 -426l-16 -16v-16l16 -15q-7 -98 -79 -190l16 -63q0 -143 -410 -347l-253 -79h-79v32h32q663 197 663 378l-16 16h-16q-229 -316 -757 -316q-160 0 -379 206h-16q116 -284 284 -284h79v-32h-95 q-285 0 -331 536v48q0 464 268 584q158 173 316 173zM505 1120h16l236 63l-15 16l-48 16v16q-109 -37 -189 -111zM221 947q263 236 315 236v16h-15q-300 -63 -300 -252zM805 1199q0 -44 -426 -173q-237 -192 -237 -363v-79q0 -178 158 -253q0 117 473 269l126 -16l95 16 l16 -16v-16l-47 -63l-64 16q-375 -43 -457 -127q-56 0 -126 -78q73 -48 315 -64q316 0 442 237q79 105 79 174v63l-47 173h15q58 0 79 -236q0 -131 -221 -347v-16h16q174 95 221 205l32 47v237q-83 256 -190 300v-16q63 -91 63 -142h-31q-115 268 -221 268l-16 -16h-16 l-15 16h-16zM1026 1183v-15q39 0 110 -63v15q0 31 -95 63h-15zM142 915v-16h16l47 158q-54 0 -63 -142zM899 1010q79 -47 79 -111l-15 -47l31 -31q-107 -95 -173 -95q-84 0 -95 158l47 31q0 -142 32 -142h16v16l-16 79l47 31h16l-16 -78v-16h32l47 126l-47 47h-16l-95 -63 v32q0 41 126 63zM79 931l-47 -363v-32h15l63 395h-31zM489 868q0 -32 47 -32l16 -15v-16q-89 -142 -173 -142h-16l-32 31v32q0 85 63 110h32v-15q-63 -56 -63 -111h31l79 79v32q-47 0 -47 31zM1294 742v-127h16v127h-16zM95 505v-32q0 -98 79 -173v31q-64 95 -64 174h-15z M221 331v-15q47 -142 221 -142h79l158 15l-16 16v16l-16 -16h-63l-16 16l-16 -16q-203 22 -331 126zM757 189h16l111 32v16q-127 -16 -127 -48z" />
<glyph unicode="&#xe2;" d="M584 1341h63v-31q-166 0 -268 -95h15q66 47 300 63q474 -58 474 -126l189 -426l-16 -16v-16l16 -15q-7 -98 -79 -190l16 -63q0 -143 -410 -347l-253 -79h-79v32h32q663 197 663 378l-16 16h-16q-229 -316 -757 -316q-160 0 -379 206h-16q116 -284 284 -284h79v-32h-95 q-285 0 -331 536v48q0 464 268 584q158 173 316 173zM505 1120h16l236 63l-15 16l-48 16v16q-109 -37 -189 -111zM221 947q263 236 315 236v16h-15q-300 -63 -300 -252zM805 1199q0 -44 -426 -173q-237 -192 -237 -363v-79q0 -178 158 -253q0 117 473 269l126 -16l95 16 l16 -16v-16l-47 -63l-64 16q-375 -43 -457 -127q-56 0 -126 -78q73 -48 315 -64q316 0 442 237q79 105 79 174v63l-47 173h15q58 0 79 -236q0 -131 -221 -347v-16h16q174 95 221 205l32 47v237q-83 256 -190 300v-16q63 -91 63 -142h-31q-115 268 -221 268l-16 -16h-16 l-15 16h-16zM1026 1183v-15q39 0 110 -63v15q0 31 -95 63h-15zM142 915v-16h16l47 158q-54 0 -63 -142zM899 1010q79 -47 79 -111l-15 -47l31 -31q-107 -95 -173 -95q-84 0 -95 158l47 31q0 -142 32 -142h16v16l-16 79l47 31h16l-16 -78v-16h32l47 126l-47 47h-16l-95 -63 v32q0 41 126 63zM79 931l-47 -363v-32h15l63 395h-31zM489 868q0 -32 47 -32l16 -15v-16q-89 -142 -173 -142h-16l-32 31v32q0 85 63 110h32v-15q-63 -56 -63 -111h31l79 79v32q-47 0 -47 31zM1294 742v-127h16v127h-16zM95 505v-32q0 -98 79 -173v31q-64 95 -64 174h-15z M221 331v-15q47 -142 221 -142h79l158 15l-16 16v16l-16 -16h-63l-16 16l-16 -16q-203 22 -331 126zM757 189h16l111 32v16q-127 -16 -127 -48z" />
<glyph unicode="&#xe3;" d="M584 1341h63v-31q-166 0 -268 -95h15q66 47 300 63q474 -58 474 -126l189 -426l-16 -16v-16l16 -15q-7 -98 -79 -190l16 -63q0 -143 -410 -347l-253 -79h-79v32h32q663 197 663 378l-16 16h-16q-229 -316 -757 -316q-160 0 -379 206h-16q116 -284 284 -284h79v-32h-95 q-285 0 -331 536v48q0 464 268 584q158 173 316 173zM505 1120h16l236 63l-15 16l-48 16v16q-109 -37 -189 -111zM221 947q263 236 315 236v16h-15q-300 -63 -300 -252zM805 1199q0 -44 -426 -173q-237 -192 -237 -363v-79q0 -178 158 -253q0 117 473 269l126 -16l95 16 l16 -16v-16l-47 -63l-64 16q-375 -43 -457 -127q-56 0 -126 -78q73 -48 315 -64q316 0 442 237q79 105 79 174v63l-47 173h15q58 0 79 -236q0 -131 -221 -347v-16h16q174 95 221 205l32 47v237q-83 256 -190 300v-16q63 -91 63 -142h-31q-115 268 -221 268l-16 -16h-16 l-15 16h-16zM1026 1183v-15q39 0 110 -63v15q0 31 -95 63h-15zM142 915v-16h16l47 158q-54 0 -63 -142zM899 1010q79 -47 79 -111l-15 -47l31 -31q-107 -95 -173 -95q-84 0 -95 158l47 31q0 -142 32 -142h16v16l-16 79l47 31h16l-16 -78v-16h32l47 126l-47 47h-16l-95 -63 v32q0 41 126 63zM79 931l-47 -363v-32h15l63 395h-31zM489 868q0 -32 47 -32l16 -15v-16q-89 -142 -173 -142h-16l-32 31v32q0 85 63 110h32v-15q-63 -56 -63 -111h31l79 79v32q-47 0 -47 31zM1294 742v-127h16v127h-16zM95 505v-32q0 -98 79 -173v31q-64 95 -64 174h-15z M221 331v-15q47 -142 221 -142h79l158 15l-16 16v16l-16 -16h-63l-16 16l-16 -16q-203 22 -331 126zM757 189h16l111 32v16q-127 -16 -127 -48z" />
<glyph unicode="&#xe4;" d="M584 1341h63v-31q-166 0 -268 -95h15q66 47 300 63q474 -58 474 -126l189 -426l-16 -16v-16l16 -15q-7 -98 -79 -190l16 -63q0 -143 -410 -347l-253 -79h-79v32h32q663 197 663 378l-16 16h-16q-229 -316 -757 -316q-160 0 -379 206h-16q116 -284 284 -284h79v-32h-95 q-285 0 -331 536v48q0 464 268 584q158 173 316 173zM505 1120h16l236 63l-15 16l-48 16v16q-109 -37 -189 -111zM221 947q263 236 315 236v16h-15q-300 -63 -300 -252zM805 1199q0 -44 -426 -173q-237 -192 -237 -363v-79q0 -178 158 -253q0 117 473 269l126 -16l95 16 l16 -16v-16l-47 -63l-64 16q-375 -43 -457 -127q-56 0 -126 -78q73 -48 315 -64q316 0 442 237q79 105 79 174v63l-47 173h15q58 0 79 -236q0 -131 -221 -347v-16h16q174 95 221 205l32 47v237q-83 256 -190 300v-16q63 -91 63 -142h-31q-115 268 -221 268l-16 -16h-16 l-15 16h-16zM1026 1183v-15q39 0 110 -63v15q0 31 -95 63h-15zM142 915v-16h16l47 158q-54 0 -63 -142zM899 1010q79 -47 79 -111l-15 -47l31 -31q-107 -95 -173 -95q-84 0 -95 158l47 31q0 -142 32 -142h16v16l-16 79l47 31h16l-16 -78v-16h32l47 126l-47 47h-16l-95 -63 v32q0 41 126 63zM79 931l-47 -363v-32h15l63 395h-31zM489 868q0 -32 47 -32l16 -15v-16q-89 -142 -173 -142h-16l-32 31v32q0 85 63 110h32v-15q-63 -56 -63 -111h31l79 79v32q-47 0 -47 31zM1294 742v-127h16v127h-16zM95 505v-32q0 -98 79 -173v31q-64 95 -64 174h-15z M221 331v-15q47 -142 221 -142h79l158 15l-16 16v16l-16 -16h-63l-16 16l-16 -16q-203 22 -331 126zM757 189h16l111 32v16q-127 -16 -127 -48z" />
<glyph unicode="&#xe5;" d="M584 1341h63v-31q-166 0 -268 -95h15q66 47 300 63q474 -58 474 -126l189 -426l-16 -16v-16l16 -15q-7 -98 -79 -190l16 -63q0 -143 -410 -347l-253 -79h-79v32h32q663 197 663 378l-16 16h-16q-229 -316 -757 -316q-160 0 -379 206h-16q116 -284 284 -284h79v-32h-95 q-285 0 -331 536v48q0 464 268 584q158 173 316 173zM505 1120h16l236 63l-15 16l-48 16v16q-109 -37 -189 -111zM221 947q263 236 315 236v16h-15q-300 -63 -300 -252zM805 1199q0 -44 -426 -173q-237 -192 -237 -363v-79q0 -178 158 -253q0 117 473 269l126 -16l95 16 l16 -16v-16l-47 -63l-64 16q-375 -43 -457 -127q-56 0 -126 -78q73 -48 315 -64q316 0 442 237q79 105 79 174v63l-47 173h15q58 0 79 -236q0 -131 -221 -347v-16h16q174 95 221 205l32 47v237q-83 256 -190 300v-16q63 -91 63 -142h-31q-115 268 -221 268l-16 -16h-16 l-15 16h-16zM1026 1183v-15q39 0 110 -63v15q0 31 -95 63h-15zM142 915v-16h16l47 158q-54 0 -63 -142zM899 1010q79 -47 79 -111l-15 -47l31 -31q-107 -95 -173 -95q-84 0 -95 158l47 31q0 -142 32 -142h16v16l-16 79l47 31h16l-16 -78v-16h32l47 126l-47 47h-16l-95 -63 v32q0 41 126 63zM79 931l-47 -363v-32h15l63 395h-31zM489 868q0 -32 47 -32l16 -15v-16q-89 -142 -173 -142h-16l-32 31v32q0 85 63 110h32v-15q-63 -56 -63 -111h31l79 79v32q-47 0 -47 31zM1294 742v-127h16v127h-16zM95 505v-32q0 -98 79 -173v31q-64 95 -64 174h-15z M221 331v-15q47 -142 221 -142h79l158 15l-16 16v16l-16 -16h-63l-16 16l-16 -16q-203 22 -331 126zM757 189h16l111 32v16q-127 -16 -127 -48z" />
<glyph unicode="&#xe6;" d="M584 1341h63v-31q-166 0 -268 -95h15q66 47 300 63q474 -58 474 -126l189 -426l-16 -16v-16l16 -15q-7 -98 -79 -190l16 -63q0 -143 -410 -347l-253 -79h-79v32h32q663 197 663 378l-16 16h-16q-229 -316 -757 -316q-160 0 -379 206h-16q116 -284 284 -284h79v-32h-95 q-285 0 -331 536v48q0 464 268 584q158 173 316 173zM505 1120h16l236 63l-15 16l-48 16v16q-109 -37 -189 -111zM221 947q263 236 315 236v16h-15q-300 -63 -300 -252zM805 1199q0 -44 -426 -173q-237 -192 -237 -363v-79q0 -178 158 -253q0 117 473 269l126 -16l95 16 l16 -16v-16l-47 -63l-64 16q-375 -43 -457 -127q-56 0 -126 -78q73 -48 315 -64q316 0 442 237q79 105 79 174v63l-47 173h15q58 0 79 -236q0 -131 -221 -347v-16h16q174 95 221 205l32 47v237q-83 256 -190 300v-16q63 -91 63 -142h-31q-115 268 -221 268l-16 -16h-16 l-15 16h-16zM1026 1183v-15q39 0 110 -63v15q0 31 -95 63h-15zM142 915v-16h16l47 158q-54 0 -63 -142zM899 1010q79 -47 79 -111l-15 -47l31 -31q-107 -95 -173 -95q-84 0 -95 158l47 31q0 -142 32 -142h16v16l-16 79l47 31h16l-16 -78v-16h32l47 126l-47 47h-16l-95 -63 v32q0 41 126 63zM79 931l-47 -363v-32h15l63 395h-31zM489 868q0 -32 47 -32l16 -15v-16q-89 -142 -173 -142h-16l-32 31v32q0 85 63 110h32v-15q-63 -56 -63 -111h31l79 79v32q-47 0 -47 31zM1294 742v-127h16v127h-16zM95 505v-32q0 -98 79 -173v31q-64 95 -64 174h-15z M221 331v-15q47 -142 221 -142h79l158 15l-16 16v16l-16 -16h-63l-16 16l-16 -16q-203 22 -331 126zM757 189h16l111 32v16q-127 -16 -127 -48z" />
<glyph unicode="&#xe7;" horiz-adv-x="905" d="M518 906q310 0 310 -171q31 0 31 -77q0 -82 -139 -155l-233 124l-15 -16v-15l-47 15q-42 0 -93 -139h-15v31l15 15v31h-15l-16 -46l16 -62l-31 -93h31v31h31v-31l-31 -47v-31h62l124 -31l310 124l46 -62l-15 -62l15 -15v-16q-135 -232 -294 -232v-47q93 0 93 -108h-16 l16 -16v-77q-97 -109 -186 -109h-171q-112 0 -124 78q0 80 78 124h62l15 -62h31v31l47 -16q77 0 77 31l-31 47l-62 -31v15q0 35 78 47v15h-31l-78 -15v77h31v16q0 35 -201 62q-88 0 -171 263q0 384 357 574zM317 782h31l46 46h-15zM410 782h31l62 31v15h-47zM565 813 q0 -124 -31 -124l15 -47l16 16h15l-15 15l15 93v47h-15zM627 813v-109l-16 -77h31l16 155v31h-31zM720 813l-31 -31v-31l46 31l16 -16h15v16l-31 31h-15zM487 782l-31 -93h16l15 -16h16v109h-16zM735 751l-15 -109v-15h31l31 93zM239 642h16l46 62q-51 -15 -62 -62zM348 704 l-16 -77l47 46v31h-31zM704 596l-15 15h-16v-46l62 -16l78 109v46l-62 -108h-47zM255 611l-31 -62l15 -46l-46 -47v-31l46 -46l16 15l-16 16v31l16 15l-16 16v15q47 57 47 109v15h-31zM131 596q-47 -83 -78 -279q77 -202 109 -202l-62 248v78l46 139v16h-15zM410 580h31v-15 q-28 -124 -62 -124v31zM193 332v-62h31l15 16h16l-16 46h-46zM751 301l15 -15v-31l-15 -16v-15h62v93h-31l-16 -16h-15zM286 255v-16l31 -31v47h-31zM642 239v-31h16q62 23 62 47h-16zM348 224l31 -31h15v31h-46zM456 193v-16l16 -15v-16l77 16v31h-93zM224 177v-15l31 -31 v46h-31zM379 177l31 -31h31l-31 31h-31zM673 69h16l46 46q-62 -23 -62 -46zM534 38l15 -16v-15q93 20 93 46h-31zM441 -40h77v47h-15zM596 -148v-31h-16l16 -47l-31 -62h15l31 31v109h-15zM224 -303q0 -47 62 -47l46 16q-37 124 -62 124q-46 -16 -46 -93zM348 -272v-31h15 l47 15v16h-62zM379 -319v-15h15q93 36 93 62h-15z" />
<glyph unicode="&#xe8;" horiz-adv-x="909" d="M303 1310q207 -76 207 -235l15 -16l-15 -16v-15l-14 15h-15l-89 -47q-28 0 -222 204v16q52 94 133 94zM229 1200l59 -47v16l-29 47l29 31h30q0 -47 30 -47v16l-30 63q-89 0 -89 -79zM392 1185v-16q29 -72 59 -78v15zM584 965q20 -61 193 -235l15 -78v-95l-15 -15l15 -16 v-31q0 -94 -385 -94h-104l-29 -32v-15l14 15h15q0 -59 148 -141l15 16h15l15 -16v-15q227 156 281 156l74 -31q0 -265 -385 -345h-89q-296 130 -296 392v110q0 197 163 392l252 31h29l15 -16h15q0 63 29 63zM288 824v-16l45 47v16zM377 855v-31l133 -16h30v16 q-104 26 -104 47zM570 840v-16q74 -4 74 -47v-78q89 0 89 -63h14v16l-14 62l-15 -15h-45l15 78q-29 0 -29 47l-15 16h-74zM303 557h74q0 63 148 79v63l-59 31q-117 0 -163 -173zM259 714v-31h59l-30 31h-29zM155 652v-16l30 31v16zM570 589q0 -47 -60 -47v-16h45q0 39 59 47 v16h-44zM125 573v-94h15v94h-15zM644 463h29l74 63q-29 0 -29 47zM244 542l-15 -110h15l15 16h15l-15 94h-15zM318 495q15 -52 59 -63v47zM111 416l74 -235h14v47l-14 63l14 16q-59 25 -59 109h-29zM792 322q0 -73 -178 -235h15q178 96 178 220v15h-15zM644 244h15l29 31 h-15zM244 260v-47l30 -79h29l-44 126h-15zM348 244v-16l44 -47h15v32zM303 228v-15l30 -32v16zM392 87l-15 -16v-15l15 -16h74q0 36 -74 47z" />
<glyph unicode="&#xe9;" horiz-adv-x="909" d="M654 1398l15 -63h15l45 32l30 -32q-26 -59 -120 -110q0 -110 -151 -125v-48q120 -15 120 -47l15 16q138 0 242 -283l-30 -251h-30l-15 16h-16v-47q46 0 46 -32l-30 -31q45 -60 45 -142v-15q-103 -205 -302 -205l-30 -31q-408 69 -408 471v126q0 321 272 440l15 110 q-30 0 -30 -47h-31v15q97 203 333 283zM412 1178l15 -16v-15l-15 -79q151 200 227 251v32h-16q-72 -28 -211 -173zM442 1021v-79l46 32l60 -16l15 16v16l-106 31h-15zM306 990l-30 -63v-16h30l31 79h-31zM367 958h15l30 32h-15zM593 942h61l-31 32zM669 927v-16l30 -31v15z M170 785v-15h16l75 125v16q-91 -63 -91 -126zM306 864v-47l46 47h-46zM367 864q0 -47 -76 -126v-15l30 -32q31 142 91 142v15zM472 864v-16l61 -15v31h-61zM759 864v-16q46 -80 46 -157h15v79l-46 94h-15zM321 675q0 -62 167 -62h15l45 31l60 -16q0 130 -166 173h-15z M623 785v-31h61v16zM155 754l-30 -204v-32l45 -251h31l-31 173l16 16v15l-46 79l46 15v63h-31v16l15 94v16h-15zM654 660l15 -16v-16l-15 -47h30l15 94zM714 628l-30 -125l45 -32l30 79q-19 78 -45 78zM306 613v-16q15 -110 46 -110v16q-15 110 -46 110zM805 597l-15 -47 v-32h15l15 63v16h-15zM367 581v-47h30v47h-30zM563 581q0 -26 91 -47v16l-31 31h-60zM427 565v-94h45q-19 94 -45 94zM503 518q5 -42 75 -62v31l-30 63zM246 503v-63l15 -16h15v16l-15 63h-15zM639 440v-16h45l30 32h-30l-15 15zM352 346q114 -79 166 -79q172 63 196 126 h-15l-15 -16h-15l-61 16h-15v-32h-30q0 79 -136 79q-75 -16 -75 -94zM246 408v-31h-15l15 -110h15l15 79l-15 62h-15zM759 361l-15 -15v-48h46v32zM306 314l-15 -78v-32h15v47h31v-31h15v31l15 16l-46 47h-15zM578 251v-15h61l45 47h-15zM442 236l-30 -79h15l45 47zM699 157 h15q40 10 76 79h-16zM563 188q0 -31 -45 -31v-31q121 37 121 62l-76 16v-16zM397 79v-16l60 -16q242 47 242 94h-30q-93 -62 -272 -62z" />
</font>
</defs>
</svg>
